<svg width="38" height="38" viewBox="0 0 38 38" fill="none" xmlns="http://www.w3.org/2000/svg">
<path d="M20.2736 0C21.306 0.224428 22.3533 0.403971 23.3857 0.673285C30.717 2.58841 36.1631 8.84247 37.0907 16.3533C37.1805 17.0715 37.2254 17.7747 37.3002 18.6126C36.2828 18.6126 35.3552 18.6425 34.4275 18.5827C34.2929 18.5677 34.0834 18.1637 34.0684 17.9393C33.9188 15.2013 33.1558 12.6578 31.6446 10.3686C28.742 5.96979 24.6574 3.59085 19.3908 3.24673C18.8073 3.20184 18.5978 3.06719 18.6278 2.48367C18.6727 1.66077 18.6278 0.852827 18.6278 0.0299238C19.1814 0 19.72 0 20.2736 0Z" fill="#003034"/>
<path d="M0 18.6279C0.837866 18.6429 1.69069 18.6728 2.52856 18.6429C3.05222 18.6279 3.18688 18.8075 3.21681 19.3162C3.69559 25.7498 6.91239 30.2683 12.7774 32.9165C14.3933 33.6497 16.1289 33.9938 17.9094 34.0387C18.463 34.0536 18.6425 34.2481 18.6126 34.7868C18.5677 35.5797 18.5976 36.3578 18.5976 37.3303C17.3558 37.1807 16.2037 37.1059 15.0666 36.8964C7.21163 35.3553 1.27176 29.0264 0.179543 21.0518C0.149619 20.7824 0.0598475 20.5281 0 20.2588C0 19.7201 0 19.1815 0 18.6279Z" fill="#003034"/>
<path d="M28.0362 16.8926C27.7818 17.6707 27.6322 18.2991 27.348 18.8676C27.2582 19.0621 26.8243 19.1668 26.54 19.1668C22.9641 19.1818 19.3882 19.1818 15.8123 19.1818C15.543 19.1818 15.2737 19.1818 15.0194 19.1818C14.8548 20.7528 16.351 22.4285 18.1015 22.653C19.6127 22.8475 21.0191 22.5632 22.1412 21.3962C22.2759 21.2615 22.6499 21.2166 22.8145 21.3064C23.4579 21.6655 24.0713 22.0844 24.6847 22.4884C24.3107 24.0145 21.7073 25.4209 19.0142 25.4359C15.3934 25.4658 13.1042 23.5058 11.8474 19.1968C11.0096 19.1968 10.1418 19.1968 9.1543 19.1968C9.1543 18.5085 9.12438 17.8652 9.16926 17.2368C9.18423 17.1171 9.45354 16.9226 9.61812 16.9076C10.1567 16.8627 10.7103 16.8627 11.249 16.8926C11.8026 16.9375 12.0569 16.743 12.2514 16.1894C13.583 12.1946 18.1165 10.3244 21.8121 12.2395C23.4429 13.0774 24.5052 14.4239 24.9541 16.1894C25.0887 16.7281 25.3431 16.9226 25.8817 16.8926C26.54 16.8627 27.2133 16.8926 28.0362 16.8926ZM15.1091 16.7729C15.1989 16.8178 15.2288 16.8627 15.2737 16.8627C17.3684 16.8777 19.478 16.8926 21.5727 16.8926C22.0963 16.8926 22.0066 16.5336 21.9018 16.2194C21.4081 14.7082 19.9867 13.8853 18.1165 14.02C16.6502 14.1247 15.3784 15.2768 15.1091 16.7729Z" fill="#003034"/>
</svg>
