<svg width="125" height="125" viewBox="0 0 125 125" fill="none" xmlns="http://www.w3.org/2000/svg">
<circle cx="62.5" cy="62.5" r="62.5" fill="white"/>
<path d="M62.9965 19L106.996 62.9996L62.9965 62.9996L62.9965 19Z" fill="#EF4421"/>
<path d="M84.9995 63.0005L62.9961 40.9971L40.9927 63.0005L62.9961 85.0039L84.9995 63.0005Z" fill="white"/>
<path d="M106.996 63L62.9965 107L62.9965 63L106.996 63Z" fill="#F36B50"/>
<path d="M84.9995 63L62.9961 40.9966L40.9927 63L62.9961 85.0034L84.9995 63Z" fill="white"/>
<path d="M63 107L19.0004 63L63 63L63 107Z" fill="#F7937F"/>
<path d="M85.0034 63L63 40.9966L40.9966 63L63 85.0034L85.0034 63Z" fill="white"/>
<path d="M19.0004 62.9996L63 19L63 62.9996L19.0004 62.9996Z" fill="#FBBAAD"/>
<path d="M85.0034 63.0005L63 40.9971L40.9966 63.0005L63 85.0039L85.0034 63.0005Z" fill="white"/>
</svg>
