<svg width="42" height="42" viewBox="0 0 42 42" fill="none" xmlns="http://www.w3.org/2000/svg">
<path d="M21 42C32.598 42 42 32.598 42 21C42 9.40202 32.598 0 21 0C9.40202 0 0 9.40202 0 21C0 32.598 9.40202 42 21 42Z" fill="#172852"/>
<path d="M16.9151 9.38483C19.3742 8.46503 22.142 8.46293 24.6473 9.21893C27.9086 10.2311 30.6617 12.6923 32.1002 15.7814C32.4971 16.6613 32.8772 17.579 32.915 18.5576C31.0817 17.495 29.072 16.8062 27.0581 16.1783C23.8367 15.017 20.4641 14.2106 17.4149 12.6146C16.7051 12.1904 15.8 11.7557 15.6068 10.8716C15.5291 10.1072 16.3376 9.68093 16.9151 9.38483Z" fill="#FFD83D"/>
<path d="M9.49334 16.8184C10.2052 14.8864 11.3728 13.093 12.9583 11.7637C13.3615 15.0796 14.7727 18.2842 17.1037 20.695C19.8988 23.5993 23.8804 25.3822 27.9313 25.315C29.5399 25.3654 31.1128 24.9937 32.6815 24.6934C31.138 30.271 25.0249 33.9733 19.3612 33.0829C15.9424 32.6461 12.7861 30.6217 10.8814 27.7636C8.73314 24.6052 8.19134 20.4115 9.49334 16.8184Z" fill="#FFD83D"/>
<path d="M27.0586 16.1777C29.0725 16.8056 31.0822 17.4944 32.9155 18.557L33.0394 18.6221C33.2095 19.901 33.3334 21.2051 33.1066 22.4861C32.1847 22.0955 31.4371 21.4088 30.6559 20.8019C29.1523 19.5503 27.6172 18.1181 27.0586 16.1777Z" fill="#FF6F03"/>
</svg>
