<svg width="26" height="26" viewBox="0 0 26 26" fill="none" xmlns="http://www.w3.org/2000/svg">
<circle cx="13" cy="13" r="13" fill="#85BB65"/>
<path d="M12.3487 18.6686C11.6087 18.5886 10.9637 18.3936 10.4137 18.0836C9.86366 17.7636 9.43366 17.3436 9.12366 16.8236C8.81366 16.3036 8.63366 15.7036 8.58366 15.0236C8.58366 15.0136 8.58366 15.0086 8.58366 15.0086C8.58366 15.0086 8.58366 15.0036 8.58366 14.9936H10.6687C10.6987 15.3436 10.7837 15.6536 10.9237 15.9236C11.0637 16.1936 11.2537 16.4136 11.4937 16.5836C11.7337 16.7536 12.0187 16.8686 12.3487 16.9286V13.8686C11.6087 13.6886 10.9937 13.4836 10.5037 13.2536C10.0137 13.0136 9.63366 12.6986 9.36366 12.3086C9.10366 11.9186 8.97366 11.4236 8.97366 10.8236C8.97366 9.94363 9.27866 9.22863 9.88866 8.67863C10.4987 8.12863 11.3187 7.80363 12.3487 7.70363V6.72863H13.6687V7.70363C14.7087 7.81363 15.5287 8.16363 16.1287 8.75363C16.7387 9.34363 17.0737 10.0936 17.1337 11.0036H15.1087C15.0687 10.5836 14.9237 10.2386 14.6737 9.96863C14.4237 9.68863 14.0887 9.50363 13.6687 9.41363V12.1436C14.4987 12.3236 15.1787 12.5336 15.7087 12.7736C16.2487 13.0136 16.6637 13.3436 16.9537 13.7636C17.2537 14.1736 17.4037 14.7086 17.4037 15.3686C17.4037 15.9986 17.2437 16.5536 16.9237 17.0336C16.6137 17.5036 16.1737 17.8836 15.6037 18.1736C15.0437 18.4536 14.3987 18.6236 13.6687 18.6836V19.7786H12.3487V18.6686ZM13.6687 16.9736C14.1787 16.9136 14.5837 16.7586 14.8837 16.5086C15.1937 16.2486 15.3487 15.9036 15.3487 15.4736C15.3487 15.2336 15.2887 15.0336 15.1687 14.8736C15.0587 14.7036 14.8837 14.5636 14.6437 14.4536C14.4037 14.3436 14.0787 14.2386 13.6687 14.1386V16.9736ZM12.3487 9.39863C11.9287 9.47863 11.5987 9.63363 11.3587 9.86363C11.1187 10.0836 10.9987 10.3536 10.9987 10.6736C10.9987 10.9736 11.1037 11.2086 11.3137 11.3786C11.5237 11.5486 11.8687 11.7036 12.3487 11.8436V9.39863Z" fill="white"/>
</svg>
