<svg width="429" height="927" viewBox="0 0 429 927" fill="none" xmlns="http://www.w3.org/2000/svg">
<path d="M435.146 0.704773H324.441V103.492H435.146V0.704773Z" stroke="#929292" stroke-opacity="0.1" stroke-width="2" stroke-miterlimit="10"/>
<path d="M435.154 103.492V104.197L380.181 155.251L324.814 103.844L325.194 103.492H435.154Z" stroke="#929292" stroke-opacity="0.1" stroke-width="2" stroke-miterlimit="10"/>
<path d="M325.187 103.492L324.441 104.183V103.492H325.187Z" stroke="#929292" stroke-opacity="0.1" stroke-width="2" stroke-miterlimit="10"/>
<path d="M435.15 104.198V206.293L380.177 155.252L435.15 104.198Z" stroke="#929292" stroke-opacity="0.1" stroke-width="2" stroke-miterlimit="10"/>
<path d="M435.151 206.292H325.191L380.178 155.251L435.151 206.292Z" stroke="#929292" stroke-opacity="0.1" stroke-width="2" stroke-miterlimit="10"/>
<path d="M435.15 206.984V309.079L380.177 258.038L435.15 206.984Z" stroke="#929292" stroke-opacity="0.1" stroke-width="2" stroke-miterlimit="10"/>
<path d="M435.146 309.079H324.441V206.292H325.187L324.821 206.644L380.173 258.038L435.146 309.079Z" stroke="#929292" stroke-opacity="0.1" stroke-width="2" stroke-miterlimit="10"/>
<path d="M324.438 309.087L324.438 411.874L435.142 411.874L435.142 309.087L324.438 309.087Z" stroke="#929292" stroke-opacity="0.1" stroke-width="2" stroke-miterlimit="10"/>
<path d="M435.146 411.866V514.666L324.807 412.218L324.441 412.558V411.866H435.146Z" stroke="#929292" stroke-opacity="0.1" stroke-width="2" stroke-miterlimit="10"/>
<path d="M435.15 515.358V617.453L380.177 566.412L435.15 515.358Z" stroke="#929292" stroke-opacity="0.1" stroke-width="2" stroke-miterlimit="10"/>
<path d="M435.151 617.454H325.191L380.178 566.413L435.151 617.454Z" stroke="#929292" stroke-opacity="0.1" stroke-width="2" stroke-miterlimit="10"/>
<path d="M380.173 566.413L325.187 617.454H324.441V515.359L324.807 515.006L380.173 566.413Z" stroke="#929292" stroke-opacity="0.1" stroke-width="2" stroke-miterlimit="10"/>
<path d="M325.187 514.666L324.807 515.005L324.441 515.357V514.666H325.187Z" stroke="#929292" stroke-opacity="0.1" stroke-width="2" stroke-miterlimit="10"/>
<path d="M325.187 617.453L324.821 617.805L324.441 618.144V617.453H325.187Z" stroke="#929292" stroke-opacity="0.1" stroke-width="2" stroke-miterlimit="10"/>
<path d="M435.156 618.144V720.24H325.21L380.183 669.199L435.156 618.144Z" stroke="#929292" stroke-opacity="0.1" stroke-width="2" stroke-miterlimit="10"/>
<path d="M324.443 0.704773V1.39663L269.457 52.4507L213.725 0.704773H324.443Z" stroke="#929292" stroke-opacity="0.1" stroke-width="2" stroke-miterlimit="10"/>
<path d="M324.447 1.39664V103.492H324.433L269.46 52.4507L324.447 1.39664Z" stroke="#929292" stroke-opacity="0.1" stroke-width="2" stroke-miterlimit="10"/>
<path d="M324.443 103.492H213.725V206.292H324.443V103.492Z" stroke="#929292" stroke-opacity="0.1" stroke-width="2" stroke-miterlimit="10"/>
<path d="M324.443 206.292H213.725V309.079H324.443V206.292Z" stroke="#929292" stroke-opacity="0.1" stroke-width="2" stroke-miterlimit="10"/>
<path d="M324.443 309.078V411.865H324.429L269.457 360.824L214.104 309.43L213.725 309.783V309.078H324.443Z" stroke="#929292" stroke-opacity="0.1" stroke-width="2" stroke-miterlimit="10"/>
<path d="M324.446 514.667H214.473L269.46 463.613L324.446 514.667Z" stroke="#929292" stroke-opacity="0.1" stroke-width="2" stroke-miterlimit="10"/>
<path d="M214.484 411.866L214.104 412.218L213.725 412.57V411.866H214.484Z" stroke="#929292" stroke-opacity="0.1" stroke-width="2" stroke-miterlimit="10"/>
<path d="M324.447 515.358V617.453L269.46 566.399L324.447 515.358Z" stroke="#929292" stroke-opacity="0.1" stroke-width="2" stroke-miterlimit="10"/>
<path d="M324.446 617.453H214.473L269.46 566.399L324.446 617.453Z" stroke="#929292" stroke-opacity="0.1" stroke-width="2" stroke-miterlimit="10"/>
<path d="M214.47 514.666L214.104 515.005L213.725 515.37V514.666H214.47Z" stroke="#929292" stroke-opacity="0.1" stroke-width="2" stroke-miterlimit="10"/>
<path d="M324.436 720.24H214.491L269.464 669.199L324.436 720.24Z" stroke="#929292" stroke-opacity="0.1" stroke-width="2" stroke-miterlimit="10"/>
<path d="M269.457 669.2L214.484 720.241H213.725V618.146L214.104 617.806L269.457 669.2Z" stroke="#929292" stroke-opacity="0.1" stroke-width="2" stroke-miterlimit="10"/>
<path d="M214.47 617.453L214.104 617.805L213.725 618.144V617.453H214.47Z" stroke="#929292" stroke-opacity="0.1" stroke-width="2" stroke-miterlimit="10"/>
<path d="M213.731 0.704773V103.492L157.999 51.7458L212.972 0.704773H213.731Z" stroke="#929292" stroke-opacity="0.1" stroke-width="2" stroke-miterlimit="10"/>
<path d="M213.726 103.492H103.021V0.704773L157.994 51.7458L213.726 103.492Z" stroke="#929292" stroke-opacity="0.1" stroke-width="2" stroke-miterlimit="10"/>
<path d="M103.034 103.51L103.034 206.297L213.739 206.297L213.739 103.51L103.034 103.51Z" stroke="#929292" stroke-opacity="0.1" stroke-width="2" stroke-miterlimit="10"/>
<path d="M213.726 206.292V309.066L158.754 258.038L103.401 206.631L103.021 206.984V206.292H213.726Z" stroke="#929292" stroke-opacity="0.1" stroke-width="2" stroke-miterlimit="10"/>
<path d="M103.781 309.078L103.401 309.43L103.021 309.782V309.078H103.781Z" stroke="#929292" stroke-opacity="0.1" stroke-width="2" stroke-miterlimit="10"/>
<path d="M103.781 411.866L103.021 412.57V411.866H103.781Z" stroke="#929292" stroke-opacity="0.1" stroke-width="2" stroke-miterlimit="10"/>
<path d="M103.767 514.666L103.021 515.357V514.666H103.767Z" stroke="#929292" stroke-opacity="0.1" stroke-width="2" stroke-miterlimit="10"/>
<path d="M103.781 617.453L103.021 618.157V617.453H103.781Z" stroke="#929292" stroke-opacity="0.1" stroke-width="2" stroke-miterlimit="10"/>
<path d="M213.731 618.144V720.24H212.227L157.999 669.89L213.731 618.144Z" stroke="#929292" stroke-opacity="0.1" stroke-width="2" stroke-miterlimit="10"/>
<path d="M212.227 720.24H103.771L157.999 669.891L212.227 720.24Z" stroke="#929292" stroke-opacity="0.1" stroke-width="2" stroke-miterlimit="10"/>
<path d="M-7.68311 0.715591L-7.68311 103.503L103.022 103.503L103.022 0.715591L-7.68311 0.715591Z" stroke="#929292" stroke-opacity="0.1" stroke-width="2" stroke-miterlimit="10"/>
<path d="M103.03 103.492H-7.67529V206.292H103.03V103.492Z" stroke="#929292" stroke-opacity="0.1" stroke-width="2" stroke-miterlimit="10"/>
<path d="M48.0567 258.038L-6.93014 309.079H-7.67529V206.292L48.0567 258.038Z" stroke="#929292" stroke-opacity="0.1" stroke-width="2" stroke-miterlimit="10"/>
<path d="M103.023 309.079H-6.93701L48.0499 258.038L103.023 309.079Z" stroke="#929292" stroke-opacity="0.1" stroke-width="2" stroke-miterlimit="10"/>
<path d="M103.021 206.984V309.079L48.0483 258.038L103.021 206.984Z" stroke="#929292" stroke-opacity="0.1" stroke-width="2" stroke-miterlimit="10"/>
<path d="M48.0567 360.825L-6.91608 411.866H-7.67529V309.771L-7.29569 309.431L48.0567 360.825Z" stroke="#929292" stroke-opacity="0.1" stroke-width="2" stroke-miterlimit="10"/>
<path d="M48.0567 463.612L-6.93014 514.666H-7.67529V412.571L-7.29569 412.218L48.0567 463.612Z" stroke="#929292" stroke-opacity="0.1" stroke-width="2" stroke-miterlimit="10"/>
<path d="M103.03 514.666V515.358L47.2975 567.104L-7.67529 516.076V515.358L-6.93014 514.666H103.03Z" stroke="#929292" stroke-opacity="0.1" stroke-width="2" stroke-miterlimit="10"/>
<path d="M47.2975 567.103L-6.93014 617.453H-7.67529V516.075L47.2975 567.103Z" stroke="#929292" stroke-opacity="0.1" stroke-width="2" stroke-miterlimit="10"/>
<path d="M47.2975 669.903L-6.91608 720.24H-7.67529V618.862L47.2975 669.903Z" stroke="#929292" stroke-opacity="0.1" stroke-width="2" stroke-miterlimit="10"/>
<path d="M102.65 618.51L47.2975 669.904L-7.67529 618.863V618.145L-6.93014 617.453H101.511L102.65 618.51Z" stroke="#929292" stroke-opacity="0.1" stroke-width="2" stroke-miterlimit="10"/>
<path d="M103.028 617.453V618.85L102.649 618.51L101.51 617.453H103.028Z" stroke="#929292" stroke-opacity="0.1" stroke-width="2" stroke-miterlimit="10"/>
<path d="M435.146 103.505L324.441 0.704773" stroke="#929292" stroke-opacity="0.1" stroke-width="2" stroke-miterlimit="10"/>
<path d="M324.436 103.492H214.491L269.464 52.4507L324.436 103.492Z" stroke="#929292" stroke-opacity="0.1" stroke-width="2" stroke-miterlimit="10"/>
<path d="M324.434 103.492L324.448 103.505L324.813 103.844" stroke="#929292" stroke-opacity="0.1" stroke-width="2" stroke-miterlimit="10"/>
<path d="M213.733 721.637L212.229 720.24" stroke="#929292" stroke-opacity="0.1" stroke-width="2" stroke-miterlimit="10"/>
<path d="M102.268 0L102.647 0.352039L103.027 0.704078" stroke="#929292" stroke-opacity="0.1" stroke-width="2" stroke-miterlimit="10"/>
<path d="M435.154 206.292V206.984L380.181 258.038L324.829 206.644L325.194 206.292H435.154Z" stroke="#929292" stroke-opacity="0.1" stroke-width="2" stroke-miterlimit="10"/>
<path d="M213.725 103.492L214.104 103.844L269.457 155.238L324.443 206.292L324.823 206.644" stroke="#929292" stroke-opacity="0.1" stroke-width="2" stroke-miterlimit="10"/>
<path d="M380.173 669.2L325.201 720.241H324.441V618.146L324.821 617.806L380.173 669.2Z" stroke="#929292" stroke-opacity="0.1" stroke-width="2" stroke-miterlimit="10"/>
<path d="M325.187 720.944L324.807 720.592L324.441 720.24" stroke="#929292" stroke-opacity="0.1" stroke-width="2" stroke-miterlimit="10"/>
<path d="M324.449 617.453V618.145L269.462 669.199L214.11 617.805L214.475 617.453H324.449Z" stroke="#929292" stroke-opacity="0.1" stroke-width="2" stroke-miterlimit="10"/>
<path d="M103.025 411.866V412.571L48.0521 463.612L-7.30029 412.218L-6.92069 411.866H103.025Z" stroke="#929292" stroke-opacity="0.1" stroke-width="2" stroke-miterlimit="10"/>
<path d="M214.104 617.805L213.725 617.453" stroke="#929292" stroke-opacity="0.1" stroke-width="2" stroke-miterlimit="10"/>
<path d="M103.408 515.005L103.042 514.666" stroke="#929292" stroke-opacity="0.1" stroke-width="2" stroke-miterlimit="10"/>
<path d="M435.158 411.866L380.185 360.825L324.833 309.431L324.453 309.079L269.48 258.038L214.114 206.631L213.748 206.292H213.734V206.279L158.762 155.238L103.03 103.492L102.65 103.139L47.2975 51.7458L-7.67529 0.704773" stroke="#929292" stroke-opacity="0.1" stroke-width="2" stroke-miterlimit="10"/>
<path d="M-7.67529 103.492L47.2975 154.533L103.03 206.279V206.292H103.044L103.409 206.631" stroke="#929292" stroke-opacity="0.1" stroke-width="2" stroke-miterlimit="10"/>
<path d="M213.725 309.078H213.739L214.104 309.43" stroke="#929292" stroke-opacity="0.1" stroke-width="2" stroke-miterlimit="10"/>
<path d="M324.436 411.866H214.491L269.464 360.825L324.436 411.866Z" stroke="#929292" stroke-opacity="0.1" stroke-width="2" stroke-miterlimit="10"/>
<path d="M324.807 412.219L324.441 411.88" stroke="#929292" stroke-opacity="0.1" stroke-width="2" stroke-miterlimit="10"/>
<path d="M435.151 514.667H325.191L380.164 463.613L435.151 514.667Z" stroke="#929292" stroke-opacity="0.1" stroke-width="2" stroke-miterlimit="10"/>
<path d="M435.154 514.666V515.358L380.181 566.412L324.814 515.005L325.194 514.666H435.154Z" stroke="#929292" stroke-opacity="0.1" stroke-width="2" stroke-miterlimit="10"/>
<path d="M214.104 412.218L213.725 411.866" stroke="#929292" stroke-opacity="0.1" stroke-width="2" stroke-miterlimit="10"/>
<path d="M324.807 515.005L324.441 514.666" stroke="#929292" stroke-opacity="0.1" stroke-width="2" stroke-miterlimit="10"/>
<path d="M103.401 309.43L103.021 309.078" stroke="#929292" stroke-opacity="0.1" stroke-width="2" stroke-miterlimit="10"/>
<path d="M435.154 617.453V618.145L380.181 669.199L324.829 617.805L325.194 617.453H435.154Z" stroke="#929292" stroke-opacity="0.1" stroke-width="2" stroke-miterlimit="10"/>
<path d="M435.15 720.24L380.177 669.199" stroke="#929292" stroke-opacity="0.1" stroke-width="2" stroke-miterlimit="10"/>
<path d="M324.821 617.805L324.441 617.453" stroke="#929292" stroke-opacity="0.1" stroke-width="2" stroke-miterlimit="10"/>
<path d="M103.401 412.218L103.021 411.866" stroke="#929292" stroke-opacity="0.1" stroke-width="2" stroke-miterlimit="10"/>
<path d="M214.108 515.005L213.743 514.666" stroke="#929292" stroke-opacity="0.1" stroke-width="2" stroke-miterlimit="10"/>
<path d="M157.994 669.89L103.767 720.24H103.021V618.849L157.994 669.89Z" stroke="#929292" stroke-opacity="0.1" stroke-width="2" stroke-miterlimit="10"/>
<path d="M103.026 721.637L102.646 721.284L101.521 720.24" stroke="#929292" stroke-opacity="0.1" stroke-width="2" stroke-miterlimit="10"/>
<path d="M325.201 720.24L324.807 720.592L324.441 720.944" stroke="#929292" stroke-opacity="0.1" stroke-width="2" stroke-miterlimit="10"/>
<path d="M324.447 618.144V720.24H324.433L269.46 669.199L324.447 618.144Z" stroke="#929292" stroke-opacity="0.1" stroke-width="2" stroke-miterlimit="10"/>
<path d="M214.484 720.24L213.725 720.944" stroke="#929292" stroke-opacity="0.1" stroke-width="2" stroke-miterlimit="10"/>
<path d="M212.967 0.704773L157.994 51.7458L103.021 0.704773H212.967Z" stroke="#929292" stroke-opacity="0.1" stroke-width="2" stroke-miterlimit="10"/>
<path d="M-7.69531 205.587L-7.68125 205.574L47.2916 154.533L102.264 103.492L102.644 103.139L103.024 102.787L157.996 51.7458" stroke="#929292" stroke-opacity="0.1" stroke-width="2" stroke-miterlimit="10"/>
<path d="M213.726 0L212.966 0.704078" stroke="#929292" stroke-opacity="0.1" stroke-width="2" stroke-miterlimit="10"/>
<path d="M324.449 514.666V515.358L269.462 566.399L214.11 515.005L214.475 514.666H324.449Z" stroke="#929292" stroke-opacity="0.1" stroke-width="2" stroke-miterlimit="10"/>
<path d="M269.457 566.4L214.47 617.454H213.725V515.372L214.104 515.006L269.457 566.4Z" stroke="#929292" stroke-opacity="0.1" stroke-width="2" stroke-miterlimit="10"/>
<path d="M213.726 515.371V617.453L158.753 566.412L213.726 515.371Z" stroke="#929292" stroke-opacity="0.1" stroke-width="2" stroke-miterlimit="10"/>
<path d="M213.726 617.453V618.145L157.994 669.891L103.021 618.849V618.158L103.781 617.453H213.726Z" stroke="#929292" stroke-opacity="0.1" stroke-width="2" stroke-miterlimit="10"/>
<path d="M102.268 721.637L102.647 721.284L103.772 720.24" stroke="#929292" stroke-opacity="0.1" stroke-width="2" stroke-miterlimit="10"/>
<path d="M435.156 412.571L380.169 463.612" stroke="#929292" stroke-opacity="0.1" stroke-width="2" stroke-miterlimit="10"/>
<path d="M269.457 52.4507L214.484 103.492H213.725V0.704773L269.457 52.4507Z" stroke="#929292" stroke-opacity="0.1" stroke-width="2" stroke-miterlimit="10"/>
<path d="M103.03 206.292V206.984L48.0567 258.038L-7.67529 206.292H103.03Z" stroke="#929292" stroke-opacity="0.1" stroke-width="2" stroke-miterlimit="10"/>
<path d="M103.405 206.631L103.77 206.292L158.757 155.238L213.73 104.197L214.11 103.844L214.489 103.492" stroke="#929292" stroke-opacity="0.1" stroke-width="2" stroke-miterlimit="10"/>
<path d="M103.025 309.078V309.783L48.0521 360.824L-7.30029 309.43L-6.93474 309.078H103.025Z" stroke="#929292" stroke-opacity="0.1" stroke-width="2" stroke-miterlimit="10"/>
<path d="M325.187 0.704773L324.821 1.05681L324.441 1.39582" stroke="#929292" stroke-opacity="0.1" stroke-width="2" stroke-miterlimit="10"/>
<path d="M380.159 463.612L325.187 514.666H324.441V412.558L324.807 412.218L380.159 463.612Z" stroke="#929292" stroke-opacity="0.1" stroke-width="2" stroke-miterlimit="10"/>
<path d="M324.447 412.558V514.666L269.46 463.612L324.447 412.558Z" stroke="#929292" stroke-opacity="0.1" stroke-width="2" stroke-miterlimit="10"/>
<path d="M101.52 720.24H-6.9209L47.2927 669.903L101.52 720.24Z" stroke="#929292" stroke-opacity="0.1" stroke-width="2" stroke-miterlimit="10"/>
<path d="M103.022 618.849V720.24H101.518L47.29 669.903L102.642 618.51L103.022 618.849Z" stroke="#929292" stroke-opacity="0.1" stroke-width="2" stroke-miterlimit="10"/>
<path d="M103.022 618.158L102.643 618.51" stroke="#929292" stroke-opacity="0.1" stroke-width="2" stroke-miterlimit="10"/>
<path d="M324.449 411.866V412.558L269.462 463.612L214.11 412.218L214.489 411.866H324.449Z" stroke="#929292" stroke-opacity="0.1" stroke-width="2" stroke-miterlimit="10"/>
<path d="M269.457 463.612L214.47 514.666H213.725V412.571L214.104 412.218L269.457 463.612Z" stroke="#929292" stroke-opacity="0.1" stroke-width="2" stroke-miterlimit="10"/>
<path d="M324.814 412.218L325.194 411.866L380.181 360.825L435.154 309.771" stroke="#929292" stroke-opacity="0.1" stroke-width="2" stroke-miterlimit="10"/>
<path d="M269.457 360.825L214.484 411.866H213.725V309.784L214.104 309.431L269.457 360.825Z" stroke="#929292" stroke-opacity="0.1" stroke-width="2" stroke-miterlimit="10"/>
<path d="M380.179 258.038L325.192 309.079L324.826 309.431L324.447 309.771L269.46 360.825" stroke="#929292" stroke-opacity="0.1" stroke-width="2" stroke-miterlimit="10"/>
<path d="M213.73 514.666V515.371L158.757 566.412L103.405 515.005L103.77 514.666H213.73Z" stroke="#929292" stroke-opacity="0.1" stroke-width="2" stroke-miterlimit="10"/>
<path d="M213.725 617.454H103.78L158.753 566.413L213.725 617.454Z" stroke="#929292" stroke-opacity="0.1" stroke-width="2" stroke-miterlimit="10"/>
<path d="M158.754 566.413L103.781 617.454H103.021V515.359L103.401 515.006L158.754 566.413Z" stroke="#929292" stroke-opacity="0.1" stroke-width="2" stroke-miterlimit="10"/>
<path d="M103.022 515.358V617.453H101.504L47.29 567.103L103.022 515.358Z" stroke="#929292" stroke-opacity="0.1" stroke-width="2" stroke-miterlimit="10"/>
<path d="M101.504 617.453H-6.93701L47.2907 567.103L101.504 617.453Z" stroke="#929292" stroke-opacity="0.1" stroke-width="2" stroke-miterlimit="10"/>
<path d="M213.726 412.571V514.653L158.753 463.612L213.726 412.571Z" stroke="#929292" stroke-opacity="0.1" stroke-width="2" stroke-miterlimit="10"/>
<path d="M213.73 411.866V412.571L158.757 463.612L103.405 412.218L103.784 411.866H213.73Z" stroke="#929292" stroke-opacity="0.1" stroke-width="2" stroke-miterlimit="10"/>
<path d="M158.754 463.612L103.767 514.666H103.021V412.571L103.401 412.218L158.754 463.612Z" stroke="#929292" stroke-opacity="0.1" stroke-width="2" stroke-miterlimit="10"/>
<path d="M213.731 514.654V514.667H103.771L158.758 463.613L213.731 514.654Z" stroke="#929292" stroke-opacity="0.1" stroke-width="2" stroke-miterlimit="10"/>
<path d="M103.023 514.654V514.667H-6.93701L48.0499 463.613L103.023 514.654Z" stroke="#929292" stroke-opacity="0.1" stroke-width="2" stroke-miterlimit="10"/>
<path d="M103.021 412.571V514.653L48.0483 463.612L103.021 412.571Z" stroke="#929292" stroke-opacity="0.1" stroke-width="2" stroke-miterlimit="10"/>
<path d="M324.829 206.644L324.449 206.984L269.476 258.038L214.489 309.079L214.11 309.431" stroke="#929292" stroke-opacity="0.1" stroke-width="2" stroke-miterlimit="10"/>
<path d="M380.173 155.251L325.187 206.292H324.441V104.184L324.807 103.844L380.173 155.251Z" stroke="#929292" stroke-opacity="0.1" stroke-width="2" stroke-miterlimit="10"/>
<path d="M158.754 258.038L103.781 309.079H103.021V206.984L103.401 206.631L158.754 258.038Z" stroke="#929292" stroke-opacity="0.1" stroke-width="2" stroke-miterlimit="10"/>
<path d="M324.445 104.184L269.458 155.238L214.471 206.292L214.106 206.631L213.726 206.997L158.753 258.038" stroke="#929292" stroke-opacity="0.1" stroke-width="2" stroke-miterlimit="10"/>
<path d="M213.725 309.066V309.079H103.78L158.753 258.038L213.725 309.066Z" stroke="#929292" stroke-opacity="0.1" stroke-width="2" stroke-miterlimit="10"/>
<path d="M213.73 309.078V309.783L158.757 360.824L103.405 309.43L103.784 309.078H213.73Z" stroke="#929292" stroke-opacity="0.1" stroke-width="2" stroke-miterlimit="10"/>
<path d="M213.726 309.784V411.866L158.753 360.825L213.726 309.784Z" stroke="#929292" stroke-opacity="0.1" stroke-width="2" stroke-miterlimit="10"/>
<path d="M158.754 360.825L103.781 411.866H103.021V309.784L103.401 309.431L158.754 360.825Z" stroke="#929292" stroke-opacity="0.1" stroke-width="2" stroke-miterlimit="10"/>
<path d="M213.725 411.866H103.78L158.753 360.825L213.725 411.866Z" stroke="#929292" stroke-opacity="0.1" stroke-width="2" stroke-miterlimit="10"/>
<path d="M103.025 411.866H-6.9209L48.0519 360.825L103.025 411.866Z" stroke="#929292" stroke-opacity="0.1" stroke-width="2" stroke-miterlimit="10"/>
<path d="M103.021 309.784V411.866L48.0483 360.825L103.021 309.784Z" stroke="#929292" stroke-opacity="0.1" stroke-width="2" stroke-miterlimit="10"/>
<path d="M435.151 1.39664L380.178 52.4507L325.191 103.492" stroke="#929292" stroke-opacity="0.1" stroke-width="2" stroke-miterlimit="10"/>
<path d="M103.03 0.0129395L-7.67529 102.8" stroke="#929292" stroke-opacity="0.1" stroke-width="2" stroke-miterlimit="10"/>
<path d="M102.269 766.15L102.649 766.502L103.028 766.854" stroke="#929292" stroke-opacity="0.1" stroke-width="2" stroke-miterlimit="10"/>
<path d="M213.727 766.15L212.968 766.854" stroke="#929292" stroke-opacity="0.1" stroke-width="2" stroke-miterlimit="10"/>
<path d="M325.188 766.856L324.822 767.208L324.443 767.547" stroke="#929292" stroke-opacity="0.1" stroke-width="2" stroke-miterlimit="10"/>
<path d="M435.152 720.866V822.961L380.179 771.92L435.152 720.866Z" stroke="#929292" stroke-opacity="0.1" stroke-width="2" stroke-miterlimit="10"/>
<path d="M435.153 822.961H325.193L380.18 771.92L435.153 822.961Z" stroke="#929292" stroke-opacity="0.1" stroke-width="2" stroke-miterlimit="10"/>
<path d="M380.175 771.921L325.188 822.962H324.443V720.867L324.808 720.515L380.175 771.921Z" stroke="#929292" stroke-opacity="0.1" stroke-width="2" stroke-miterlimit="10"/>
<path d="M325.188 822.961L324.822 823.313L324.443 823.652V822.961H325.188Z" stroke="#929292" stroke-opacity="0.1" stroke-width="2" stroke-miterlimit="10"/>
<path d="M435.157 823.653V925.748H325.211L380.184 874.707L435.157 823.653Z" stroke="#929292" stroke-opacity="0.1" stroke-width="2" stroke-miterlimit="10"/>
<path d="M324.448 720.866V822.961L269.461 771.907L324.448 720.866Z" stroke="#929292" stroke-opacity="0.1" stroke-width="2" stroke-miterlimit="10"/>
<path d="M324.448 822.962H214.474L269.461 771.908L324.448 822.962Z" stroke="#929292" stroke-opacity="0.1" stroke-width="2" stroke-miterlimit="10"/>
<path d="M324.438 925.749H214.492L269.465 874.708L324.438 925.749Z" stroke="#929292" stroke-opacity="0.1" stroke-width="2" stroke-miterlimit="10"/>
<path d="M269.458 874.708L214.485 925.749H213.726V823.654L214.106 823.314L269.458 874.708Z" stroke="#929292" stroke-opacity="0.1" stroke-width="2" stroke-miterlimit="10"/>
<path d="M214.471 822.961L214.106 823.313L213.726 823.652V822.961H214.471Z" stroke="#929292" stroke-opacity="0.1" stroke-width="2" stroke-miterlimit="10"/>
<path d="M103.782 822.961L103.023 823.665V822.961H103.782Z" stroke="#929292" stroke-opacity="0.1" stroke-width="2" stroke-miterlimit="10"/>
<path d="M213.733 823.653V925.748H212.228L158 875.399L213.733 823.653Z" stroke="#929292" stroke-opacity="0.1" stroke-width="2" stroke-miterlimit="10"/>
<path d="M212.228 925.748H103.773L158.001 875.399L212.228 925.748Z" stroke="#929292" stroke-opacity="0.1" stroke-width="2" stroke-miterlimit="10"/>
<path d="M103.031 720.175V720.867L47.299 772.613L-7.67383 721.585V720.867L-6.92867 720.175H103.031Z" stroke="#929292" stroke-opacity="0.1" stroke-width="2" stroke-miterlimit="10"/>
<path d="M47.299 772.613L-6.92867 822.962H-7.67383V721.585L47.299 772.613Z" stroke="#929292" stroke-opacity="0.1" stroke-width="2" stroke-miterlimit="10"/>
<path d="M47.299 875.412L-6.91461 925.748H-7.67383V824.371L47.299 875.412Z" stroke="#929292" stroke-opacity="0.1" stroke-width="2" stroke-miterlimit="10"/>
<path d="M102.651 824.018L47.299 875.412L-7.67383 824.371V823.653L-6.92867 822.961H101.513L102.651 824.018Z" stroke="#929292" stroke-opacity="0.1" stroke-width="2" stroke-miterlimit="10"/>
<path d="M103.029 822.961V824.358L102.65 824.018L101.511 822.961H103.029Z" stroke="#929292" stroke-opacity="0.1" stroke-width="2" stroke-miterlimit="10"/>
<path d="M213.734 927.145L212.23 925.748" stroke="#929292" stroke-opacity="0.1" stroke-width="2" stroke-miterlimit="10"/>
<path d="M380.175 874.708L325.202 925.749H324.443V823.654L324.822 823.314L380.175 874.708Z" stroke="#929292" stroke-opacity="0.1" stroke-width="2" stroke-miterlimit="10"/>
<path d="M325.188 926.452L324.808 926.1L324.443 925.748" stroke="#929292" stroke-opacity="0.1" stroke-width="2" stroke-miterlimit="10"/>
<path d="M324.45 822.961V823.653L269.463 874.707L214.111 823.314L214.476 822.961H324.45Z" stroke="#929292" stroke-opacity="0.1" stroke-width="2" stroke-miterlimit="10"/>
<path d="M214.106 823.313L213.726 822.961" stroke="#929292" stroke-opacity="0.1" stroke-width="2" stroke-miterlimit="10"/>
<path d="M435.155 720.175V720.867L380.182 771.921L324.816 720.515L325.196 720.175H435.155Z" stroke="#929292" stroke-opacity="0.1" stroke-width="2" stroke-miterlimit="10"/>
<path d="M435.155 822.961V823.653L380.182 874.707L324.83 823.314L325.196 822.961H435.155Z" stroke="#929292" stroke-opacity="0.1" stroke-width="2" stroke-miterlimit="10"/>
<path d="M435.152 925.749L380.179 874.708" stroke="#929292" stroke-opacity="0.1" stroke-width="2" stroke-miterlimit="10"/>
<path d="M324.822 823.313L324.443 822.961" stroke="#929292" stroke-opacity="0.1" stroke-width="2" stroke-miterlimit="10"/>
<path d="M157.996 875.399L103.768 925.748H103.023V824.358L157.996 875.399Z" stroke="#929292" stroke-opacity="0.1" stroke-width="2" stroke-miterlimit="10"/>
<path d="M103.027 927.145L102.648 926.792L101.523 925.748" stroke="#929292" stroke-opacity="0.1" stroke-width="2" stroke-miterlimit="10"/>
<path d="M325.202 925.748L324.808 926.1L324.443 926.452" stroke="#929292" stroke-opacity="0.1" stroke-width="2" stroke-miterlimit="10"/>
<path d="M324.448 823.653V925.748H324.434L269.461 874.707L324.448 823.653Z" stroke="#929292" stroke-opacity="0.1" stroke-width="2" stroke-miterlimit="10"/>
<path d="M214.485 925.748L213.726 926.452" stroke="#929292" stroke-opacity="0.1" stroke-width="2" stroke-miterlimit="10"/>
<path d="M324.45 720.175V720.867L269.463 771.908L214.111 720.515L214.476 720.175H324.45Z" stroke="#929292" stroke-opacity="0.1" stroke-width="2" stroke-miterlimit="10"/>
<path d="M269.458 771.908L214.471 822.962H213.726V720.88L214.106 720.515L269.458 771.908Z" stroke="#929292" stroke-opacity="0.1" stroke-width="2" stroke-miterlimit="10"/>
<path d="M213.727 720.879V822.961L158.754 771.92L213.727 720.879Z" stroke="#929292" stroke-opacity="0.1" stroke-width="2" stroke-miterlimit="10"/>
<path d="M213.728 822.961V823.653L157.996 875.399L103.023 824.358V823.666L103.782 822.961H213.728Z" stroke="#929292" stroke-opacity="0.1" stroke-width="2" stroke-miterlimit="10"/>
<path d="M102.269 927.145L102.649 926.792L103.773 925.748" stroke="#929292" stroke-opacity="0.1" stroke-width="2" stroke-miterlimit="10"/>
<path d="M101.521 925.749H-6.91992L47.2937 875.413L101.521 925.749Z" stroke="#929292" stroke-opacity="0.1" stroke-width="2" stroke-miterlimit="10"/>
<path d="M103.024 824.359V925.749H101.519L47.2915 875.413L102.644 824.019L103.024 824.359Z" stroke="#929292" stroke-opacity="0.1" stroke-width="2" stroke-miterlimit="10"/>
<path d="M103.024 823.666L102.644 824.018" stroke="#929292" stroke-opacity="0.1" stroke-width="2" stroke-miterlimit="10"/>
<path d="M213.732 720.175V720.88L158.759 771.921L103.406 720.515L103.772 720.175H213.732Z" stroke="#929292" stroke-opacity="0.1" stroke-width="2" stroke-miterlimit="10"/>
<path d="M213.727 822.961H103.781L158.754 771.92L213.727 822.961Z" stroke="#929292" stroke-opacity="0.1" stroke-width="2" stroke-miterlimit="10"/>
<path d="M158.755 771.921L103.782 822.962H103.023V720.867L103.403 720.515L158.755 771.921Z" stroke="#929292" stroke-opacity="0.1" stroke-width="2" stroke-miterlimit="10"/>
<path d="M103.024 720.866V822.961H101.505L47.2915 772.612L103.024 720.866Z" stroke="#929292" stroke-opacity="0.1" stroke-width="2" stroke-miterlimit="10"/>
<path d="M101.505 822.962H-6.93604L47.2916 772.613L101.505 822.962Z" stroke="#929292" stroke-opacity="0.1" stroke-width="2" stroke-miterlimit="10"/>
<path d="M380.448 206.458V155.414L437.74 103.229H494.516V206.458H380.448Z" fill="#3A8977"/>
<rect x="-7.69287" y="3.05176e-05" width="55.7436" height="52.6467" fill="#FED564"/>
<rect x="-8.7251" y="812.411" width="55.7436" height="52.6467" fill="#2F1BC8"/>
<rect x="48.0508" y="52.6467" width="96.0029" height="12.3875" fill="#2F1BC8"/>
<rect x="48.0508" y="78.4539" width="96.0029" height="12.3875" fill="#2F1BC8"/>
<rect x="48.0508" y="104.261" width="96.0029" height="12.3875" fill="#2F1BC8"/>
<rect x="48.0508" y="130.068" width="96.0029" height="12.3875" fill="#2F1BC8"/>
<rect x="336.061" y="205.425" width="14.4519" height="14.4519" fill="#FED564"/>
<rect x="336.061" y="235.534" width="14.4519" height="14.4519" fill="#FED564"/>
<rect x="336.061" y="265.642" width="14.4519" height="14.4519" fill="#FED564"/>
<rect x="336.061" y="295.75" width="14.4519" height="14.4519" fill="#FED564"/>
<rect x="364.963" y="205.425" width="14.4519" height="14.4519" fill="#FED564"/>
<rect x="364.963" y="235.534" width="14.4519" height="14.4519" fill="#FED564"/>
<rect x="364.963" y="265.642" width="14.4519" height="14.4519" fill="#FED564"/>
<rect x="364.963" y="295.75" width="14.4519" height="14.4519" fill="#FED564"/>
<rect x="359.801" y="916.671" width="14.4519" height="14.4519" transform="rotate(-90 359.801 916.671)" fill="#2F1BC8"/>
<rect x="389.909" y="916.671" width="14.4519" height="14.4519" transform="rotate(-90 389.909 916.671)" fill="#2F1BC8"/>
<rect x="420.016" y="916.671" width="14.4519" height="14.4519" transform="rotate(-90 420.016 916.671)" fill="#2F1BC8"/>
<rect x="359.801" y="887.768" width="14.4519" height="14.4519" transform="rotate(-90 359.801 887.768)" fill="#2F1BC8"/>
<rect x="389.909" y="887.768" width="14.4519" height="14.4519" transform="rotate(-90 389.909 887.768)" fill="#2F1BC8"/>
<rect x="420.016" y="887.768" width="14.4519" height="14.4519" transform="rotate(-90 420.016 887.768)" fill="#2F1BC8"/>
<path d="M65.5996 409.819L65.5996 448.102L22.0579 487.24L-18.0158 487.24L-18.0158 409.819L65.5996 409.819Z" fill="#EF4421"/>
<rect x="390.965" y="713.312" width="86.7123" height="12.3875" transform="rotate(-90 390.965 713.312)" fill="#FED564"/>
<rect x="416.772" y="713.312" width="86.7123" height="12.3875" transform="rotate(-90 416.772 713.312)" fill="#FED564"/>
<path d="M40.152 339.182H44.9886L51.4659 354.991H51.7216L58.1989 339.182H63.0355V361H59.2429V346.011H59.0405L53.0107 360.936H50.1768L44.147 345.979H43.9446V361H40.152V339.182ZM74.3068 361.32C72.7088 361.32 71.3239 360.968 70.152 360.265C68.9801 359.562 68.071 358.578 67.4247 357.314C66.7855 356.05 66.4659 354.572 66.4659 352.882C66.4659 351.192 66.7855 349.711 67.4247 348.44C68.071 347.168 68.9801 346.181 70.152 345.478C71.3239 344.775 72.7088 344.423 74.3068 344.423C75.9048 344.423 77.2898 344.775 78.4616 345.478C79.6335 346.181 80.5391 347.168 81.1783 348.44C81.8246 349.711 82.1477 351.192 82.1477 352.882C82.1477 354.572 81.8246 356.05 81.1783 357.314C80.5391 358.578 79.6335 359.562 78.4616 360.265C77.2898 360.968 75.9048 361.32 74.3068 361.32ZM74.3281 358.23C75.1946 358.23 75.919 357.992 76.5014 357.516C77.0838 357.033 77.517 356.387 77.8011 355.577C78.0923 354.768 78.2379 353.866 78.2379 352.871C78.2379 351.87 78.0923 350.964 77.8011 350.155C77.517 349.338 77.0838 348.688 76.5014 348.205C75.919 347.722 75.1946 347.481 74.3281 347.481C73.4403 347.481 72.7017 347.722 72.1122 348.205C71.5298 348.688 71.093 349.338 70.8018 350.155C70.5178 350.964 70.3757 351.87 70.3757 352.871C70.3757 353.866 70.5178 354.768 70.8018 355.577C71.093 356.387 71.5298 357.033 72.1122 357.516C72.7017 357.992 73.4403 358.23 74.3281 358.23ZM85.5914 361V339.182H89.448V347.342H89.6078C89.8066 346.945 90.0872 346.522 90.4494 346.075C90.8116 345.62 91.3017 345.233 91.9196 344.913C92.5375 344.587 93.3258 344.423 94.2846 344.423C95.5488 344.423 96.6887 344.746 97.7044 345.393C98.7271 346.032 99.5368 346.98 100.133 348.237C100.737 349.487 101.039 351.021 101.039 352.839C101.039 354.636 100.744 356.163 100.155 357.42C99.5652 358.678 98.7626 359.636 97.747 360.297C96.7314 360.957 95.5808 361.288 94.2953 361.288C93.3578 361.288 92.5801 361.131 91.9622 360.819C91.3443 360.506 90.8471 360.13 90.4707 359.69C90.1014 359.242 89.8137 358.82 89.6078 358.422H89.3841V361H85.5914ZM89.3734 352.818C89.3734 353.876 89.5225 354.803 89.8208 355.599C90.1262 356.394 90.563 357.016 91.1312 357.463C91.7065 357.903 92.4025 358.124 93.2193 358.124C94.0716 358.124 94.7853 357.896 95.3606 357.442C95.9359 356.98 96.3691 356.352 96.6603 355.556C96.9586 354.754 97.1078 353.841 97.1078 352.818C97.1078 351.803 96.9622 350.901 96.671 350.112C96.3798 349.324 95.9466 348.706 95.3713 348.259C94.796 347.811 94.0787 347.587 93.2193 347.587C92.3954 347.587 91.6958 347.804 91.1206 348.237C90.5453 348.67 90.1085 349.278 89.8102 350.059C89.519 350.84 89.3734 351.76 89.3734 352.818ZM104.317 361V344.636H108.174V361H104.317ZM106.256 342.314C105.646 342.314 105.12 342.112 104.68 341.707C104.239 341.295 104.019 340.801 104.019 340.226C104.019 339.643 104.239 339.15 104.68 338.745C105.12 338.333 105.646 338.127 106.256 338.127C106.874 338.127 107.4 338.333 107.833 338.745C108.273 339.15 108.494 339.643 108.494 340.226C108.494 340.801 108.273 341.295 107.833 341.707C107.4 342.112 106.874 342.314 106.256 342.314ZM115.996 339.182V361H112.14V339.182H115.996ZM127.206 361.32C125.566 361.32 124.149 360.979 122.956 360.297C121.77 359.608 120.857 358.635 120.218 357.378C119.578 356.114 119.259 354.626 119.259 352.914C119.259 351.231 119.578 349.754 120.218 348.482C120.864 347.204 121.766 346.21 122.924 345.499C124.081 344.782 125.441 344.423 127.004 344.423C128.012 344.423 128.964 344.587 129.859 344.913C130.761 345.233 131.556 345.73 132.245 346.405C132.941 347.08 133.488 347.939 133.886 348.983C134.284 350.02 134.483 351.256 134.483 352.69V353.873H121.07V351.273H130.786C130.779 350.535 130.619 349.878 130.306 349.303C129.994 348.72 129.557 348.262 128.996 347.928C128.442 347.594 127.796 347.428 127.057 347.428C126.269 347.428 125.576 347.619 124.98 348.003C124.383 348.379 123.918 348.876 123.584 349.494C123.257 350.105 123.091 350.776 123.083 351.508V353.777C123.083 354.729 123.257 355.545 123.605 356.227C123.953 356.902 124.44 357.42 125.065 357.783C125.69 358.138 126.422 358.315 127.26 358.315C127.821 358.315 128.328 358.237 128.783 358.081C129.238 357.918 129.632 357.68 129.966 357.367C130.299 357.055 130.551 356.668 130.722 356.206L134.323 356.611C134.096 357.562 133.662 358.393 133.023 359.104C132.391 359.807 131.581 360.354 130.594 360.744C129.607 361.128 128.478 361.32 127.206 361.32ZM163.287 339.182V361H159.771L149.491 346.138H149.309V361H145.357V339.182H148.894L159.164 354.054H159.356V339.182H163.287ZM167.593 361V339.182H181.571V342.495H171.546V348.418H180.612V351.732H171.546V361H167.593ZM184.213 342.495V339.182H201.62V342.495H194.877V361H190.956V342.495H184.213ZM231.093 346.543H227.109C226.995 345.89 226.786 345.311 226.48 344.807C226.175 344.295 225.795 343.862 225.34 343.507C224.886 343.152 224.367 342.886 223.785 342.708C223.21 342.523 222.588 342.431 221.92 342.431C220.734 342.431 219.683 342.729 218.767 343.326C217.851 343.915 217.134 344.782 216.615 345.925C216.097 347.062 215.837 348.45 215.837 350.091C215.837 351.76 216.097 353.166 216.615 354.31C217.141 355.446 217.858 356.305 218.767 356.888C219.683 357.463 220.731 357.751 221.91 357.751C222.563 357.751 223.174 357.665 223.742 357.495C224.317 357.317 224.832 357.058 225.287 356.717C225.749 356.376 226.136 355.957 226.448 355.46C226.768 354.963 226.988 354.395 227.109 353.756L231.093 353.777C230.944 354.814 230.621 355.787 230.124 356.696C229.634 357.605 228.991 358.408 228.195 359.104C227.4 359.793 226.469 360.332 225.404 360.723C224.339 361.107 223.156 361.298 221.857 361.298C219.939 361.298 218.227 360.854 216.722 359.967C215.216 359.079 214.03 357.797 213.163 356.121C212.297 354.445 211.864 352.435 211.864 350.091C211.864 347.74 212.3 345.73 213.174 344.061C214.048 342.385 215.237 341.103 216.743 340.215C218.249 339.327 219.953 338.884 221.857 338.884C223.071 338.884 224.2 339.054 225.244 339.395C226.288 339.736 227.219 340.237 228.036 340.897C228.852 341.55 229.523 342.353 230.049 343.305C230.582 344.249 230.93 345.329 231.093 346.543ZM234.542 361V344.636H238.281V347.364H238.452C238.75 346.419 239.262 345.691 239.986 345.18C240.718 344.661 241.552 344.402 242.49 344.402C242.703 344.402 242.941 344.413 243.203 344.434C243.473 344.448 243.697 344.473 243.874 344.509V348.056C243.711 347.999 243.452 347.95 243.097 347.907C242.749 347.857 242.411 347.832 242.085 347.832C241.382 347.832 240.749 347.985 240.188 348.29C239.634 348.589 239.198 349.004 238.878 349.537C238.558 350.07 238.399 350.684 238.399 351.38V361H234.542ZM253.007 361.32C251.366 361.32 249.95 360.979 248.756 360.297C247.57 359.608 246.658 358.635 246.018 357.378C245.379 356.114 245.06 354.626 245.06 352.914C245.06 351.231 245.379 349.754 246.018 348.482C246.665 347.204 247.567 346.21 248.724 345.499C249.882 344.782 251.242 344.423 252.805 344.423C253.813 344.423 254.765 344.587 255.66 344.913C256.562 345.233 257.357 345.73 258.046 346.405C258.742 347.08 259.289 347.939 259.687 348.983C260.085 350.02 260.283 351.256 260.283 352.69V353.873H246.871V351.273H256.587C256.58 350.535 256.42 349.878 256.107 349.303C255.795 348.72 255.358 348.262 254.797 347.928C254.243 347.594 253.597 347.428 252.858 347.428C252.07 347.428 251.377 347.619 250.781 348.003C250.184 348.379 249.719 348.876 249.385 349.494C249.058 350.105 248.891 350.776 248.884 351.508V353.777C248.884 354.729 249.058 355.545 249.406 356.227C249.754 356.902 250.241 357.42 250.866 357.783C251.491 358.138 252.222 358.315 253.06 358.315C253.621 358.315 254.129 358.237 254.584 358.081C255.038 357.918 255.433 357.68 255.766 357.367C256.1 357.055 256.352 356.668 256.523 356.206L260.124 356.611C259.896 357.562 259.463 358.393 258.824 359.104C258.192 359.807 257.382 360.354 256.395 360.744C255.408 361.128 254.278 361.32 253.007 361.32ZM268.255 361.33C267.218 361.33 266.284 361.146 265.453 360.776C264.629 360.4 263.976 359.846 263.493 359.114C263.017 358.383 262.779 357.481 262.779 356.408C262.779 355.485 262.949 354.722 263.29 354.118C263.631 353.514 264.096 353.031 264.686 352.669C265.275 352.307 265.939 352.033 266.678 351.849C267.424 351.657 268.194 351.518 268.99 351.433C269.949 351.334 270.726 351.245 271.323 351.167C271.92 351.082 272.353 350.954 272.623 350.783C272.9 350.606 273.038 350.332 273.038 349.963V349.899C273.038 349.097 272.8 348.475 272.324 348.035C271.849 347.594 271.163 347.374 270.268 347.374C269.324 347.374 268.574 347.58 268.02 347.992C267.474 348.404 267.104 348.891 266.912 349.452L263.312 348.94C263.596 347.946 264.064 347.115 264.718 346.447C265.371 345.773 266.17 345.268 267.115 344.935C268.059 344.594 269.104 344.423 270.247 344.423C271.035 344.423 271.82 344.516 272.601 344.7C273.383 344.885 274.096 345.19 274.743 345.616C275.389 346.036 275.907 346.607 276.298 347.332C276.696 348.056 276.895 348.962 276.895 350.048V361H273.187V358.752H273.059C272.825 359.207 272.495 359.633 272.069 360.031C271.65 360.421 271.121 360.737 270.481 360.979C269.849 361.213 269.107 361.33 268.255 361.33ZM269.256 358.496C270.03 358.496 270.702 358.344 271.27 358.038C271.838 357.726 272.275 357.314 272.58 356.803C272.893 356.291 273.049 355.734 273.049 355.13V353.202C272.928 353.301 272.722 353.393 272.431 353.479C272.147 353.564 271.827 353.638 271.472 353.702C271.117 353.766 270.765 353.823 270.417 353.873C270.069 353.923 269.768 353.965 269.512 354.001C268.937 354.079 268.422 354.207 267.967 354.384C267.513 354.562 267.154 354.81 266.891 355.13C266.628 355.442 266.497 355.847 266.497 356.344C266.497 357.055 266.756 357.591 267.275 357.953C267.793 358.315 268.454 358.496 269.256 358.496ZM288.944 344.636V347.619H279.537V344.636H288.944ZM281.859 340.716H285.716V356.078C285.716 356.597 285.794 356.994 285.95 357.271C286.113 357.541 286.327 357.726 286.589 357.825C286.852 357.925 287.143 357.974 287.463 357.974C287.704 357.974 287.925 357.957 288.123 357.921C288.329 357.886 288.486 357.854 288.592 357.825L289.242 360.84C289.036 360.911 288.741 360.989 288.358 361.075C287.981 361.16 287.52 361.21 286.973 361.224C286.007 361.252 285.137 361.107 284.363 360.787C283.589 360.46 282.974 359.956 282.52 359.274C282.072 358.592 281.852 357.74 281.859 356.717V340.716ZM299.131 361.32C297.533 361.32 296.148 360.968 294.976 360.265C293.804 359.562 292.895 358.578 292.249 357.314C291.61 356.05 291.29 354.572 291.29 352.882C291.29 351.192 291.61 349.711 292.249 348.44C292.895 347.168 293.804 346.181 294.976 345.478C296.148 344.775 297.533 344.423 299.131 344.423C300.729 344.423 302.114 344.775 303.286 345.478C304.458 346.181 305.363 347.168 306.002 348.44C306.649 349.711 306.972 351.192 306.972 352.882C306.972 354.572 306.649 356.05 306.002 357.314C305.363 358.578 304.458 359.562 303.286 360.265C302.114 360.968 300.729 361.32 299.131 361.32ZM299.152 358.23C300.019 358.23 300.743 357.992 301.326 357.516C301.908 357.033 302.341 356.387 302.625 355.577C302.917 354.768 303.062 353.866 303.062 352.871C303.062 351.87 302.917 350.964 302.625 350.155C302.341 349.338 301.908 348.688 301.326 348.205C300.743 347.722 300.019 347.481 299.152 347.481C298.265 347.481 297.526 347.722 296.936 348.205C296.354 348.688 295.917 349.338 295.626 350.155C295.342 350.964 295.2 351.87 295.2 352.871C295.2 353.866 295.342 354.768 295.626 355.577C295.917 356.387 296.354 357.033 296.936 357.516C297.526 357.992 298.265 358.23 299.152 358.23ZM310.245 361V344.636H313.985V347.364H314.155C314.453 346.419 314.965 345.691 315.689 345.18C316.421 344.661 317.255 344.402 318.193 344.402C318.406 344.402 318.644 344.413 318.906 344.434C319.176 344.448 319.4 344.473 319.578 344.509V348.056C319.414 347.999 319.155 347.95 318.8 347.907C318.452 347.857 318.115 347.832 317.788 347.832C317.085 347.832 316.453 347.985 315.892 348.29C315.338 348.589 314.901 349.004 314.581 349.537C314.262 350.07 314.102 350.684 314.102 351.38V361H310.245Z" fill="#080830"/>
<path d="M61.5 232H39.5V307H61.5V296.2H50.7V274.9H59.7V264.1H50.7V242.8H61.5V232ZM95.3531 307L89.7531 232H70.5531L64.9531 307H76.6531C76.8531 302.5 77.1531 298 77.3531 293.5H82.9531C83.1531 298 83.4531 302.5 83.6531 307H95.3531ZM77.9531 282.7L79.4531 252.9C79.5531 250.1 79.4531 247.4 79.4531 244.6H80.8531C80.8531 247.4 80.7531 250.1 80.8531 252.9L82.3531 282.7H77.9531ZM124.387 237.4L118.987 232H103.787L98.3867 237.4V259.2L113.187 283.7V296.2H109.587V282H98.3867V301.6L103.787 307H119.387L124.387 301.6V279.9L109.587 255.4V242.8H113.187V257H124.387V237.4ZM151.344 232H129.344V307H151.344V296.2H140.544V274.9H149.544V264.1H140.544V242.8H151.344V232ZM166.52 232H155.32V307H177.32V296.2H166.52V232Z" fill="#080830"/>
</svg>
