<svg width="960" height="1440" viewBox="0 0 960 1440" fill="none" xmlns="http://www.w3.org/2000/svg">
    <path d="M767.803 563.839L767.803 751.344L959.972 751.344L959.972 563.839L767.803 563.839Z" stroke="#929292" stroke-opacity="0.1" stroke-width="2" stroke-miterlimit="10"/>
    <path d="M959.98 751.33L959.98 938.858L768.445 751.973L767.811 752.592L767.811 751.33L959.98 751.33Z" stroke="#929292" stroke-opacity="0.1" stroke-width="2" stroke-miterlimit="10"/>
    <path d="M864.554 1033.25L769.104 1126.36L767.811 1126.36L767.811 940.118L768.445 939.475L864.554 1033.25Z" stroke="#929292" stroke-opacity="0.1" stroke-width="2" stroke-miterlimit="10"/>
    <path d="M769.104 938.855L768.445 939.474L767.811 940.116L767.811 938.855L769.104 938.855Z" stroke="#929292" stroke-opacity="0.1" stroke-width="2" stroke-miterlimit="10"/>
    <path d="M767.813 563.82L767.813 751.325L767.789 751.325L672.363 658.215L576.278 564.463L575.619 565.106L575.619 563.82L767.813 563.82Z" stroke="#929292" stroke-opacity="0.1" stroke-width="2" stroke-miterlimit="10"/>
    <path d="M576.937 751.33L576.278 751.972L575.619 752.614L575.619 751.33L576.937 751.33Z" stroke="#929292" stroke-opacity="0.1" stroke-width="2" stroke-miterlimit="10"/>
    <path d="M767.819 940.117L767.819 1126.36L672.369 1033.23L767.819 940.117Z" stroke="#929292" stroke-opacity="0.1" stroke-width="2" stroke-miterlimit="10"/>
    <path d="M576.913 938.855L576.278 939.474L575.619 940.14L575.619 938.855L576.913 938.855Z" stroke="#929292" stroke-opacity="0.1" stroke-width="2" stroke-miterlimit="10"/>
    <path d="M960 751.329L864.574 658.219L768.489 564.467L767.83 563.824L672.404 470.715L576.295 376.939L575.661 376.32L575.636 376.32L575.636 376.296L480.21 283.187L383.467 188.791L382.808 188.149L286.723 94.3963L191.297 1.28705" stroke="#929292" stroke-opacity="0.1" stroke-width="2" stroke-miterlimit="10"/>
    <path d="M768.445 751.968L767.811 751.35" stroke="#929292" stroke-opacity="0.1" stroke-width="2" stroke-miterlimit="10"/>
    <path d="M959.988 938.858L769.111 938.858L864.537 845.725L959.988 938.858Z" stroke="#929292" stroke-opacity="0.1" stroke-width="2" stroke-miterlimit="10"/>
    <path d="M959.992 938.855L959.992 940.118L864.566 1033.25L768.457 939.475L769.116 938.855L959.992 938.855Z" stroke="#929292" stroke-opacity="0.1" stroke-width="2" stroke-miterlimit="10"/>
    <path d="M576.278 751.972L575.619 751.33" stroke="#929292" stroke-opacity="0.1" stroke-width="2" stroke-miterlimit="10"/>
    <path d="M768.445 939.474L767.811 938.855" stroke="#929292" stroke-opacity="0.1" stroke-width="2" stroke-miterlimit="10"/>
    <path d="M576.285 939.474L575.65 938.855" stroke="#929292" stroke-opacity="0.1" stroke-width="2" stroke-miterlimit="10"/>
    <path d="M864.53 845.723L769.104 938.856L767.811 938.856L767.811 752.59L768.445 751.971L864.53 845.723Z" stroke="#929292" stroke-opacity="0.1" stroke-width="2" stroke-miterlimit="10"/>
    <path d="M768.457 751.973L769.116 751.33L864.566 658.221L959.992 565.088" stroke="#929292" stroke-opacity="0.1" stroke-width="2" stroke-miterlimit="10"/>
    <path d="M864.563 470.711L769.113 563.82L768.478 564.463L767.819 565.082L672.369 658.215" stroke="#929292" stroke-opacity="0.1" stroke-width="2" stroke-miterlimit="10"/>
    <path d="M480.197 1033.25L384.771 1126.36L383.453 1126.36L383.453 940.118L384.112 939.475L480.197 1033.25Z" stroke="#929292" stroke-opacity="0.1" stroke-width="2" stroke-miterlimit="10"/>
    <path d="M575.628 563.82L575.628 565.106L480.202 658.215L384.117 564.463L384.776 563.82L575.628 563.82Z" stroke="#929292" stroke-opacity="0.1" stroke-width="2" stroke-miterlimit="10"/>
    <path d="M480.197 658.215L384.771 751.324L383.453 751.324L383.453 565.106L384.112 564.463L480.197 658.215Z" stroke="#929292" stroke-opacity="0.1" stroke-width="2" stroke-miterlimit="10"/>
    <path d="M767.819 938.858L576.918 938.858L672.368 845.725L767.819 938.858Z" stroke="#929292" stroke-opacity="0.1" stroke-width="2" stroke-miterlimit="10"/>
    <path d="M767.801 751.326L576.949 751.326L672.375 658.217L767.801 751.326Z" stroke="#929292" stroke-opacity="0.1" stroke-width="2" stroke-miterlimit="10"/>
    <path d="M767.822 938.855L767.822 940.118L672.372 1033.23L576.287 939.475L576.922 938.855L767.822 938.855Z" stroke="#929292" stroke-opacity="0.1" stroke-width="2" stroke-miterlimit="10"/>
    <path d="M672.363 1033.23L576.913 1126.36L575.619 1126.36L575.619 940.141L576.278 939.475L672.363 1033.23Z" stroke="#929292" stroke-opacity="0.1" stroke-width="2" stroke-miterlimit="10"/>
    <path d="M575.621 940.143L575.621 1126.36L480.195 1033.25L575.621 940.143Z" stroke="#929292" stroke-opacity="0.1" stroke-width="2" stroke-miterlimit="10"/>
    <path d="M767.819 752.594L767.819 938.86L672.369 845.727L767.819 752.594Z" stroke="#929292" stroke-opacity="0.1" stroke-width="2" stroke-miterlimit="10"/>
    <path d="M576.999 752.594L576.999 938.86L481.549 845.727L576.999 752.594Z" stroke="#929292" stroke-opacity="0.1" stroke-width="2" stroke-miterlimit="10"/>
    <path d="M767.822 751.33L767.822 752.592L672.372 845.725L576.287 751.973L576.946 751.33L767.822 751.33Z" stroke="#929292" stroke-opacity="0.1" stroke-width="2" stroke-miterlimit="10"/>
    <path d="M672.363 658.215L576.937 751.324L575.619 751.324L575.619 565.106L576.278 564.463L672.363 658.215Z" stroke="#929292" stroke-opacity="0.1" stroke-width="2" stroke-miterlimit="10"/>
    <path d="M575.628 938.855L575.628 940.141L480.202 1033.25L384.117 939.475L384.752 938.855L575.628 938.855Z" stroke="#929292" stroke-opacity="0.1" stroke-width="2" stroke-miterlimit="10"/>
    <path d="M575.628 751.33L575.628 752.616L480.202 845.725L384.117 751.973L384.776 751.33L575.628 751.33Z" stroke="#929292" stroke-opacity="0.1" stroke-width="2" stroke-miterlimit="10"/>
    <path d="M575.63 938.834L575.63 938.858L384.754 938.858L480.204 845.725L575.63 938.834Z" stroke="#929292" stroke-opacity="0.1" stroke-width="2" stroke-miterlimit="10"/>
    <path d="M575.621 565.109L575.621 751.328L480.195 658.219L575.621 565.109Z" stroke="#929292" stroke-opacity="0.1" stroke-width="2" stroke-miterlimit="10"/>
    <path d="M575.619 751.326L384.768 751.326L480.194 658.217L575.619 751.326Z" stroke="#929292" stroke-opacity="0.1" stroke-width="2" stroke-miterlimit="10"/>
    <path d="M959.98 1.28712L767.811 1.28711L767.811 188.792L959.98 188.792L959.98 1.28712Z" stroke="#929292" stroke-opacity="0.1" stroke-width="2" stroke-miterlimit="10"/>
    <path d="M959.992 188.793L959.992 190.079L864.566 283.212L768.457 189.436L769.116 188.793L959.992 188.793Z" stroke="#929292" stroke-opacity="0.1" stroke-width="2" stroke-miterlimit="10"/>
    <path d="M769.104 188.793L767.811 190.054L767.811 188.793L769.104 188.793Z" stroke="#929292" stroke-opacity="0.1" stroke-width="2" stroke-miterlimit="10"/>
    <path d="M959.986 190.076L959.986 376.319L864.561 283.209L959.986 190.076Z" stroke="#929292" stroke-opacity="0.1" stroke-width="2" stroke-miterlimit="10"/>
    <path d="M959.99 376.318L769.113 376.318L864.564 283.209L959.99 376.318Z" stroke="#929292" stroke-opacity="0.1" stroke-width="2" stroke-miterlimit="10"/>
    <path d="M959.986 377.586L959.986 563.828L864.561 470.719L959.986 377.586Z" stroke="#929292" stroke-opacity="0.1" stroke-width="2" stroke-miterlimit="10"/>
    <path d="M959.98 563.823L767.811 563.823L767.811 376.318L769.104 376.318L768.47 376.961L864.554 470.714L959.98 563.823Z" stroke="#929292" stroke-opacity="0.1" stroke-width="2" stroke-miterlimit="10"/>
    <path d="M959.986 940.117L959.986 1126.36L864.561 1033.25L959.986 940.117Z" stroke="#929292" stroke-opacity="0.1" stroke-width="2" stroke-miterlimit="10"/>
    <path d="M959.99 1126.36L769.113 1126.36L864.564 1033.25L959.99 1126.36Z" stroke="#929292" stroke-opacity="0.1" stroke-width="2" stroke-miterlimit="10"/>
    <path d="M769.104 1126.36L768.47 1127L767.811 1127.62L767.811 1126.36L769.104 1126.36Z" stroke="#929292" stroke-opacity="0.1" stroke-width="2" stroke-miterlimit="10"/>
    <path d="M959.996 1127.62L959.996 1313.86L769.145 1313.86L864.57 1220.75L959.996 1127.62Z" stroke="#929292" stroke-opacity="0.1" stroke-width="2" stroke-miterlimit="10"/>
    <path d="M767.813 1.28712L767.813 2.54921L672.363 95.6823L575.619 1.28711L767.813 1.28712Z" stroke="#929292" stroke-opacity="0.1" stroke-width="2" stroke-miterlimit="10"/>
    <path d="M767.819 2.54883L767.819 188.791L767.795 188.791L672.369 95.6819L767.819 2.54883Z" stroke="#929292" stroke-opacity="0.1" stroke-width="2" stroke-miterlimit="10"/>
    <path d="M767.813 188.793L575.619 188.793L575.619 376.321L767.813 376.321L767.813 188.793Z" stroke="#929292" stroke-opacity="0.1" stroke-width="2" stroke-miterlimit="10"/>
    <path d="M767.813 376.318L575.619 376.318L575.619 563.823L767.813 563.823L767.813 376.318Z" stroke="#929292" stroke-opacity="0.1" stroke-width="2" stroke-miterlimit="10"/>
    <path d="M767.819 1126.36L576.918 1126.36L672.368 1033.23L767.819 1126.36Z" stroke="#929292" stroke-opacity="0.1" stroke-width="2" stroke-miterlimit="10"/>
    <path d="M767.801 1313.86L576.949 1313.86L672.375 1220.76L767.801 1313.86Z" stroke="#929292" stroke-opacity="0.1" stroke-width="2" stroke-miterlimit="10"/>
    <path d="M672.363 1220.76L576.937 1313.87L575.619 1313.87L575.619 1127.62L576.278 1127L672.363 1220.76Z" stroke="#929292" stroke-opacity="0.1" stroke-width="2" stroke-miterlimit="10"/>
    <path d="M576.913 1126.36L576.278 1127L575.619 1127.62L575.619 1126.36L576.913 1126.36Z" stroke="#929292" stroke-opacity="0.1" stroke-width="2" stroke-miterlimit="10"/>
    <path d="M575.631 1.28711L575.631 188.792L478.887 94.3964L574.313 1.28711L575.631 1.28711Z" stroke="#929292" stroke-opacity="0.1" stroke-width="2" stroke-miterlimit="10"/>
    <path d="M575.623 188.792L383.453 188.792L383.453 1.28711L478.879 94.3964L575.623 188.792Z" stroke="#929292" stroke-opacity="0.1" stroke-width="2" stroke-miterlimit="10"/>
    <path d="M383.475 188.822L383.475 376.326L575.644 376.326L575.644 188.822L383.475 188.822Z" stroke="#929292" stroke-opacity="0.1" stroke-width="2" stroke-miterlimit="10"/>
    <path d="M575.623 376.318L575.623 563.799L480.197 470.714L384.112 376.938L383.453 377.58L383.453 376.318L575.623 376.318Z" stroke="#929292" stroke-opacity="0.1" stroke-width="2" stroke-miterlimit="10"/>
    <path d="M384.771 563.82L384.112 564.463L383.453 565.105L383.453 563.82L384.771 563.82Z" stroke="#929292" stroke-opacity="0.1" stroke-width="2" stroke-miterlimit="10"/>
    <path d="M384.771 751.33L383.453 752.614L383.453 751.33L384.771 751.33Z" stroke="#929292" stroke-opacity="0.1" stroke-width="2" stroke-miterlimit="10"/>
    <path d="M384.747 938.855L383.453 940.116L383.453 938.855L384.747 938.855Z" stroke="#929292" stroke-opacity="0.1" stroke-width="2" stroke-miterlimit="10"/>
    <path d="M384.771 1126.36L383.453 1127.64L383.453 1126.36L384.771 1126.36Z" stroke="#929292" stroke-opacity="0.1" stroke-width="2" stroke-miterlimit="10"/>
    <path d="M575.631 1127.62L575.631 1313.86L573.019 1313.86L478.887 1222.01L575.631 1127.62Z" stroke="#929292" stroke-opacity="0.1" stroke-width="2" stroke-miterlimit="10"/>
    <path d="M573.021 1313.86L384.756 1313.86L478.888 1222.01L573.021 1313.86Z" stroke="#929292" stroke-opacity="0.1" stroke-width="2" stroke-miterlimit="10"/>
    <path d="M191.283 1.30411L191.283 188.809L383.453 188.809L383.453 1.30412L191.283 1.30411Z" stroke="#929292" stroke-opacity="0.1" stroke-width="2" stroke-miterlimit="10"/>
    <path d="M383.467 188.793L191.297 188.793L191.297 376.321L383.467 376.321L383.467 188.793Z" stroke="#929292" stroke-opacity="0.1" stroke-width="2" stroke-miterlimit="10"/>
    <path d="M288.041 470.713L192.59 563.823L191.297 563.823L191.297 376.318L288.041 470.713Z" stroke="#929292" stroke-opacity="0.1" stroke-width="2" stroke-miterlimit="10"/>
    <path d="M383.454 563.82L192.578 563.82L288.028 470.711L383.454 563.82Z" stroke="#929292" stroke-opacity="0.1" stroke-width="2" stroke-miterlimit="10"/>
    <path d="M383.453 377.586L383.453 563.828L288.027 470.719L383.453 377.586Z" stroke="#929292" stroke-opacity="0.1" stroke-width="2" stroke-miterlimit="10"/>
    <path d="M288.041 658.215L192.615 751.324L191.297 751.324L191.297 565.082L191.956 564.463L288.041 658.215Z" stroke="#929292" stroke-opacity="0.1" stroke-width="2" stroke-miterlimit="10"/>
    <path d="M192.59 563.82L191.956 564.462L191.297 565.081L191.297 563.82L192.59 563.82Z" stroke="#929292" stroke-opacity="0.1" stroke-width="2" stroke-miterlimit="10"/>
    <path d="M288.041 845.723L192.59 938.856L191.297 938.856L191.297 752.614L191.956 751.971L288.041 845.723Z" stroke="#929292" stroke-opacity="0.1" stroke-width="2" stroke-miterlimit="10"/>
    <path d="M192.615 751.33L191.297 752.614L191.297 751.33L192.615 751.33Z" stroke="#929292" stroke-opacity="0.1" stroke-width="2" stroke-miterlimit="10"/>
    <path d="M383.467 938.855L383.467 940.118L286.723 1034.51L191.297 941.427L191.297 940.118L192.59 938.855L383.467 938.855Z" stroke="#929292" stroke-opacity="0.1" stroke-width="2" stroke-miterlimit="10"/>
    <path d="M192.59 938.855L191.297 940.116L191.297 938.855L192.59 938.855Z" stroke="#929292" stroke-opacity="0.1" stroke-width="2" stroke-miterlimit="10"/>
    <path d="M286.723 1034.51L192.59 1126.36L191.297 1126.36L191.297 941.428L286.723 1034.51Z" stroke="#929292" stroke-opacity="0.1" stroke-width="2" stroke-miterlimit="10"/>
    <path d="M286.723 1222.04L192.615 1313.87L191.297 1313.87L191.297 1128.93L286.723 1222.04Z" stroke="#929292" stroke-opacity="0.1" stroke-width="2" stroke-miterlimit="10"/>
    <path d="M382.808 1128.29L286.723 1222.04L191.297 1128.93L191.297 1127.62L192.59 1126.36L380.831 1126.36L382.808 1128.29Z" stroke="#929292" stroke-opacity="0.1" stroke-width="2" stroke-miterlimit="10"/>
    <path d="M192.59 1126.36L191.297 1127.62L191.297 1126.36L192.59 1126.36Z" stroke="#929292" stroke-opacity="0.1" stroke-width="2" stroke-miterlimit="10"/>
    <path d="M383.464 1126.36L383.464 1128.91L382.805 1128.29L380.828 1126.36L383.464 1126.36Z" stroke="#929292" stroke-opacity="0.1" stroke-width="2" stroke-miterlimit="10"/>
    <path d="M959.98 188.815L767.811 1.28711" stroke="#929292" stroke-opacity="0.1" stroke-width="2" stroke-miterlimit="10"/>
    <path d="M767.801 188.791L576.949 188.791L672.375 95.6816L767.801 188.791Z" stroke="#929292" stroke-opacity="0.1" stroke-width="2" stroke-miterlimit="10"/>
    <path d="M767.797 188.793L767.821 188.817L768.456 189.435" stroke="#929292" stroke-opacity="0.1" stroke-width="2" stroke-miterlimit="10"/>
    <path d="M191.286 941.424L191.262 941.402" stroke="#929292" stroke-opacity="0.1" stroke-width="2" stroke-miterlimit="10"/>
    <path d="M575.635 1316.41L573.023 1313.87" stroke="#929292" stroke-opacity="0.1" stroke-width="2" stroke-miterlimit="10"/>
    <path d="M382.145 0L382.803 0.642191L383.462 1.28438" stroke="#929292" stroke-opacity="0.1" stroke-width="2" stroke-miterlimit="10"/>
    <path d="M959.993 376.318L959.993 377.58L864.567 470.714L768.482 376.961L769.117 376.318L959.993 376.318Z" stroke="#929292" stroke-opacity="0.1" stroke-width="2" stroke-miterlimit="10"/>
    <path d="M575.619 188.793L576.278 189.436L672.363 283.188L767.813 376.321L768.472 376.964" stroke="#929292" stroke-opacity="0.1" stroke-width="2" stroke-miterlimit="10"/>
    <path d="M864.554 1220.76L769.128 1313.87L767.811 1313.87L767.811 1127.62L768.47 1127L864.554 1220.76Z" stroke="#929292" stroke-opacity="0.1" stroke-width="2" stroke-miterlimit="10"/>
    <path d="M769.104 1315.15L768.445 1314.51L767.811 1313.87" stroke="#929292" stroke-opacity="0.1" stroke-width="2" stroke-miterlimit="10"/>
    <path d="M767.824 1126.36L767.824 1127.62L672.374 1220.75L576.289 1127L576.924 1126.36L767.824 1126.36Z" stroke="#929292" stroke-opacity="0.1" stroke-width="2" stroke-miterlimit="10"/>
    <path d="M383.46 751.33L383.46 752.616L288.034 845.725L191.949 751.973L192.608 751.33L383.46 751.33Z" stroke="#929292" stroke-opacity="0.1" stroke-width="2" stroke-miterlimit="10"/>
    <path d="M191.956 751.972L191.297 751.33" stroke="#929292" stroke-opacity="0.1" stroke-width="2" stroke-miterlimit="10"/>
    <path d="M576.278 1127L575.619 1126.36" stroke="#929292" stroke-opacity="0.1" stroke-width="2" stroke-miterlimit="10"/>
    <path d="M384.123 939.474L383.488 938.855" stroke="#929292" stroke-opacity="0.1" stroke-width="2" stroke-miterlimit="10"/>
    <path d="M191.297 188.793L286.723 281.902L383.467 376.297L383.467 376.321L383.491 376.321L384.126 376.94" stroke="#929292" stroke-opacity="0.1" stroke-width="2" stroke-miterlimit="10"/>
    <path d="M575.619 563.82L575.644 563.82L576.278 564.463" stroke="#929292" stroke-opacity="0.1" stroke-width="2" stroke-miterlimit="10"/>
    <path d="M384.112 564.463L383.453 563.82" stroke="#929292" stroke-opacity="0.1" stroke-width="2" stroke-miterlimit="10"/>
    <path d="M959.993 1126.36L959.993 1127.62L864.567 1220.75L768.482 1127L769.117 1126.36L959.993 1126.36Z" stroke="#929292" stroke-opacity="0.1" stroke-width="2" stroke-miterlimit="10"/>
    <path d="M959.986 1313.86L864.561 1220.76" stroke="#929292" stroke-opacity="0.1" stroke-width="2" stroke-miterlimit="10"/>
    <path d="M768.469 1127L767.811 1126.36" stroke="#929292" stroke-opacity="0.1" stroke-width="2" stroke-miterlimit="10"/>
    <path d="M384.112 751.972L383.453 751.33" stroke="#929292" stroke-opacity="0.1" stroke-width="2" stroke-miterlimit="10"/>
    <path d="M191.956 564.463L191.297 563.82" stroke="#929292" stroke-opacity="0.1" stroke-width="2" stroke-miterlimit="10"/>
    <path d="M478.879 1222.02L384.747 1313.86L383.453 1313.86L383.453 1128.91L478.879 1222.02Z" stroke="#929292" stroke-opacity="0.1" stroke-width="2" stroke-miterlimit="10"/>
    <path d="M383.461 1316.41L382.802 1315.77L380.85 1313.87" stroke="#929292" stroke-opacity="0.1" stroke-width="2" stroke-miterlimit="10"/>
    <path d="M191.286 1128.93L191.262 1128.91" stroke="#929292" stroke-opacity="0.1" stroke-width="2" stroke-miterlimit="10"/>
    <path d="M769.128 1313.87L768.445 1314.51L767.811 1315.15" stroke="#929292" stroke-opacity="0.1" stroke-width="2" stroke-miterlimit="10"/>
    <path d="M767.819 1127.62L767.819 1313.86L767.795 1313.86L672.369 1220.75L767.819 1127.62Z" stroke="#929292" stroke-opacity="0.1" stroke-width="2" stroke-miterlimit="10"/>
    <path d="M576.937 1313.87L575.619 1315.15" stroke="#929292" stroke-opacity="0.1" stroke-width="2" stroke-miterlimit="10"/>
    <path d="M574.305 1.28712L478.879 94.3964L383.453 1.28711L574.305 1.28712Z" stroke="#929292" stroke-opacity="0.1" stroke-width="2" stroke-miterlimit="10"/>
    <path d="M191.262 375.032L191.286 375.008L286.712 281.899L382.138 188.79L382.797 188.147L383.456 187.504L478.882 94.3945" stroke="#929292" stroke-opacity="0.1" stroke-width="2" stroke-miterlimit="10"/>
    <path d="M575.621 5.76085e-08L574.303 1.28438" stroke="#929292" stroke-opacity="0.1" stroke-width="2" stroke-miterlimit="10"/>
    <path d="M575.623 1126.36L575.623 1127.62L478.879 1222.02L383.453 1128.91L383.453 1127.65L384.771 1126.36L575.623 1126.36Z" stroke="#929292" stroke-opacity="0.1" stroke-width="2" stroke-miterlimit="10"/>
    <path d="M382.145 1316.41L382.803 1315.77L384.756 1313.87" stroke="#929292" stroke-opacity="0.1" stroke-width="2" stroke-miterlimit="10"/>
    <path d="M959.997 752.613L864.547 845.722" stroke="#929292" stroke-opacity="0.1" stroke-width="2" stroke-miterlimit="10"/>
    <path d="M672.363 95.6823L576.937 188.792L575.619 188.792L575.619 1.28711L672.363 95.6823Z" stroke="#929292" stroke-opacity="0.1" stroke-width="2" stroke-miterlimit="10"/>
    <path d="M383.467 376.318L383.467 377.58L288.041 470.714L191.297 376.318L383.467 376.318Z" stroke="#929292" stroke-opacity="0.1" stroke-width="2" stroke-miterlimit="10"/>
    <path d="M384.117 376.94L384.752 376.321L480.202 283.188L575.628 190.079L576.287 189.436L576.946 188.793" stroke="#929292" stroke-opacity="0.1" stroke-width="2" stroke-miterlimit="10"/>
    <path d="M383.46 563.82L383.46 565.106L288.034 658.215L191.949 564.463L192.584 563.82L383.46 563.82Z" stroke="#929292" stroke-opacity="0.1" stroke-width="2" stroke-miterlimit="10"/>
    <path d="M769.104 1.28711L768.47 1.9293L767.811 2.54771" stroke="#929292" stroke-opacity="0.1" stroke-width="2" stroke-miterlimit="10"/>
    <path d="M380.848 1313.87L192.607 1313.87L286.715 1222.04L380.848 1313.87Z" stroke="#929292" stroke-opacity="0.1" stroke-width="2" stroke-miterlimit="10"/>
    <path d="M383.455 1128.9L383.455 1313.86L380.843 1313.86L286.711 1222.04L382.796 1128.29L383.455 1128.9Z" stroke="#929292" stroke-opacity="0.1" stroke-width="2" stroke-miterlimit="10"/>
    <path d="M383.454 1127.65L382.795 1128.29" stroke="#929292" stroke-opacity="0.1" stroke-width="2" stroke-miterlimit="10"/>
    <path d="M192.615 1313.87L191.297 1315.15" stroke="#929292" stroke-opacity="0.1" stroke-width="2" stroke-miterlimit="10"/>
    <path d="M575.621 1126.36L384.77 1126.36L480.195 1033.25L575.621 1126.36Z" stroke="#929292" stroke-opacity="0.1" stroke-width="2" stroke-miterlimit="10"/>
    <path d="M383.455 940.117L383.455 1126.36L380.819 1126.36L286.711 1034.51L383.455 940.117Z" stroke="#929292" stroke-opacity="0.1" stroke-width="2" stroke-miterlimit="10"/>
    <path d="M380.819 1126.36L192.578 1126.36L286.711 1034.51L380.819 1126.36Z" stroke="#929292" stroke-opacity="0.1" stroke-width="2" stroke-miterlimit="10"/>
    <path d="M383.454 938.834L383.454 938.858L192.578 938.858L288.028 845.725L383.454 938.834Z" stroke="#929292" stroke-opacity="0.1" stroke-width="2" stroke-miterlimit="10"/>
    <path d="M383.453 752.613L383.453 938.832L288.027 845.722L383.453 752.613Z" stroke="#929292" stroke-opacity="0.1" stroke-width="2" stroke-miterlimit="10"/>
    <path d="M768.483 376.961L767.824 377.58L672.398 470.713L576.948 563.822L576.289 564.465" stroke="#929292" stroke-opacity="0.1" stroke-width="2" stroke-miterlimit="10"/>
    <path d="M864.554 283.208L769.104 376.317L767.811 376.317L767.811 190.051L768.445 189.432L864.554 283.208Z" stroke="#929292" stroke-opacity="0.1" stroke-width="2" stroke-miterlimit="10"/>
    <path d="M480.197 470.713L384.771 563.823L383.453 563.823L383.453 377.58L384.112 376.938L480.197 470.713Z" stroke="#929292" stroke-opacity="0.1" stroke-width="2" stroke-miterlimit="10"/>
    <path d="M767.815 190.051L672.365 283.184L576.915 376.317L576.28 376.936L575.621 377.603L480.195 470.712" stroke="#929292" stroke-opacity="0.1" stroke-width="2" stroke-miterlimit="10"/>
    <path d="M575.621 563.796L575.621 563.82L384.77 563.82L480.195 470.711L575.621 563.796Z" stroke="#929292" stroke-opacity="0.1" stroke-width="2" stroke-miterlimit="10"/>
    <path d="M383.459 751.326L192.607 751.326L288.033 658.217L383.459 751.326Z" stroke="#929292" stroke-opacity="0.1" stroke-width="2" stroke-miterlimit="10"/>
    <path d="M383.453 565.109L383.453 751.328L288.027 658.219L383.453 565.109Z" stroke="#929292" stroke-opacity="0.1" stroke-width="2" stroke-miterlimit="10"/>
    <path d="M959.99 2.54884L864.564 95.6819L769.113 188.791" stroke="#929292" stroke-opacity="0.1" stroke-width="2" stroke-miterlimit="10"/>
    <path d="M383.467 0.025338L191.297 187.53" stroke="#929292" stroke-opacity="0.1" stroke-width="2" stroke-miterlimit="10"/>
    <path d="M382.146 1397.61L382.805 1398.26L383.464 1398.9" stroke="#929292" stroke-opacity="0.1" stroke-width="2" stroke-miterlimit="10"/>
    <path d="M575.625 1397.61L574.307 1398.9" stroke="#929292" stroke-opacity="0.1" stroke-width="2" stroke-miterlimit="10"/>
    <path d="M769.106 1398.9L768.471 1399.54L767.812 1400.16" stroke="#929292" stroke-opacity="0.1" stroke-width="2" stroke-miterlimit="10"/>
    <path d="M959.988 1315L959.988 1501.24L864.562 1408.14L959.988 1315Z" stroke="#929292" stroke-opacity="0.1" stroke-width="2" stroke-miterlimit="10"/>
    <path d="M959.991 1501.25L769.115 1501.25L864.566 1408.14L959.991 1501.25Z" stroke="#929292" stroke-opacity="0.1" stroke-width="2" stroke-miterlimit="10"/>
    <path d="M864.556 1408.14L769.106 1501.25L767.812 1501.25L767.812 1315.01L768.447 1314.37L864.556 1408.14Z" stroke="#929292" stroke-opacity="0.1" stroke-width="2" stroke-miterlimit="10"/>
    <path d="M767.823 1315L767.823 1501.24L672.373 1408.11L767.823 1315Z" stroke="#929292" stroke-opacity="0.1" stroke-width="2" stroke-miterlimit="10"/>
    <path d="M767.821 1501.25L576.92 1501.25L672.37 1408.12L767.821 1501.25Z" stroke="#929292" stroke-opacity="0.1" stroke-width="2" stroke-miterlimit="10"/>
    <path d="M383.471 1313.75L383.471 1315.01L286.727 1409.41L191.301 1316.32L191.301 1315.01L192.594 1313.75L383.471 1313.75Z" stroke="#929292" stroke-opacity="0.1" stroke-width="2" stroke-miterlimit="10"/>
    <path d="M286.727 1409.4L192.594 1501.25L191.301 1501.25L191.301 1316.32L286.727 1409.4Z" stroke="#929292" stroke-opacity="0.1" stroke-width="2" stroke-miterlimit="10"/>
    <path d="M959.996 1313.75L959.996 1315.01L864.57 1408.15L768.461 1314.37L769.12 1313.75L959.996 1313.75Z" stroke="#929292" stroke-opacity="0.1" stroke-width="2" stroke-miterlimit="10"/>
    <path d="M767.826 1313.75L767.826 1315.01L672.376 1408.12L576.291 1314.37L576.926 1313.75L767.826 1313.75Z" stroke="#929292" stroke-opacity="0.1" stroke-width="2" stroke-miterlimit="10"/>
    <path d="M672.367 1408.12L576.917 1501.25L575.623 1501.25L575.623 1315.03L576.282 1314.37L672.367 1408.12Z" stroke="#929292" stroke-opacity="0.1" stroke-width="2" stroke-miterlimit="10"/>
    <path d="M575.625 1315.03L575.625 1501.25L480.199 1408.14L575.625 1315.03Z" stroke="#929292" stroke-opacity="0.1" stroke-width="2" stroke-miterlimit="10"/>
    <path d="M575.632 1313.75L575.632 1315.04L480.206 1408.15L384.121 1314.37L384.756 1313.75L575.632 1313.75Z" stroke="#929292" stroke-opacity="0.1" stroke-width="2" stroke-miterlimit="10"/>
    <path d="M575.623 1501.25L384.771 1501.25L480.197 1408.14L575.623 1501.25Z" stroke="#929292" stroke-opacity="0.1" stroke-width="2" stroke-miterlimit="10"/>
    <path d="M480.199 1408.14L384.773 1501.25L383.455 1501.25L383.455 1315.01L384.114 1314.37L480.199 1408.14Z" stroke="#929292" stroke-opacity="0.1" stroke-width="2" stroke-miterlimit="10"/>
    <path d="M383.457 1315L383.457 1501.24L380.821 1501.24L286.713 1409.4L383.457 1315Z" stroke="#929292" stroke-opacity="0.1" stroke-width="2" stroke-miterlimit="10"/>
    <path d="M380.822 1501.25L192.582 1501.25L286.714 1409.4L380.822 1501.25Z" stroke="#929292" stroke-opacity="0.1" stroke-width="2" stroke-miterlimit="10"/>
    <path d="M0.0214926 1.30484L0.0214844 188.809L192.191 188.809L192.191 1.30485L0.0214926 1.30484Z" stroke="#929292" stroke-opacity="0.1" stroke-width="2" stroke-miterlimit="10"/>
    <path d="M192.205 188.794L0.0351562 188.794L0.0351481 376.322L192.205 376.322L192.205 188.794Z" stroke="#929292" stroke-opacity="0.1" stroke-width="2" stroke-miterlimit="10"/>
    <path d="M96.779 470.712L1.32865 563.821L0.0351481 563.821L0.0351562 376.317L96.779 470.712Z" stroke="#929292" stroke-opacity="0.1" stroke-width="2" stroke-miterlimit="10"/>
    <path d="M192.193 563.821L1.3164 563.821L96.7667 470.712L192.193 563.821Z" stroke="#929292" stroke-opacity="0.1" stroke-width="2" stroke-miterlimit="10"/>
    <path d="M192.19 377.586L192.19 563.828L96.7637 470.719L192.19 377.586Z" stroke="#929292" stroke-opacity="0.1" stroke-width="2" stroke-miterlimit="10"/>
    <path d="M96.779 658.216L1.35305 751.325L0.0351481 751.325L0.0351562 565.083L0.694108 564.464L96.779 658.216Z" stroke="#929292" stroke-opacity="0.1" stroke-width="2" stroke-miterlimit="10"/>
    <path d="M1.32865 563.821L0.694108 564.463L0.0351562 565.081L0.0351562 563.821L1.32865 563.821Z" stroke="#929292" stroke-opacity="0.1" stroke-width="2" stroke-miterlimit="10"/>
    <path d="M96.779 845.724L1.32865 938.857L0.0351481 938.857L0.0351562 752.614L0.694108 751.971L96.779 845.724Z" stroke="#929292" stroke-opacity="0.1" stroke-width="2" stroke-miterlimit="10"/>
    <path d="M1.35306 751.33L0.0351562 752.615L0.0351562 751.33L1.35306 751.33Z" stroke="#929292" stroke-opacity="0.1" stroke-width="2" stroke-miterlimit="10"/>
    <path d="M192.205 938.855L192.205 940.117L95.4611 1034.51L0.0351561 941.427L0.0351562 940.117L1.32865 938.855L192.205 938.855Z" stroke="#929292" stroke-opacity="0.1" stroke-width="2" stroke-miterlimit="10"/>
    <path d="M1.32865 938.855L0.0351562 940.116L0.0351562 938.855L1.32865 938.855Z" stroke="#929292" stroke-opacity="0.1" stroke-width="2" stroke-miterlimit="10"/>
    <path d="M95.4611 1034.51L1.32865 1126.36L0.0351482 1126.36L0.0351562 941.429L95.4611 1034.51Z" stroke="#929292" stroke-opacity="0.1" stroke-width="2" stroke-miterlimit="10"/>
    <path d="M95.4611 1222.04L1.35305 1313.87L0.0351482 1313.87L0.0351562 1128.93L95.4611 1222.04Z" stroke="#929292" stroke-opacity="0.1" stroke-width="2" stroke-miterlimit="10"/>
    <path d="M191.546 1128.29L95.4611 1222.04L0.0351561 1128.93L0.0351562 1127.62L1.32865 1126.36L189.569 1126.36L191.546 1128.29Z" stroke="#929292" stroke-opacity="0.1" stroke-width="2" stroke-miterlimit="10"/>
    <path d="M1.32865 1126.36L0.0351562 1127.62L0.0351562 1126.36L1.32865 1126.36Z" stroke="#929292" stroke-opacity="0.1" stroke-width="2" stroke-miterlimit="10"/>
    <path d="M0.0246951 941.424L0 941.402" stroke="#929292" stroke-opacity="0.1" stroke-width="2" stroke-miterlimit="10"/>
    <path d="M192.196 751.33L192.196 752.616L96.7704 845.725L0.685547 751.973L1.3445 751.33L192.196 751.33Z" stroke="#929292" stroke-opacity="0.1" stroke-width="2" stroke-miterlimit="10"/>
    <path d="M0.694108 751.973L0.0351562 751.33" stroke="#929292" stroke-opacity="0.1" stroke-width="2" stroke-miterlimit="10"/>
    <path d="M192.185 187.38L168.327 164.218L144.305 140.896L144.14 140.737L120.282 117.575L96.254 94.2472L96.0953 94.0932L96.0892 94.0932L96.0892 94.0873L72.2317 70.9256L48.0446 47.444L47.8799 47.284L23.8576 23.9624L0 0.800659" stroke="#929292" stroke-opacity="0.1" stroke-width="2" stroke-miterlimit="10"/>
    <path d="M0.0351562 188.794L95.4611 281.903L192.205 376.298L192.205 376.322L192.229 376.322L192.864 376.941" stroke="#929292" stroke-opacity="0.1" stroke-width="2" stroke-miterlimit="10"/>
    <path d="M0.694108 564.463L0.0351562 563.821" stroke="#929292" stroke-opacity="0.1" stroke-width="2" stroke-miterlimit="10"/>
    <path d="M0.0246951 1128.93L0 1128.91" stroke="#929292" stroke-opacity="0.1" stroke-width="2" stroke-miterlimit="10"/>
    <path d="M-8.15563e-06 375.561L0.0162994 375.545L63.7788 313.643L127.541 251.74L127.982 251.312L128.422 250.885L192.185 188.982" stroke="#929292" stroke-opacity="0.1" stroke-width="2" stroke-miterlimit="10"/>
    <path d="M192.205 376.317L192.205 377.579L96.779 470.712L0.0351562 376.317L192.205 376.317Z" stroke="#929292" stroke-opacity="0.1" stroke-width="2" stroke-miterlimit="10"/>
    <path d="M192.196 563.821L192.196 565.107L96.7704 658.216L0.685547 564.464L1.32009 563.821L192.196 563.821Z" stroke="#929292" stroke-opacity="0.1" stroke-width="2" stroke-miterlimit="10"/>
    <path d="M189.584 1313.87L1.34375 1313.87L95.4517 1222.04L189.584 1313.87Z" stroke="#929292" stroke-opacity="0.1" stroke-width="2" stroke-miterlimit="10"/>
    <path d="M192.191 1128.91L192.191 1313.86L189.58 1313.86L95.4473 1222.04L191.532 1128.29L192.191 1128.91Z" stroke="#929292" stroke-opacity="0.1" stroke-width="2" stroke-miterlimit="10"/>
    <path d="M1.35306 1313.86L0.0351562 1315.15" stroke="#929292" stroke-opacity="0.1" stroke-width="2" stroke-miterlimit="10"/>
    <path d="M192.191 940.118L192.191 1126.36L189.555 1126.36L95.4473 1034.51L192.191 940.118Z" stroke="#929292" stroke-opacity="0.1" stroke-width="2" stroke-miterlimit="10"/>
    <path d="M189.557 1126.36L1.3164 1126.36L95.4488 1034.51L189.557 1126.36Z" stroke="#929292" stroke-opacity="0.1" stroke-width="2" stroke-miterlimit="10"/>
    <path d="M192.193 938.834L192.193 938.858L1.3164 938.858L96.7667 845.725L192.193 938.834Z" stroke="#929292" stroke-opacity="0.1" stroke-width="2" stroke-miterlimit="10"/>
    <path d="M192.19 752.614L192.19 938.833L96.7637 845.723L192.19 752.614Z" stroke="#929292" stroke-opacity="0.1" stroke-width="2" stroke-miterlimit="10"/>
    <path d="M192.196 751.327L1.34375 751.327L96.7697 658.217L192.196 751.327Z" stroke="#929292" stroke-opacity="0.1" stroke-width="2" stroke-miterlimit="10"/>
    <path d="M192.19 565.11L192.19 751.329L96.7637 658.22L192.19 565.11Z" stroke="#929292" stroke-opacity="0.1" stroke-width="2" stroke-miterlimit="10"/>
    <path d="M192.205 0.025338L0.0351481 187.53" stroke="#929292" stroke-opacity="0.1" stroke-width="2" stroke-miterlimit="10"/>
    <path d="M192.207 1313.75L192.207 1315.01L95.463 1409.41L0.0371093 1316.32L0.0371093 1315.01L1.33061 1313.75L192.207 1313.75Z" stroke="#929292" stroke-opacity="0.1" stroke-width="2" stroke-miterlimit="10"/>
    <path d="M95.463 1409.4L1.3306 1501.25L0.0371013 1501.25L0.0371094 1316.32L95.463 1409.4Z" stroke="#929292" stroke-opacity="0.1" stroke-width="2" stroke-miterlimit="10"/>
    <path d="M192.193 1315L192.193 1501.25L189.557 1501.25L95.4492 1409.4L192.193 1315Z" stroke="#929292" stroke-opacity="0.1" stroke-width="2" stroke-miterlimit="10"/>
    <path d="M189.559 1501.25L1.31836 1501.25L95.4508 1409.4L189.559 1501.25Z" stroke="#929292" stroke-opacity="0.1" stroke-width="2" stroke-miterlimit="10"/>
    <path d="M111 1177L111 1236.83L42.19 1298L0 1298L5.28908e-06 1177L111 1177Z" fill="#3A8977"/>
    <rect x="928" y="1442.77" width="81.77" height="81.7686" transform="rotate(-180 928 1442.77)" fill="#FED564"/>
    <rect x="967" y="180" width="84" height="82" transform="rotate(-180 967 180)" fill="#3A8977"/>
    <rect x="365" y="1443" width="91" height="90" transform="rotate(-180 365 1443)" fill="#2F1BC8"/>
    <rect x="845" y="1360.96" width="113.396" height="12.1328" transform="rotate(-180 845 1360.96)" fill="#2F1BC8"/>
    <rect x="845" y="1335.69" width="113.396" height="12.1328" transform="rotate(-180 845 1335.69)" fill="#2F1BC8"/>
    <rect x="845" y="1310.41" width="113.396" height="12.1328" transform="rotate(-180 845 1310.41)" fill="#2F1BC8"/>
    <rect x="845" y="1285.13" width="113.396" height="12.1328" transform="rotate(-180 845 1285.13)" fill="#2F1BC8"/>
    <rect x="212" y="2" width="19.0006" height="19.5589" transform="rotate(90 212 2)" fill="#3A8977"/>
    <rect x="171.252" y="2" width="19.0006" height="19.5589" transform="rotate(90 171.252 2)" fill="#3A8977"/>
    <rect x="130.506" y="2" width="19.0006" height="19.5589" transform="rotate(90 130.506 2)" fill="#3A8977"/>
    <rect x="89.7559" y="2" width="19.0006" height="19.5589" transform="rotate(90 89.7559 2)" fill="#3A8977"/>
    <rect x="212" y="39.9986" width="19.0006" height="19.5589" transform="rotate(90 212 39.9986)" fill="#3A8977"/>
    <rect x="171.252" y="39.9986" width="19.0006" height="19.5589" transform="rotate(90 171.252 39.9986)" fill="#3A8977"/>
    <rect x="130.506" y="39.9986" width="19.0006" height="19.5589" transform="rotate(90 130.506 39.9986)" fill="#3A8977"/>
    <rect x="89.7559" y="39.9986" width="19.0006" height="19.5589" transform="rotate(90 89.7559 39.9986)" fill="#3A8977"/>
    <path d="M864 1123L864 1069.6L927.53 1015L960 1015L960 1123L864 1123Z" fill="#EF4421"/>
    <rect x="103" y="231" width="116.704" height="13.5532" transform="rotate(90 103 231)" fill="#FED564"/>
    <rect x="74.7637" y="231" width="116.704" height="13.5532" transform="rotate(90 74.7637 231)" fill="#FED564"/>
    <rect x="46.5293" y="231" width="116.704" height="13.5532" transform="rotate(90 46.5293 231)" fill="#FED564"/>
    <rect x="18.293" y="231" width="116.704" height="13.5532" transform="rotate(90 18.293 231)" fill="#FED564"/>
    <path d="M641 98L584.63 98L527 45.5439L527 -7.62939e-06L641 -2.6463e-06L641 98Z" fill="#FED564"/>
    <rect x="827.932" y="180" width="18.357" height="18.8964" fill="#2F1BC8"/>
    <rect x="827.932" y="219.366" width="18.357" height="18.8964" fill="#2F1BC8"/>
    <rect x="827.932" y="258.734" width="18.357" height="18.8964" fill="#2F1BC8"/>
    <rect x="827.932" y="298.103" width="18.357" height="18.8964" fill="#2F1BC8"/>
    <rect x="864.645" y="180" width="18.357" height="18.8964" fill="#2F1BC8"/>
    <rect x="864.645" y="219.366" width="18.357" height="18.8964" fill="#2F1BC8"/>
    <rect x="864.645" y="258.734" width="18.357" height="18.8964" fill="#2F1BC8"/>
    <rect x="864.645" y="298.103" width="18.357" height="18.8964" fill="#2F1BC8"/>
</svg>
