<svg width="18" height="20" viewBox="0 0 18 20" fill="none" xmlns="http://www.w3.org/2000/svg">
<path fill-rule="evenodd" clip-rule="evenodd" d="M3.9365 0H7.91794L8.88556 0.509353L9.9276 0H14.1246L11.4297 5.7082L13.5902 6.52957L17.5938 12.3208V19.3891H0.59375V12.3566L4.12652 6.53658L6.42953 5.68678L3.9365 0ZM7.86157 7.34178L5.27339 8.29681L2.41518 13.0055V17.3117H15.7723V13.0413L12.4973 8.30383L9.96674 7.34178H7.86157ZM9.57057 5.26438L11.0752 2.0774H10.3015L8.85813 2.78291L7.51789 2.0774H6.88363L8.28077 5.26438H9.57057Z" fill="white"/>
<path d="M8.7281 15.4046C8.3086 15.3617 7.94296 15.2571 7.63117 15.0908C7.31937 14.9192 7.07561 14.6939 6.89987 14.4149C6.72414 14.136 6.62209 13.8142 6.59375 13.4494C6.59375 13.4441 6.59375 13.4414 6.59375 13.4414C6.59375 13.4414 6.59375 13.4387 6.59375 13.4333H7.77572C7.79273 13.6211 7.84092 13.7874 7.92028 13.9322C7.99965 14.077 8.10736 14.195 8.24341 14.2862C8.37946 14.3774 8.54103 14.4391 8.7281 14.4713V12.8299C8.3086 12.7333 7.95996 12.6234 7.68219 12.5C7.40441 12.3713 7.18899 12.2023 7.03593 11.9931C6.88853 11.7839 6.81484 11.5184 6.81484 11.1966C6.81484 10.7245 6.98774 10.341 7.33355 10.046C7.67935 9.75096 8.1442 9.57663 8.7281 9.52299V9H9.4764V9.52299C10.066 9.58199 10.5308 9.76973 10.871 10.0862C11.2168 10.4027 11.4067 10.805 11.4407 11.2931H10.2927C10.2701 11.0678 10.1879 10.8828 10.0461 10.7379C9.90441 10.5877 9.7145 10.4885 9.4764 10.4402V11.9046C9.94692 12.0011 10.3324 12.1138 10.6329 12.2425C10.939 12.3713 11.1742 12.5483 11.3386 12.7736C11.5087 12.9935 11.5938 13.2805 11.5938 13.6345C11.5938 13.9724 11.503 14.2701 11.3216 14.5276C11.1459 14.7797 10.8965 14.9835 10.5733 15.1391C10.2559 15.2893 9.89024 15.3805 9.4764 15.4126V16H8.7281V15.4046ZM9.4764 14.4954C9.76552 14.4632 9.99511 14.3801 10.1652 14.246C10.3409 14.1065 10.4288 13.9215 10.4288 13.6908C10.4288 13.5621 10.3948 13.4548 10.3267 13.369C10.2644 13.2778 10.1652 13.2027 10.0291 13.1437C9.89307 13.0847 9.70883 13.0284 9.4764 12.9747V14.4954ZM8.7281 10.4322C8.49001 10.4751 8.30293 10.5582 8.16688 10.6816C8.03082 10.7996 7.9628 10.9444 7.9628 11.1161C7.9628 11.277 8.02232 11.4031 8.14137 11.4943C8.26042 11.5854 8.45599 11.6686 8.7281 11.7437V10.4322Z" fill="white"/>
</svg>
