<svg xmlns:dc="http://purl.org/dc/elements/1.1/" xmlns:cc="http://creativecommons.org/ns#" xmlns:rdf="http://www.w3.org/1999/02/22-rdf-syntax-ns#" xmlns:svg="http://www.w3.org/2000/svg" xmlns="http://www.w3.org/2000/svg" xmlns:sodipodi="http://sodipodi.sourceforge.net/DTD/sodipodi-0.dtd" xmlns:inkscape="http://www.inkscape.org/namespaces/inkscape" version="1.1" viewBox="0 0 106.254 127.08375000000001" xml:space="preserve" x="0px" y="0px"><g transform="matrix(-0.82213163,0,0,0.82213163,104.10836,9.5054284)"><g transform="matrix(-0.83502688,0,0,0.83502688,168.1125,-23.806487)"><g><path d="m 95.745929,62.69857 -0.01685,-12.53955 -41.90426,33.033268 c 0.06,3.9 -0.06001,8.394444 -1.5e-5,12.294444 L 95.729075,128.52 95.695368,115.86639 61.301123,89.394063 z"/></g></g><g transform="matrix(0.83502688,0,0,0.83502688,-44.946342,-23.806486)"><g><path d="m 95.745929,62.69857 -0.01685,-12.53955 -41.90426,33.033268 c 0.06,3.9 -0.06001,8.394444 -1.5e-5,12.294444 L 95.729075,128.52 95.695368,115.86639 61.301123,89.394063 z"/></g></g></g><g transform="matrix(-0.86345181,0,0,0.86345181,105.35785,6.2992609)"><path d="m 47.090198,18.003341 -9.116402,0 35.24437,65.812426 10.832403,0"/></g></svg>