<svg width="31" height="31" viewBox="0 0 31 31" fill="none" xmlns="http://www.w3.org/2000/svg">
    <path d="M15 8L23 0V8H15Z" fill="#0A004A"/>
    <path d="M8 16L-3.60619e-07 8L8 8L8 16Z" fill="#0A004A"/>
    <path d="M15 23L8 31L8 23L15 23Z" fill="#0A004A"/>
    <path d="M23 16L31 23L23 23L23 16Z" fill="#0A004A"/>
    <path d="M8 -3.1585e-07L15 8L8 8L8 -3.1585e-07Z" fill="#0A004A"/>
    <path d="M23 31L15 23L23 23L23 31Z" fill="#0A004A"/>
    <path d="M31 8L23 16L23 8L31 8Z" fill="#0A004A"/>
    <path d="M0 23L8 16L8 23H0Z" fill="#0A004A"/>
</svg>
