<svg width="429" height="927" viewBox="0 0 429 927" fill="none" xmlns="http://www.w3.org/2000/svg">
<path d="M433.383 0.70459H322.695V103.476H433.383V0.70459Z" stroke="#929292" stroke-opacity="0.1" stroke-miterlimit="10"/>
<path d="M433.388 103.476V104.181L378.424 155.227L323.066 103.828L323.446 103.476H433.388Z" stroke="#929292" stroke-opacity="0.1" stroke-miterlimit="10"/>
<path d="M323.44 103.476L322.695 104.167V103.476H323.44Z" stroke="#929292" stroke-opacity="0.1" stroke-miterlimit="10"/>
<path d="M433.386 104.182V206.261L378.422 155.228L433.386 104.182Z" stroke="#929292" stroke-opacity="0.1" stroke-miterlimit="10"/>
<path d="M433.386 206.26H323.443L378.422 155.227L433.386 206.26Z" stroke="#929292" stroke-opacity="0.1" stroke-miterlimit="10"/>
<path d="M433.386 206.951V309.03L378.422 257.997L433.386 206.951Z" stroke="#929292" stroke-opacity="0.1" stroke-miterlimit="10"/>
<path d="M433.383 309.03H322.695V206.259H323.44L323.075 206.612L378.419 257.997L433.383 309.03Z" stroke="#929292" stroke-opacity="0.1" stroke-miterlimit="10"/>
<path d="M322.691 309.039L322.691 411.81L433.379 411.81L433.379 309.039L322.691 309.039Z" stroke="#929292" stroke-opacity="0.1" stroke-miterlimit="10"/>
<path d="M433.383 411.801V514.585L323.061 412.154L322.695 412.493V411.801H433.383Z" stroke="#929292" stroke-opacity="0.1" stroke-miterlimit="10"/>
<path d="M433.386 515.277V617.357L378.422 566.323L433.386 515.277Z" stroke="#929292" stroke-opacity="0.1" stroke-miterlimit="10"/>
<path d="M433.386 617.357H323.443L378.422 566.324L433.386 617.357Z" stroke="#929292" stroke-opacity="0.1" stroke-miterlimit="10"/>
<path d="M378.419 566.324L323.44 617.357H322.695V515.278L323.061 514.926L378.419 566.324Z" stroke="#929292" stroke-opacity="0.1" stroke-miterlimit="10"/>
<path d="M323.44 514.585L323.061 514.924L322.695 515.276V514.585H323.44Z" stroke="#929292" stroke-opacity="0.1" stroke-miterlimit="10"/>
<path d="M323.44 617.356L323.075 617.708L322.695 618.047V617.356H323.44Z" stroke="#929292" stroke-opacity="0.1" stroke-miterlimit="10"/>
<path d="M433.389 618.048V720.127H323.461L378.425 669.094L433.389 618.048Z" stroke="#929292" stroke-opacity="0.1" stroke-miterlimit="10"/>
<path d="M322.696 0.70459V1.39634L267.717 52.4425L211.994 0.70459H322.696Z" stroke="#929292" stroke-opacity="0.1" stroke-miterlimit="10"/>
<path d="M322.699 1.39648V103.476H322.685L267.721 52.4426L322.699 1.39648Z" stroke="#929292" stroke-opacity="0.1" stroke-miterlimit="10"/>
<path d="M322.696 103.476H211.994V206.26H322.696V103.476Z" stroke="#929292" stroke-opacity="0.1" stroke-miterlimit="10"/>
<path d="M322.696 206.259H211.994V309.03H322.696V206.259Z" stroke="#929292" stroke-opacity="0.1" stroke-miterlimit="10"/>
<path d="M322.696 309.03V411.801H322.682L267.717 360.768L212.374 309.382L211.994 309.735V309.03H322.696Z" stroke="#929292" stroke-opacity="0.1" stroke-miterlimit="10"/>
<path d="M322.699 514.586H212.742L267.72 463.54L322.699 514.586Z" stroke="#929292" stroke-opacity="0.1" stroke-miterlimit="10"/>
<path d="M212.753 411.801L212.374 412.153L211.994 412.505V411.801H212.753Z" stroke="#929292" stroke-opacity="0.1" stroke-miterlimit="10"/>
<path d="M322.699 515.277V617.357L267.721 566.31L322.699 515.277Z" stroke="#929292" stroke-opacity="0.1" stroke-miterlimit="10"/>
<path d="M322.699 617.357H212.742L267.72 566.311L322.699 617.357Z" stroke="#929292" stroke-opacity="0.1" stroke-miterlimit="10"/>
<path d="M212.739 514.585L212.374 514.924L211.994 515.289V514.585H212.739Z" stroke="#929292" stroke-opacity="0.1" stroke-miterlimit="10"/>
<path d="M322.688 720.128H212.76L267.724 669.095L322.688 720.128Z" stroke="#929292" stroke-opacity="0.1" stroke-miterlimit="10"/>
<path d="M267.717 669.095L212.753 720.128H211.994V618.049L212.374 617.71L267.717 669.095Z" stroke="#929292" stroke-opacity="0.1" stroke-miterlimit="10"/>
<path d="M212.739 617.356L212.374 617.708L211.994 618.047V617.356H212.739Z" stroke="#929292" stroke-opacity="0.1" stroke-miterlimit="10"/>
<path d="M212.001 0.70459V103.476L156.277 51.7377L211.242 0.70459H212.001Z" stroke="#929292" stroke-opacity="0.1" stroke-miterlimit="10"/>
<path d="M211.998 103.476H101.311V0.70459L156.275 51.7377L211.998 103.476Z" stroke="#929292" stroke-opacity="0.1" stroke-miterlimit="10"/>
<path d="M101.32 103.494L101.32 206.265L212.008 206.265L212.008 103.494L101.32 103.494Z" stroke="#929292" stroke-opacity="0.1" stroke-miterlimit="10"/>
<path d="M211.998 206.259V309.017L157.034 257.997L101.69 206.599L101.311 206.951V206.259H211.998Z" stroke="#929292" stroke-opacity="0.1" stroke-miterlimit="10"/>
<path d="M102.07 309.03L101.69 309.382L101.311 309.734V309.03H102.07Z" stroke="#929292" stroke-opacity="0.1" stroke-miterlimit="10"/>
<path d="M102.07 411.801L101.311 412.505V411.801H102.07Z" stroke="#929292" stroke-opacity="0.1" stroke-miterlimit="10"/>
<path d="M102.056 514.585L101.311 515.276V514.585H102.056Z" stroke="#929292" stroke-opacity="0.1" stroke-miterlimit="10"/>
<path d="M102.07 617.356L101.311 618.061V617.356H102.07Z" stroke="#929292" stroke-opacity="0.1" stroke-miterlimit="10"/>
<path d="M212.001 618.048V720.127H210.497L156.277 669.786L212.001 618.048Z" stroke="#929292" stroke-opacity="0.1" stroke-miterlimit="10"/>
<path d="M210.497 720.127H102.059L156.278 669.786L210.497 720.127Z" stroke="#929292" stroke-opacity="0.1" stroke-miterlimit="10"/>
<path d="M-9.38281 0.715897L-9.38281 103.487L101.305 103.487L101.305 0.715897L-9.38281 0.715897Z" stroke="#929292" stroke-opacity="0.1" stroke-miterlimit="10"/>
<path d="M101.316 103.476H-9.37109V206.26H101.316V103.476Z" stroke="#929292" stroke-opacity="0.1" stroke-miterlimit="10"/>
<path d="M46.3522 257.997L-8.62605 309.03H-9.37109V206.259L46.3522 257.997Z" stroke="#929292" stroke-opacity="0.1" stroke-miterlimit="10"/>
<path d="M101.306 309.031H-8.63672L46.3416 257.998L101.306 309.031Z" stroke="#929292" stroke-opacity="0.1" stroke-miterlimit="10"/>
<path d="M101.308 206.951V309.03L46.3438 257.997L101.308 206.951Z" stroke="#929292" stroke-opacity="0.1" stroke-miterlimit="10"/>
<path d="M46.3522 360.768L-8.612 411.801H-9.37109V309.722L-8.99155 309.383L46.3522 360.768Z" stroke="#929292" stroke-opacity="0.1" stroke-miterlimit="10"/>
<path d="M46.3522 463.539L-8.62605 514.585H-9.37109V412.506L-8.99155 412.154L46.3522 463.539Z" stroke="#929292" stroke-opacity="0.1" stroke-miterlimit="10"/>
<path d="M101.316 514.585V515.277L45.5932 567.015L-9.37109 515.995V515.277L-8.62605 514.585H101.316Z" stroke="#929292" stroke-opacity="0.1" stroke-miterlimit="10"/>
<path d="M45.5931 567.015L-8.62605 617.356H-9.37109V515.995L45.5931 567.015Z" stroke="#929292" stroke-opacity="0.1" stroke-miterlimit="10"/>
<path d="M45.5931 669.799L-8.612 720.127H-9.37109V618.766L45.5931 669.799Z" stroke="#929292" stroke-opacity="0.1" stroke-miterlimit="10"/>
<path d="M100.937 618.414L45.5931 669.799L-9.37109 618.766V618.048L-8.62605 617.356H99.7983L100.937 618.414Z" stroke="#929292" stroke-opacity="0.1" stroke-miterlimit="10"/>
<path d="M101.315 617.356V618.753L100.936 618.414L99.7969 617.356H101.315Z" stroke="#929292" stroke-opacity="0.1" stroke-miterlimit="10"/>
<path d="M433.383 103.489L322.695 0.70459" stroke="#929292" stroke-opacity="0.1" stroke-miterlimit="10"/>
<path d="M322.688 103.476H212.76L267.724 52.4429L322.688 103.476Z" stroke="#929292" stroke-opacity="0.1" stroke-miterlimit="10"/>
<path d="M322.688 103.476L322.702 103.489L323.067 103.828" stroke="#929292" stroke-opacity="0.1" stroke-miterlimit="10"/>
<path d="M212.002 721.524L210.498 720.127" stroke="#929292" stroke-opacity="0.1" stroke-miterlimit="10"/>
<path d="M100.555 0L100.934 0.351984L101.314 0.703968" stroke="#929292" stroke-opacity="0.1" stroke-miterlimit="10"/>
<path d="M433.388 206.259V206.951L378.424 257.997L323.08 206.612L323.446 206.259H433.388Z" stroke="#929292" stroke-opacity="0.1" stroke-miterlimit="10"/>
<path d="M211.994 103.476L212.374 103.828L267.717 155.214L322.696 206.26L323.075 206.612" stroke="#929292" stroke-opacity="0.1" stroke-miterlimit="10"/>
<path d="M378.419 669.095L323.454 720.128H322.695V618.049L323.075 617.71L378.419 669.095Z" stroke="#929292" stroke-opacity="0.1" stroke-miterlimit="10"/>
<path d="M323.44 720.831L323.061 720.479L322.695 720.127" stroke="#929292" stroke-opacity="0.1" stroke-miterlimit="10"/>
<path d="M322.701 617.356V618.048L267.723 669.094L212.379 617.709L212.744 617.356H322.701Z" stroke="#929292" stroke-opacity="0.1" stroke-miterlimit="10"/>
<path d="M101.314 411.801V412.506L46.3497 463.539L-8.99414 412.154L-8.61459 411.801H101.314Z" stroke="#929292" stroke-opacity="0.1" stroke-miterlimit="10"/>
<path d="M212.374 617.709L211.994 617.356" stroke="#929292" stroke-opacity="0.1" stroke-miterlimit="10"/>
<path d="M101.694 514.924L101.328 514.585" stroke="#929292" stroke-opacity="0.1" stroke-miterlimit="10"/>
<path d="M433.393 411.801L378.429 360.768L323.085 309.383L322.706 309.03L267.741 257.997L212.384 206.599L212.018 206.259H212.004V206.246L157.04 155.213L101.316 103.476L100.937 103.123L45.5931 51.7376L-9.37109 0.70459" stroke="#929292" stroke-opacity="0.1" stroke-miterlimit="10"/>
<path d="M-9.37109 103.476L45.5932 154.509L101.316 206.247V206.26H101.331L101.696 206.599" stroke="#929292" stroke-opacity="0.1" stroke-miterlimit="10"/>
<path d="M211.994 309.03H212.008L212.374 309.382" stroke="#929292" stroke-opacity="0.1" stroke-miterlimit="10"/>
<path d="M322.688 411.802H212.76L267.724 360.769L322.688 411.802Z" stroke="#929292" stroke-opacity="0.1" stroke-miterlimit="10"/>
<path d="M323.061 412.154L322.695 411.815" stroke="#929292" stroke-opacity="0.1" stroke-miterlimit="10"/>
<path d="M433.386 514.586H323.443L378.408 463.54L433.386 514.586Z" stroke="#929292" stroke-opacity="0.1" stroke-miterlimit="10"/>
<path d="M433.388 514.585V515.277L378.424 566.323L323.066 514.925L323.446 514.585H433.388Z" stroke="#929292" stroke-opacity="0.1" stroke-miterlimit="10"/>
<path d="M212.374 412.153L211.994 411.801" stroke="#929292" stroke-opacity="0.1" stroke-miterlimit="10"/>
<path d="M323.061 514.924L322.695 514.585" stroke="#929292" stroke-opacity="0.1" stroke-miterlimit="10"/>
<path d="M101.69 309.382L101.311 309.03" stroke="#929292" stroke-opacity="0.1" stroke-miterlimit="10"/>
<path d="M433.388 617.356V618.048L378.424 669.094L323.08 617.709L323.446 617.356H433.388Z" stroke="#929292" stroke-opacity="0.1" stroke-miterlimit="10"/>
<path d="M433.386 720.128L378.422 669.095" stroke="#929292" stroke-opacity="0.1" stroke-miterlimit="10"/>
<path d="M323.075 617.709L322.695 617.356" stroke="#929292" stroke-opacity="0.1" stroke-miterlimit="10"/>
<path d="M101.69 412.153L101.311 411.801" stroke="#929292" stroke-opacity="0.1" stroke-miterlimit="10"/>
<path d="M212.377 514.924L212.012 514.585" stroke="#929292" stroke-opacity="0.1" stroke-miterlimit="10"/>
<path d="M156.275 669.785L102.056 720.127H101.311V618.752L156.275 669.785Z" stroke="#929292" stroke-opacity="0.1" stroke-miterlimit="10"/>
<path d="M101.311 721.524L100.931 721.171L99.8066 720.127" stroke="#929292" stroke-opacity="0.1" stroke-miterlimit="10"/>
<path d="M323.454 720.127L323.061 720.479L322.695 720.831" stroke="#929292" stroke-opacity="0.1" stroke-miterlimit="10"/>
<path d="M322.699 618.048V720.127H322.685L267.721 669.094L322.699 618.048Z" stroke="#929292" stroke-opacity="0.1" stroke-miterlimit="10"/>
<path d="M212.753 720.127L211.994 720.831" stroke="#929292" stroke-opacity="0.1" stroke-miterlimit="10"/>
<path d="M211.239 0.70459L156.275 51.7376L101.311 0.70459H211.239Z" stroke="#929292" stroke-opacity="0.1" stroke-miterlimit="10"/>
<path d="M-9.39062 205.555L-9.37657 205.542L45.5877 154.509L100.552 103.476L100.931 103.123L101.311 102.771L156.275 51.7378" stroke="#929292" stroke-opacity="0.1" stroke-miterlimit="10"/>
<path d="M211.995 0L211.236 0.703968" stroke="#929292" stroke-opacity="0.1" stroke-miterlimit="10"/>
<path d="M322.701 514.585V515.277L267.723 566.31L212.379 514.925L212.744 514.585H322.701Z" stroke="#929292" stroke-opacity="0.1" stroke-miterlimit="10"/>
<path d="M267.717 566.311L212.739 617.357H211.994V515.291L212.374 514.926L267.717 566.311Z" stroke="#929292" stroke-opacity="0.1" stroke-miterlimit="10"/>
<path d="M211.997 515.29V617.356L157.033 566.323L211.997 515.29Z" stroke="#929292" stroke-opacity="0.1" stroke-miterlimit="10"/>
<path d="M211.998 617.356V618.048L156.275 669.786L101.311 618.753V618.061L102.07 617.356H211.998Z" stroke="#929292" stroke-opacity="0.1" stroke-miterlimit="10"/>
<path d="M100.555 721.524L100.934 721.171L102.059 720.127" stroke="#929292" stroke-opacity="0.1" stroke-miterlimit="10"/>
<path d="M433.392 412.506L378.414 463.539" stroke="#929292" stroke-opacity="0.1" stroke-miterlimit="10"/>
<path d="M267.717 52.4425L212.753 103.476H211.994V0.70459L267.717 52.4425Z" stroke="#929292" stroke-opacity="0.1" stroke-miterlimit="10"/>
<path d="M101.316 206.259V206.951L46.3523 257.997L-9.37109 206.259H101.316Z" stroke="#929292" stroke-opacity="0.1" stroke-miterlimit="10"/>
<path d="M101.691 206.599L102.057 206.26L157.035 155.214L211.999 104.181L212.379 103.828L212.759 103.476" stroke="#929292" stroke-opacity="0.1" stroke-miterlimit="10"/>
<path d="M101.314 309.03V309.735L46.3497 360.768L-8.99414 309.382L-8.62865 309.03H101.314Z" stroke="#929292" stroke-opacity="0.1" stroke-miterlimit="10"/>
<path d="M323.44 0.70459L323.075 1.05658L322.695 1.39553" stroke="#929292" stroke-opacity="0.1" stroke-miterlimit="10"/>
<path d="M378.405 463.539L323.44 514.585H322.695V412.493L323.061 412.154L378.405 463.539Z" stroke="#929292" stroke-opacity="0.1" stroke-miterlimit="10"/>
<path d="M322.699 412.493V514.585L267.721 463.539L322.699 412.493Z" stroke="#929292" stroke-opacity="0.1" stroke-miterlimit="10"/>
<path d="M99.8091 720.127H-8.61523L45.5899 669.799L99.8091 720.127Z" stroke="#929292" stroke-opacity="0.1" stroke-miterlimit="10"/>
<path d="M101.311 618.753V720.127H99.8071L45.5879 669.799L100.932 618.414L101.311 618.753Z" stroke="#929292" stroke-opacity="0.1" stroke-miterlimit="10"/>
<path d="M101.309 618.061L100.93 618.413" stroke="#929292" stroke-opacity="0.1" stroke-miterlimit="10"/>
<path d="M322.701 411.801V412.493L267.723 463.539L212.379 412.154L212.758 411.801H322.701Z" stroke="#929292" stroke-opacity="0.1" stroke-miterlimit="10"/>
<path d="M267.717 463.539L212.739 514.585H211.994V412.506L212.374 412.154L267.717 463.539Z" stroke="#929292" stroke-opacity="0.1" stroke-miterlimit="10"/>
<path d="M323.066 412.154L323.446 411.801L378.424 360.768L433.388 309.722" stroke="#929292" stroke-opacity="0.1" stroke-miterlimit="10"/>
<path d="M267.717 360.768L212.753 411.801H211.994V309.735L212.374 309.383L267.717 360.768Z" stroke="#929292" stroke-opacity="0.1" stroke-miterlimit="10"/>
<path d="M378.422 257.998L323.444 309.031L323.079 309.383L322.699 309.722L267.721 360.768" stroke="#929292" stroke-opacity="0.1" stroke-miterlimit="10"/>
<path d="M211.999 514.585V515.29L157.035 566.323L101.691 514.925L102.057 514.585H211.999Z" stroke="#929292" stroke-opacity="0.1" stroke-miterlimit="10"/>
<path d="M211.995 617.357H102.066L157.031 566.324L211.995 617.357Z" stroke="#929292" stroke-opacity="0.1" stroke-miterlimit="10"/>
<path d="M157.034 566.324L102.07 617.357H101.311V515.278L101.69 514.926L157.034 566.324Z" stroke="#929292" stroke-opacity="0.1" stroke-miterlimit="10"/>
<path d="M101.311 515.277V617.357H99.793L45.5879 567.015L101.311 515.277Z" stroke="#929292" stroke-opacity="0.1" stroke-miterlimit="10"/>
<path d="M99.7876 617.357H-8.63672L45.5825 567.015L99.7876 617.357Z" stroke="#929292" stroke-opacity="0.1" stroke-miterlimit="10"/>
<path d="M211.997 412.506V514.572L157.033 463.539L211.997 412.506Z" stroke="#929292" stroke-opacity="0.1" stroke-miterlimit="10"/>
<path d="M211.999 411.801V412.506L157.035 463.539L101.691 412.154L102.071 411.801H211.999Z" stroke="#929292" stroke-opacity="0.1" stroke-miterlimit="10"/>
<path d="M157.034 463.539L102.056 514.585H101.311V412.506L101.69 412.154L157.034 463.539Z" stroke="#929292" stroke-opacity="0.1" stroke-miterlimit="10"/>
<path d="M212.001 514.573V514.586H102.059L157.037 463.54L212.001 514.573Z" stroke="#929292" stroke-opacity="0.1" stroke-miterlimit="10"/>
<path d="M101.306 514.573V514.586H-8.63672L46.3416 463.54L101.306 514.573Z" stroke="#929292" stroke-opacity="0.1" stroke-miterlimit="10"/>
<path d="M101.308 412.506V514.572L46.3438 463.539L101.308 412.506Z" stroke="#929292" stroke-opacity="0.1" stroke-miterlimit="10"/>
<path d="M323.081 206.612L322.701 206.951L267.737 257.997L212.758 309.03L212.379 309.383" stroke="#929292" stroke-opacity="0.1" stroke-miterlimit="10"/>
<path d="M378.419 155.226L323.44 206.259H322.695V104.167L323.061 103.828L378.419 155.226Z" stroke="#929292" stroke-opacity="0.1" stroke-miterlimit="10"/>
<path d="M157.034 257.998L102.07 309.031H101.311V206.952L101.69 206.599L157.034 257.998Z" stroke="#929292" stroke-opacity="0.1" stroke-miterlimit="10"/>
<path d="M322.699 104.167L267.721 155.214L212.742 206.26L212.377 206.599L211.997 206.964L157.033 257.998" stroke="#929292" stroke-opacity="0.1" stroke-miterlimit="10"/>
<path d="M211.995 309.018V309.031H102.066L157.031 257.998L211.995 309.018Z" stroke="#929292" stroke-opacity="0.1" stroke-miterlimit="10"/>
<path d="M211.999 309.03V309.735L157.035 360.768L101.691 309.382L102.071 309.03H211.999Z" stroke="#929292" stroke-opacity="0.1" stroke-miterlimit="10"/>
<path d="M211.997 309.735V411.802L157.033 360.768L211.997 309.735Z" stroke="#929292" stroke-opacity="0.1" stroke-miterlimit="10"/>
<path d="M157.034 360.768L102.07 411.801H101.311V309.735L101.69 309.383L157.034 360.768Z" stroke="#929292" stroke-opacity="0.1" stroke-miterlimit="10"/>
<path d="M211.995 411.802H102.066L157.031 360.769L211.995 411.802Z" stroke="#929292" stroke-opacity="0.1" stroke-miterlimit="10"/>
<path d="M101.313 411.802H-8.61523L46.349 360.769L101.313 411.802Z" stroke="#929292" stroke-opacity="0.1" stroke-miterlimit="10"/>
<path d="M101.308 309.735V411.802L46.3438 360.768L101.308 309.735Z" stroke="#929292" stroke-opacity="0.1" stroke-miterlimit="10"/>
<path d="M433.386 1.39648L378.422 52.4426L323.443 103.476" stroke="#929292" stroke-opacity="0.1" stroke-miterlimit="10"/>
<path d="M101.316 0.0126953L-9.37109 102.784" stroke="#929292" stroke-opacity="0.1" stroke-miterlimit="10"/>
<path d="M100.555 766.031L100.934 766.383L101.314 766.735" stroke="#929292" stroke-opacity="0.1" stroke-miterlimit="10"/>
<path d="M211.995 766.031L211.236 766.735" stroke="#929292" stroke-opacity="0.1" stroke-miterlimit="10"/>
<path d="M323.44 766.736L323.075 767.088L322.695 767.427" stroke="#929292" stroke-opacity="0.1" stroke-miterlimit="10"/>
<path d="M433.386 720.753V822.833L378.422 771.8L433.386 720.753Z" stroke="#929292" stroke-opacity="0.1" stroke-miterlimit="10"/>
<path d="M433.386 822.832H323.443L378.422 771.799L433.386 822.832Z" stroke="#929292" stroke-opacity="0.1" stroke-miterlimit="10"/>
<path d="M378.419 771.8L323.44 822.833H322.695V720.754L323.061 720.402L378.419 771.8Z" stroke="#929292" stroke-opacity="0.1" stroke-miterlimit="10"/>
<path d="M323.44 822.833L323.075 823.185L322.695 823.524V822.833H323.44Z" stroke="#929292" stroke-opacity="0.1" stroke-miterlimit="10"/>
<path d="M433.389 823.524V925.603H323.461L378.425 874.57L433.389 823.524Z" stroke="#929292" stroke-opacity="0.1" stroke-miterlimit="10"/>
<path d="M322.699 720.753V822.833L267.721 771.786L322.699 720.753Z" stroke="#929292" stroke-opacity="0.1" stroke-miterlimit="10"/>
<path d="M322.699 822.834H212.742L267.72 771.788L322.699 822.834Z" stroke="#929292" stroke-opacity="0.1" stroke-miterlimit="10"/>
<path d="M322.688 925.605H212.76L267.724 874.572L322.688 925.605Z" stroke="#929292" stroke-opacity="0.1" stroke-miterlimit="10"/>
<path d="M267.717 874.571L212.753 925.604H211.994V823.525L212.374 823.186L267.717 874.571Z" stroke="#929292" stroke-opacity="0.1" stroke-miterlimit="10"/>
<path d="M212.739 822.833L212.374 823.185L211.994 823.524V822.833H212.739Z" stroke="#929292" stroke-opacity="0.1" stroke-miterlimit="10"/>
<path d="M102.07 822.833L101.311 823.537V822.833H102.07Z" stroke="#929292" stroke-opacity="0.1" stroke-miterlimit="10"/>
<path d="M212.001 823.524V925.603H210.497L156.277 875.262L212.001 823.524Z" stroke="#929292" stroke-opacity="0.1" stroke-miterlimit="10"/>
<path d="M210.497 925.604H102.059L156.278 875.263L210.497 925.604Z" stroke="#929292" stroke-opacity="0.1" stroke-miterlimit="10"/>
<path d="M101.316 720.063V720.755L45.5932 772.493L-9.37109 721.473V720.755L-8.62605 720.063H101.316Z" stroke="#929292" stroke-opacity="0.1" stroke-miterlimit="10"/>
<path d="M45.5931 772.492L-8.62605 822.833H-9.37109V721.472L45.5931 772.492Z" stroke="#929292" stroke-opacity="0.1" stroke-miterlimit="10"/>
<path d="M45.5931 875.275L-8.612 925.604H-9.37109V824.242L45.5931 875.275Z" stroke="#929292" stroke-opacity="0.1" stroke-miterlimit="10"/>
<path d="M100.937 823.89L45.5931 875.275L-9.37109 824.242V823.524L-8.62605 822.833H99.7983L100.937 823.89Z" stroke="#929292" stroke-opacity="0.1" stroke-miterlimit="10"/>
<path d="M101.315 822.833V824.229L100.936 823.89L99.7969 822.833H101.315Z" stroke="#929292" stroke-opacity="0.1" stroke-miterlimit="10"/>
<path d="M212.002 927L210.498 925.604" stroke="#929292" stroke-opacity="0.1" stroke-miterlimit="10"/>
<path d="M378.419 874.571L323.454 925.604H322.695V823.525L323.075 823.186L378.419 874.571Z" stroke="#929292" stroke-opacity="0.1" stroke-miterlimit="10"/>
<path d="M323.44 926.308L323.061 925.956L322.695 925.604" stroke="#929292" stroke-opacity="0.1" stroke-miterlimit="10"/>
<path d="M322.701 822.833V823.524L267.723 874.57L212.379 823.185L212.744 822.833H322.701Z" stroke="#929292" stroke-opacity="0.1" stroke-miterlimit="10"/>
<path d="M212.374 823.185L211.994 822.833" stroke="#929292" stroke-opacity="0.1" stroke-miterlimit="10"/>
<path d="M433.388 720.063V720.755L378.424 771.801L323.066 720.402L323.446 720.063H433.388Z" stroke="#929292" stroke-opacity="0.1" stroke-miterlimit="10"/>
<path d="M433.388 822.833V823.524L378.424 874.57L323.08 823.185L323.446 822.833H433.388Z" stroke="#929292" stroke-opacity="0.1" stroke-miterlimit="10"/>
<path d="M433.386 925.605L378.422 874.572" stroke="#929292" stroke-opacity="0.1" stroke-miterlimit="10"/>
<path d="M323.075 823.185L322.695 822.833" stroke="#929292" stroke-opacity="0.1" stroke-miterlimit="10"/>
<path d="M156.275 875.263L102.056 925.604H101.311V824.229L156.275 875.263Z" stroke="#929292" stroke-opacity="0.1" stroke-miterlimit="10"/>
<path d="M101.311 927L100.931 926.648L99.8066 925.604" stroke="#929292" stroke-opacity="0.1" stroke-miterlimit="10"/>
<path d="M323.454 925.604L323.061 925.956L322.695 926.308" stroke="#929292" stroke-opacity="0.1" stroke-miterlimit="10"/>
<path d="M322.699 823.524V925.603H322.685L267.721 874.57L322.699 823.524Z" stroke="#929292" stroke-opacity="0.1" stroke-miterlimit="10"/>
<path d="M212.753 925.604L211.994 926.308" stroke="#929292" stroke-opacity="0.1" stroke-miterlimit="10"/>
<path d="M322.701 720.063V720.755L267.723 771.788L212.379 720.402L212.744 720.063H322.701Z" stroke="#929292" stroke-opacity="0.1" stroke-miterlimit="10"/>
<path d="M267.717 771.787L212.739 822.833H211.994V720.767L212.374 720.402L267.717 771.787Z" stroke="#929292" stroke-opacity="0.1" stroke-miterlimit="10"/>
<path d="M211.997 720.766V822.832L157.033 771.799L211.997 720.766Z" stroke="#929292" stroke-opacity="0.1" stroke-miterlimit="10"/>
<path d="M211.998 822.833V823.524L156.275 875.262L101.311 824.229V823.537L102.07 822.833H211.998Z" stroke="#929292" stroke-opacity="0.1" stroke-miterlimit="10"/>
<path d="M100.555 927L100.934 926.648L102.059 925.604" stroke="#929292" stroke-opacity="0.1" stroke-miterlimit="10"/>
<path d="M99.8091 925.605H-8.61523L45.5899 875.276L99.8091 925.605Z" stroke="#929292" stroke-opacity="0.1" stroke-miterlimit="10"/>
<path d="M101.311 824.23V925.604H99.8071L45.5879 875.276L100.932 823.891L101.311 824.23Z" stroke="#929292" stroke-opacity="0.1" stroke-miterlimit="10"/>
<path d="M101.309 823.537L100.93 823.889" stroke="#929292" stroke-opacity="0.1" stroke-miterlimit="10"/>
<path d="M211.999 720.063V720.768L157.035 771.801L101.691 720.402L102.057 720.063H211.999Z" stroke="#929292" stroke-opacity="0.1" stroke-miterlimit="10"/>
<path d="M211.995 822.832H102.066L157.031 771.799L211.995 822.832Z" stroke="#929292" stroke-opacity="0.1" stroke-miterlimit="10"/>
<path d="M157.034 771.8L102.07 822.833H101.311V720.754L101.69 720.402L157.034 771.8Z" stroke="#929292" stroke-opacity="0.1" stroke-miterlimit="10"/>
<path d="M101.311 720.753V822.833H99.793L45.5879 772.491L101.311 720.753Z" stroke="#929292" stroke-opacity="0.1" stroke-miterlimit="10"/>
<path d="M99.7876 822.834H-8.63672L45.5825 772.492L99.7876 822.834Z" stroke="#929292" stroke-opacity="0.1" stroke-miterlimit="10"/>
</svg>
