<svg width="34" height="28" viewBox="0 0 34 28" fill="none" xmlns="http://www.w3.org/2000/svg">
<path fill-rule="evenodd" clip-rule="evenodd" d="M7.89754 0H26.0961L32.9825 8.25553H33.3146V8.65368L34 9.47536L33.3146 10.2152V10.6143H32.9449L16.8385 28L0 9.46769L7.89754 0ZM29.8827 8.25553L24.9638 2.35872H22.6266L24.3375 8.25553H29.8827ZM24.2556 10.6143H29.7027L20.2611 20.8057L24.2556 10.6143ZM21.8464 8.25553L20.1354 2.35872H14.1893L12.6922 8.25553H21.8464ZM12.82 10.6143H21.6881L16.9296 22.755L12.82 10.6143ZM10.2232 8.25553L11.7203 2.35872H9.02976L4.1109 8.25553H10.2232ZM4.25586 10.6143H10.2951L13.8809 21.2076L4.25586 10.6143Z" fill="white"/>
</svg>
