<svg width="17" height="20" viewBox="0 0 17 20" fill="none" xmlns="http://www.w3.org/2000/svg">
<path fill-rule="evenodd" clip-rule="evenodd" d="M0.297589 19.2308L0.297589 1.69238L2.96387 1.69238L2.96387 19.2308H0.297589Z" fill="white"/>
<path fill-rule="evenodd" clip-rule="evenodd" d="M13.6306 19.2202L13.6306 0.410156L16.2969 0.410156V19.2202H13.6306Z" fill="white"/>
<path fill-rule="evenodd" clip-rule="evenodd" d="M15.5835 3.04126H0.296875V0.412109H15.5835V3.04126Z" fill="white"/>
<path fill-rule="evenodd" clip-rule="evenodd" d="M11.8552 7.82698H4.74512V6.07422H11.8552V7.82698Z" fill="white"/>
<path fill-rule="evenodd" clip-rule="evenodd" d="M11.8552 11.3319H4.74512V9.5791H11.8552V11.3319Z" fill="white"/>
<path fill-rule="evenodd" clip-rule="evenodd" d="M5.62985 16.5905L2.96357 19.2885L2.00879 18.3711L4.67507 15.6731L5.62985 16.5905Z" fill="white"/>
<path fill-rule="evenodd" clip-rule="evenodd" d="M6.52048 19.2198L3.8542 16.5907L4.79688 15.6611L7.46315 18.2903L6.52048 19.2198Z" fill="white"/>
<path fill-rule="evenodd" clip-rule="evenodd" d="M12.7373 16.5905L10.071 19.2885L9.11621 18.3711L11.7825 15.6731L12.7373 16.5905Z" fill="white"/>
<path fill-rule="evenodd" clip-rule="evenodd" d="M13.6308 19.2198L10.9646 16.5907L11.9072 15.6611L14.5735 18.2903L13.6308 19.2198Z" fill="white"/>
<path fill-rule="evenodd" clip-rule="evenodd" d="M9.18375 16.593L6.55048 19.2426L5.59832 18.3225L8.23159 15.6729L9.18375 16.593Z" fill="white"/>
<path fill-rule="evenodd" clip-rule="evenodd" d="M10.0722 19.2198L7.40596 16.5907L8.34863 15.6611L11.0149 18.2903L10.0722 19.2198Z" fill="white"/>
</svg>
