<svg width="29" height="31" viewBox="0 0 29 31" fill="none" xmlns="http://www.w3.org/2000/svg">
    <path fill-rule="evenodd" clip-rule="evenodd" d="M3.625 4.03408H0V0.981445H6.67763V4.92163H29V17.2196L20.6577 25.4237H3.625V4.03408ZM6.67763 7.97426V22.371H19.4081L25.9474 15.9402V7.97426H6.67763Z" fill="#0A004A"/>
    <path fill-rule="evenodd" clip-rule="evenodd" d="M12.5922 14.1659H10.3027V11.1133H12.5922V14.1659Z" fill="#0A004A"/>
    <path fill-rule="evenodd" clip-rule="evenodd" d="M12.5922 19.2304H10.3027V16.1777H12.5922V19.2304Z" fill="#0A004A"/>
    <path fill-rule="evenodd" clip-rule="evenodd" d="M18.3168 14.1659H16.0273V11.1133H18.3168V14.1659Z" fill="#0A004A"/>
    <path fill-rule="evenodd" clip-rule="evenodd" d="M18.3168 19.2304H16.0273V16.1777H18.3168V19.2304Z" fill="#0A004A"/>
    <path fill-rule="evenodd" clip-rule="evenodd" d="M19.4613 30.4901H17.1719V27.4375H19.4613V30.4901Z" fill="#0A004A"/>
    <path fill-rule="evenodd" clip-rule="evenodd" d="M9.15861 30.4901H6.86914V27.4375H9.15861V30.4901Z" fill="#0A004A"/>
    <path fill-rule="evenodd" clip-rule="evenodd" d="M24.0414 14.1659H21.752V11.1133H24.0414V14.1659Z" fill="#0A004A"/>
</svg>
