<svg width="181" height="70" viewBox="0 0 181 70" fill="none" xmlns="http://www.w3.org/2000/svg">
<path d="M11.2565 9.47255H14.8752V47.3628H11.2565V9.47255ZM0 0V69.6491H11.2565V56.8329H20.7023L26.129 51.8186V5.01431L20.7023 0H0Z" fill="black"/>
<path d="M46.0295 0V47.3628H42.4108V0H31.1543V51.8186L36.5837 56.8329H38.5932V69.6491H49.8496V56.8329H51.8592L57.2859 51.8186V0H46.0295Z" fill="black"/>
<path d="M62.3105 0V69.6491H84.4231V59.6205H73.567V0H62.3105Z" fill="black"/>
<path d="M99.1959 10.031H102.815V59.6205H99.1959V10.031ZM93.3662 0L87.9395 4.82816V64.8185L93.3662 69.6467H108.843L114.068 64.8185V4.83056L108.843 0.00242006H93.3662V0Z" fill="black"/>
<path d="M119.096 69.6491V0H133.769L138.694 41.2315C139.097 44.7613 139.497 48.1026 139.798 52.469L141.206 52.2828C140.502 46.9904 140.201 44.2028 139.999 38.6324L138.895 0H149.749V69.6491H135.075L130.151 28.4177C129.648 24.3317 129.347 21.4523 129.047 17.1802L127.639 17.3664C128.343 22.6611 128.644 25.4463 128.845 31.0167L129.952 69.6491H119.096Z" fill="black"/>
<path d="M180.907 23.2172H169.651V10.0286H166.032V21.7303L180.907 44.4833V64.6348L175.881 69.6491H160.202L154.775 64.6348V46.4319H166.032V59.6205H169.651V48.0107L154.775 25.2601V5.01431L160.202 0H175.478L180.907 5.01431V23.2172Z" fill="black"/>
</svg>
