<svg width="50" height="52" viewBox="0 0 50 52" fill="none" xmlns="http://www.w3.org/2000/svg">
<ellipse cx="25" cy="25.813" rx="25" ry="25.813" fill="white"/>
<path d="M25.197 7.84766L42.7969 26.0199L25.197 26.0199L25.197 7.84766Z" fill="#EF4421"/>
<path d="M34.0006 26.0192L25.1992 16.9316L16.3979 26.0192L25.1992 35.1068L34.0006 26.0192Z" fill="white"/>
<path d="M42.7969 26.0195L25.197 44.1917L25.197 26.0195L42.7969 26.0195Z" fill="#F36B50"/>
<path d="M34.0006 26.0192L25.1992 16.9316L16.3979 26.0192L25.1992 35.1068L34.0006 26.0192Z" fill="white"/>
<path d="M25.1992 44.1917L7.59937 26.0195L25.1992 26.0195L25.1992 44.1917Z" fill="#F7937F"/>
<path d="M34.0006 26.0192L25.1992 16.9316L16.3979 26.0192L25.1992 35.1068L34.0006 26.0192Z" fill="white"/>
<path d="M7.59936 26.0199L25.1992 7.84766L25.1992 26.0199L7.59936 26.0199Z" fill="#FBBAAD"/>
<path d="M34.0006 26.0192L25.1992 16.9316L16.3979 26.0192L25.1992 35.1068L34.0006 26.0192Z" fill="white"/>
</svg>
