<svg width="117" height="23" viewBox="0 0 117 23" fill="none" xmlns="http://www.w3.org/2000/svg">
<path d="M8.07735 0.499998H0.397351V3.74H2.55735V23H5.91735V3.74H8.07735V0.499998ZM16.3184 0.499998H10.1384V23H13.4984V13.13H14.5784V23H17.9384V13.04L16.6484 11.75L17.9384 10.46V2.12L16.3184 0.499998ZM13.4984 3.56H14.5784V10.22H13.4984V3.56ZM29.0955 23L27.4155 0.499998H21.6555L19.9755 23H23.4855C23.5455 21.65 23.6355 20.3 23.6955 18.95H25.3755C25.4355 20.3 25.5255 21.65 25.5855 23H29.0955ZM23.8755 15.71L24.3255 6.77C24.3555 5.93 24.3255 5.12 24.3255 4.28H24.7455C24.7455 5.12 24.7155 5.93 24.7455 6.77L25.1955 15.71H23.8755ZM31.152 0.499998V23H37.392L38.952 21.44V2.06L37.392 0.499998H31.152ZM35.592 19.76H34.512V3.74H35.592V19.76ZM48.0391 0.499998H41.4391V23H48.0391V19.76H44.7991V13.37H47.4991V10.13H44.7991V3.74H48.0391V0.499998ZM61.0156 0.499998H54.8356V23H58.1956V13.13H59.2756V23H62.6356V13.04L61.3456 11.75L62.6356 10.46V2.12L61.0156 0.499998ZM58.1956 3.56H59.2756V10.22H58.1956V3.56ZM71.7227 0.499998H65.1227V23H71.7227V19.76H68.4827V13.37H71.1827V10.13H68.4827V3.74H71.7227V0.499998ZM81.7157 2.12L80.0957 0.499998H75.5357L73.9157 2.12V21.38L75.5357 23H80.0957L81.7157 21.38V13.34H78.3557V19.76H77.2757V3.74H78.3557V10.16H81.7157V2.12ZM90.8028 0.499998H84.2028V23H90.8028V19.76H87.5628V13.37H90.2628V10.13H87.5628V3.74H90.8028V0.499998ZM96.3558 23V0.499998H92.9958V23H96.3558ZM98.8591 0.499998V23H102.219V18.86H105.039L106.659 17.24V2.12L105.039 0.499998H98.8591ZM103.299 15.8H102.219V3.56H103.299V15.8ZM116.083 0.499998H108.403V3.74H110.563V23H113.923V3.74H116.083V0.499998Z" fill="white"/>
</svg>
