<svg width="195" height="23" viewBox="0 0 195 23" fill="none" xmlns="http://www.w3.org/2000/svg">
<path d="M8.61867 0.499998H0.938672V3.74H3.09867V23H6.45867V3.74H8.61867V0.499998ZM16.8597 0.499998H10.6797V23H14.0397V13.13H15.1197V23H18.4797V13.04L17.1897 11.75L18.4797 10.46V2.12L16.8597 0.499998ZM14.0397 3.56H15.1197V10.22H14.0397V3.56ZM29.6368 23L27.9568 0.499998H22.1968L20.5168 23H24.0268C24.0868 21.65 24.1768 20.3 24.2368 18.95H25.9168C25.9768 20.3 26.0668 21.65 26.1268 23H29.6368ZM24.4168 15.71L24.8668 6.77C24.8968 5.93 24.8668 5.12 24.8668 4.28H25.2868C25.2868 5.12 25.2568 5.93 25.2868 6.77L25.7368 15.71H24.4168ZM34.9334 23L34.6034 10.52C34.5434 8.72 34.4534 7.82 34.2434 6.11L34.6634 6.05C34.7534 7.43 34.8434 8.36 34.9934 9.68L36.4634 23H40.8434V0.499998H37.6034L37.9334 12.98C37.9934 14.78 38.0834 15.68 38.2934 17.39L37.8734 17.45C37.7834 16.04 37.6634 14.96 37.5434 13.82L36.0734 0.499998H31.6934V23H34.9334ZM51.1574 2.12L49.5374 0.499998H44.9774L43.3574 2.12V8.66L47.7974 16.01V19.76H46.7174V15.5H43.3574V21.38L44.9774 23H49.6574L51.1574 21.38V14.87L46.7174 7.52V3.74H47.7974V8H51.1574V2.12ZM62.3145 23L60.6345 0.499998H54.8745L53.1945 23H56.7045C56.7645 21.65 56.8545 20.3 56.9145 18.95H58.5945C58.6545 20.3 58.7445 21.65 58.8045 23H62.3145ZM57.0945 15.71L57.5445 6.77C57.5745 5.93 57.5445 5.12 57.5445 4.28H57.9645C57.9645 5.12 57.9345 5.93 57.9645 6.77L58.4145 15.71H57.0945ZM72.1711 2.12L70.5511 0.499998H65.9911L64.3711 2.12V21.38L65.9911 23H70.5511L72.1711 21.38V13.34H68.8111V19.76H67.7311V3.74H68.8111V10.16H72.1711V2.12ZM81.8882 0.499998H74.2082V3.74H76.3682V23H79.7282V3.74H81.8882V0.499998ZM87.3092 23V0.499998H83.9492V23H87.3092ZM91.4325 0.499998L89.8125 2.06V21.44L91.4325 23H96.0525L97.6125 21.44V2.06L96.0525 0.499998H91.4325ZM94.2525 19.76H93.1725V3.74H94.2525V19.76ZM103.34 23L103.01 10.52C102.95 8.72 102.86 7.82 102.65 6.11L103.07 6.05C103.16 7.43 103.25 8.36 103.4 9.68L104.87 23H109.25V0.499998H106.01L106.34 12.98C106.4 14.78 106.49 15.68 106.7 17.39L106.28 17.45C106.19 16.04 106.07 14.96 105.95 13.82L104.48 0.499998H100.1V23H103.34ZM124.167 2.12L122.547 0.499998H117.987L116.367 2.12V21.38L117.987 23H122.547L124.167 21.38V13.34H120.807V19.76H119.727V3.74H120.807V10.16H124.167V2.12ZM128.274 0.499998L126.654 2.06V21.44L128.274 23H132.894L134.454 21.44V2.06L132.894 0.499998H128.274ZM131.094 19.76H130.014V3.74H131.094V19.76ZM143.121 13.73C143.031 14.57 143.121 15.38 143.121 16.22H142.701C142.701 15.38 142.791 14.57 142.701 13.73L141.171 0.499998H136.941V23H140.181L139.821 10.52C139.761 8.72 139.671 7.82 139.461 6.11L139.881 6.05C139.971 7.43 140.091 8.36 140.211 9.68L141.561 23H144.261L145.611 9.68C145.731 8.36 145.851 7.43 145.941 6.05L146.361 6.11C146.151 7.82 146.061 8.72 146.001 10.52L145.641 23H148.881V0.499998H144.651L143.121 13.73ZM151.389 0.499998V23H154.749V18.86H157.569L159.189 17.24V2.12L157.569 0.499998H151.389ZM155.829 15.8H154.749V3.56H155.829V15.8ZM165.036 0.499998H161.676V23H168.276V19.76H165.036V0.499998ZM176.834 0.499998H170.234V23H176.834V19.76H173.594V13.37H176.294V10.13H173.594V3.74H176.834V0.499998ZM186.257 0.499998H178.577V3.74H180.737V23H184.097V3.74H186.257V0.499998ZM194.918 0.499998H188.318V23H194.918V19.76H191.678V13.37H194.378V10.13H191.678V3.74H194.918V0.499998Z" fill="white"/>
</svg>
