<svg width="266" height="45" viewBox="0 0 266 45" fill="none" xmlns="http://www.w3.org/2000/svg">
<path d="M9.38 38.88H7.22V-3.57628e-06H0.5V41.76L3.74 45H12.86L16.1 41.76V-3.57628e-06H9.38V38.88ZM19.0742 -3.57628e-06V45H25.7942V36.72H31.4342L34.6742 33.48V3.24L31.4342 -3.57628e-06H19.0742ZM27.9542 30.6H25.7942V6.12H27.9542V30.6ZM37.6484 -3.57628e-06V45H50.1284L53.2484 41.88V3.12L50.1284 -3.57628e-06H37.6484ZM46.5284 38.52H44.3684V6.48H46.5284V38.52ZM73.5627 45L70.2027 -3.57628e-06H58.6827L55.3227 45H62.3427C62.4627 42.3 62.6427 39.6 62.7627 36.9H66.1227C66.2427 39.6 66.4227 42.3 66.5427 45H73.5627ZM63.1227 30.42L64.0227 12.54C64.0827 10.86 64.0227 9.24 64.0227 7.56H64.8627C64.8627 9.24 64.8027 10.86 64.8627 12.54L65.7627 30.42H63.1227ZM90.1358 -3.57628e-06H74.7758V6.48H79.0958V45H85.8158V6.48H90.1358V-3.57628e-06ZM105.458 -3.57628e-06H92.2578V45H105.458V38.52H98.9778V25.74H104.378V19.26H98.9778V6.48H105.458V-3.57628e-06ZM132.977 45L129.617 -3.57628e-06H118.097L114.737 45H121.757C121.877 42.3 122.057 39.6 122.177 36.9H125.537C125.657 39.6 125.837 42.3 125.957 45H132.977ZM122.537 30.42L123.437 12.54C123.497 10.86 123.437 9.24 123.437 7.56H124.277C124.277 9.24 124.217 10.86 124.277 12.54L125.177 30.42H122.537ZM137.55 45H149.07L152.43 -3.57628e-06H145.41C144.87 10.8 144.27 21.66 143.73 32.46C143.67 34.14 143.73 35.76 143.73 37.44H142.89C142.89 35.76 142.95 34.14 142.89 32.46C142.35 21.66 141.75 10.8 141.21 -3.57628e-06H134.19L137.55 45ZM171.883 45L168.523 -3.57628e-06H157.003L153.643 45H160.663C160.783 42.3 160.963 39.6 161.083 36.9H164.443C164.563 39.6 164.743 42.3 164.863 45H171.883ZM161.443 30.42L162.343 12.54C162.403 10.86 162.343 9.24 162.343 7.56H163.183C163.183 9.24 163.123 10.86 163.183 12.54L164.083 30.42H161.443ZM180.716 45V-3.57628e-06H173.996V45H180.716ZM190.443 -3.57628e-06H183.723V45H196.923V38.52H190.443V-3.57628e-06ZM216.356 45L212.996 -3.57628e-06H201.476L198.116 45H205.136C205.256 42.3 205.436 39.6 205.556 36.9H208.916C209.036 39.6 209.216 42.3 209.336 45H216.356ZM205.916 30.42L206.816 12.54C206.876 10.86 206.816 9.24 206.816 7.56H207.656C207.656 9.24 207.596 10.86 207.656 12.54L208.556 30.42H205.916ZM230.829 -3.57628e-06H218.469V45H230.829L234.069 41.76V25.08L231.489 22.5L234.069 19.92V3.24L230.829 -3.57628e-06ZM225.189 6.12H227.349V19.44H225.189V6.12ZM227.349 38.58H225.189V25.26H227.349V38.58ZM243.763 -3.57628e-06H237.043V45H250.243V38.52H243.763V-3.57628e-06ZM265.536 -3.57628e-06H252.336V45H265.536V38.52H259.056V25.74H264.456V19.26H259.056V6.48H265.536V-3.57628e-06Z" fill="black"/>
</svg>
