<svg width="429" height="927" viewBox="0 0 429 927" fill="none" xmlns="http://www.w3.org/2000/svg">
<path d="M435.146 0.704773H324.441V103.492H435.146V0.704773Z" stroke="#929292" stroke-opacity="0.1" stroke-width="2" stroke-miterlimit="10"/>
<path d="M435.154 103.492V104.197L380.181 155.251L324.814 103.844L325.194 103.492H435.154Z" stroke="#929292" stroke-opacity="0.1" stroke-width="2" stroke-miterlimit="10"/>
<path d="M325.187 103.492L324.441 104.183V103.492H325.187Z" stroke="#929292" stroke-opacity="0.1" stroke-width="2" stroke-miterlimit="10"/>
<path d="M435.151 104.198V206.293L380.178 155.252L435.151 104.198Z" stroke="#929292" stroke-opacity="0.1" stroke-width="2" stroke-miterlimit="10"/>
<path d="M435.151 206.292H325.191L380.178 155.251L435.151 206.292Z" stroke="#929292" stroke-opacity="0.1" stroke-width="2" stroke-miterlimit="10"/>
<path d="M435.151 206.984V309.079L380.178 258.038L435.151 206.984Z" stroke="#929292" stroke-opacity="0.1" stroke-width="2" stroke-miterlimit="10"/>
<path d="M435.146 309.079H324.441V206.292H325.187L324.821 206.644L380.173 258.038L435.146 309.079Z" stroke="#929292" stroke-opacity="0.1" stroke-width="2" stroke-miterlimit="10"/>
<path d="M324.438 309.087L324.438 411.874L435.142 411.874L435.142 309.087L324.438 309.087Z" stroke="#929292" stroke-opacity="0.1" stroke-width="2" stroke-miterlimit="10"/>
<path d="M435.146 411.866V514.666L324.807 412.218L324.441 412.558V411.866H435.146Z" stroke="#929292" stroke-opacity="0.1" stroke-width="2" stroke-miterlimit="10"/>
<path d="M435.151 515.358V617.453L380.178 566.412L435.151 515.358Z" stroke="#929292" stroke-opacity="0.1" stroke-width="2" stroke-miterlimit="10"/>
<path d="M435.151 617.454H325.191L380.178 566.413L435.151 617.454Z" stroke="#929292" stroke-opacity="0.1" stroke-width="2" stroke-miterlimit="10"/>
<path d="M380.173 566.413L325.187 617.454H324.441V515.359L324.807 515.006L380.173 566.413Z" stroke="#929292" stroke-opacity="0.1" stroke-width="2" stroke-miterlimit="10"/>
<path d="M325.187 514.666L324.807 515.005L324.441 515.357V514.666H325.187Z" stroke="#929292" stroke-opacity="0.1" stroke-width="2" stroke-miterlimit="10"/>
<path d="M325.187 617.453L324.821 617.805L324.441 618.144V617.453H325.187Z" stroke="#929292" stroke-opacity="0.1" stroke-width="2" stroke-miterlimit="10"/>
<path d="M435.155 618.144V720.24H325.209L380.182 669.199L435.155 618.144Z" stroke="#929292" stroke-opacity="0.1" stroke-width="2" stroke-miterlimit="10"/>
<path d="M324.443 0.704773V1.39663L269.457 52.4507L213.725 0.704773H324.443Z" stroke="#929292" stroke-opacity="0.1" stroke-width="2" stroke-miterlimit="10"/>
<path d="M324.448 1.39662V103.492H324.434L269.461 52.4507L324.448 1.39662Z" stroke="#929292" stroke-opacity="0.1" stroke-width="2" stroke-miterlimit="10"/>
<path d="M324.443 103.492H213.725V206.292H324.443V103.492Z" stroke="#929292" stroke-opacity="0.1" stroke-width="2" stroke-miterlimit="10"/>
<path d="M324.443 206.292H213.725V309.079H324.443V206.292Z" stroke="#929292" stroke-opacity="0.1" stroke-width="2" stroke-miterlimit="10"/>
<path d="M324.443 309.078V411.865H324.429L269.457 360.824L214.104 309.43L213.725 309.783V309.078H324.443Z" stroke="#929292" stroke-opacity="0.1" stroke-width="2" stroke-miterlimit="10"/>
<path d="M324.446 514.667H214.473L269.46 463.613L324.446 514.667Z" stroke="#929292" stroke-opacity="0.1" stroke-width="2" stroke-miterlimit="10"/>
<path d="M214.484 411.866L214.104 412.218L213.725 412.57V411.866H214.484Z" stroke="#929292" stroke-opacity="0.1" stroke-width="2" stroke-miterlimit="10"/>
<path d="M324.448 515.358V617.453L269.461 566.399L324.448 515.358Z" stroke="#929292" stroke-opacity="0.1" stroke-width="2" stroke-miterlimit="10"/>
<path d="M324.446 617.453H214.473L269.46 566.399L324.446 617.453Z" stroke="#929292" stroke-opacity="0.1" stroke-width="2" stroke-miterlimit="10"/>
<path d="M214.47 514.666L214.104 515.005L213.725 515.37V514.666H214.47Z" stroke="#929292" stroke-opacity="0.1" stroke-width="2" stroke-miterlimit="10"/>
<path d="M324.436 720.24H214.49L269.463 669.199L324.436 720.24Z" stroke="#929292" stroke-opacity="0.1" stroke-width="2" stroke-miterlimit="10"/>
<path d="M269.457 669.2L214.484 720.241H213.725V618.146L214.104 617.806L269.457 669.2Z" stroke="#929292" stroke-opacity="0.1" stroke-width="2" stroke-miterlimit="10"/>
<path d="M214.47 617.453L214.104 617.805L213.725 618.144V617.453H214.47Z" stroke="#929292" stroke-opacity="0.1" stroke-width="2" stroke-miterlimit="10"/>
<path d="M213.732 0.704773V103.492L158 51.7458L212.973 0.704773H213.732Z" stroke="#929292" stroke-opacity="0.1" stroke-width="2" stroke-miterlimit="10"/>
<path d="M213.726 103.492H103.021V0.704773L157.994 51.7458L213.726 103.492Z" stroke="#929292" stroke-opacity="0.1" stroke-width="2" stroke-miterlimit="10"/>
<path d="M103.033 103.51L103.033 206.297L213.738 206.297L213.738 103.51L103.033 103.51Z" stroke="#929292" stroke-opacity="0.1" stroke-width="2" stroke-miterlimit="10"/>
<path d="M213.726 206.292V309.066L158.754 258.038L103.401 206.631L103.021 206.984V206.292H213.726Z" stroke="#929292" stroke-opacity="0.1" stroke-width="2" stroke-miterlimit="10"/>
<path d="M103.781 309.078L103.401 309.43L103.021 309.782V309.078H103.781Z" stroke="#929292" stroke-opacity="0.1" stroke-width="2" stroke-miterlimit="10"/>
<path d="M103.781 411.866L103.021 412.57V411.866H103.781Z" stroke="#929292" stroke-opacity="0.1" stroke-width="2" stroke-miterlimit="10"/>
<path d="M103.767 514.666L103.021 515.357V514.666H103.767Z" stroke="#929292" stroke-opacity="0.1" stroke-width="2" stroke-miterlimit="10"/>
<path d="M103.781 617.453L103.021 618.157V617.453H103.781Z" stroke="#929292" stroke-opacity="0.1" stroke-width="2" stroke-miterlimit="10"/>
<path d="M213.732 618.144V720.24H212.228L158 669.89L213.732 618.144Z" stroke="#929292" stroke-opacity="0.1" stroke-width="2" stroke-miterlimit="10"/>
<path d="M212.227 720.24H103.771L157.999 669.891L212.227 720.24Z" stroke="#929292" stroke-opacity="0.1" stroke-width="2" stroke-miterlimit="10"/>
<path d="M-7.68359 0.715591L-7.68359 103.503L103.021 103.503L103.021 0.715591L-7.68359 0.715591Z" stroke="#929292" stroke-opacity="0.1" stroke-width="2" stroke-miterlimit="10"/>
<path d="M103.029 103.492H-7.67578V206.292H103.029V103.492Z" stroke="#929292" stroke-opacity="0.1" stroke-width="2" stroke-miterlimit="10"/>
<path d="M48.0563 258.038L-6.93063 309.079H-7.67578V206.292L48.0563 258.038Z" stroke="#929292" stroke-opacity="0.1" stroke-width="2" stroke-miterlimit="10"/>
<path d="M103.022 309.079H-6.9375L48.0494 258.038L103.022 309.079Z" stroke="#929292" stroke-opacity="0.1" stroke-width="2" stroke-miterlimit="10"/>
<path d="M103.022 206.984V309.079L48.0488 258.038L103.022 206.984Z" stroke="#929292" stroke-opacity="0.1" stroke-width="2" stroke-miterlimit="10"/>
<path d="M48.0563 360.825L-6.91657 411.866H-7.67578V309.771L-7.29617 309.431L48.0563 360.825Z" stroke="#929292" stroke-opacity="0.1" stroke-width="2" stroke-miterlimit="10"/>
<path d="M48.0563 463.612L-6.93063 514.666H-7.67578V412.571L-7.29617 412.218L48.0563 463.612Z" stroke="#929292" stroke-opacity="0.1" stroke-width="2" stroke-miterlimit="10"/>
<path d="M103.029 514.666V515.358L47.297 567.104L-7.67578 516.076V515.358L-6.93063 514.666H103.029Z" stroke="#929292" stroke-opacity="0.1" stroke-width="2" stroke-miterlimit="10"/>
<path d="M47.297 567.103L-6.93063 617.453H-7.67578V516.075L47.297 567.103Z" stroke="#929292" stroke-opacity="0.1" stroke-width="2" stroke-miterlimit="10"/>
<path d="M47.297 669.903L-6.91657 720.24H-7.67578V618.862L47.297 669.903Z" stroke="#929292" stroke-opacity="0.1" stroke-width="2" stroke-miterlimit="10"/>
<path d="M102.649 618.51L47.297 669.904L-7.67578 618.863V618.145L-6.93063 617.453H101.511L102.649 618.51Z" stroke="#929292" stroke-opacity="0.1" stroke-width="2" stroke-miterlimit="10"/>
<path d="M103.028 617.453V618.85L102.649 618.51L101.51 617.453H103.028Z" stroke="#929292" stroke-opacity="0.1" stroke-width="2" stroke-miterlimit="10"/>
<path d="M435.146 103.505L324.441 0.704773" stroke="#929292" stroke-opacity="0.1" stroke-width="2" stroke-miterlimit="10"/>
<path d="M324.436 103.492H214.49L269.463 52.4507L324.436 103.492Z" stroke="#929292" stroke-opacity="0.1" stroke-width="2" stroke-miterlimit="10"/>
<path d="M324.434 103.492L324.448 103.505L324.813 103.844" stroke="#929292" stroke-opacity="0.1" stroke-width="2" stroke-miterlimit="10"/>
<path d="M213.733 721.637L212.229 720.24" stroke="#929292" stroke-opacity="0.1" stroke-width="2" stroke-miterlimit="10"/>
<path d="M102.268 -1.52588e-05L102.647 0.352024L103.027 0.704062" stroke="#929292" stroke-opacity="0.1" stroke-width="2" stroke-miterlimit="10"/>
<path d="M435.153 206.292V206.984L380.181 258.038L324.828 206.644L325.194 206.292H435.153Z" stroke="#929292" stroke-opacity="0.1" stroke-width="2" stroke-miterlimit="10"/>
<path d="M213.725 103.492L214.104 103.844L269.457 155.238L324.443 206.292L324.823 206.644" stroke="#929292" stroke-opacity="0.1" stroke-width="2" stroke-miterlimit="10"/>
<path d="M380.173 669.2L325.201 720.241H324.441V618.146L324.821 617.806L380.173 669.2Z" stroke="#929292" stroke-opacity="0.1" stroke-width="2" stroke-miterlimit="10"/>
<path d="M325.187 720.944L324.807 720.592L324.441 720.24" stroke="#929292" stroke-opacity="0.1" stroke-width="2" stroke-miterlimit="10"/>
<path d="M324.449 617.453V618.145L269.462 669.199L214.109 617.805L214.475 617.453H324.449Z" stroke="#929292" stroke-opacity="0.1" stroke-width="2" stroke-miterlimit="10"/>
<path d="M103.024 411.866V412.571L48.0516 463.612L-7.30078 412.218L-6.92117 411.866H103.024Z" stroke="#929292" stroke-opacity="0.1" stroke-width="2" stroke-miterlimit="10"/>
<path d="M214.104 617.805L213.725 617.453" stroke="#929292" stroke-opacity="0.1" stroke-width="2" stroke-miterlimit="10"/>
<path d="M103.407 515.005L103.041 514.666" stroke="#929292" stroke-opacity="0.1" stroke-width="2" stroke-miterlimit="10"/>
<path d="M435.158 411.866L380.185 360.825L324.832 309.431L324.453 309.079L269.48 258.038L214.114 206.631L213.748 206.292H213.734V206.279L158.761 155.238L103.029 103.492L102.649 103.139L47.297 51.7458L-7.67578 0.704773" stroke="#929292" stroke-opacity="0.1" stroke-width="2" stroke-miterlimit="10"/>
<path d="M-7.67578 103.492L47.2971 154.533L103.029 206.279V206.292H103.043L103.409 206.631" stroke="#929292" stroke-opacity="0.1" stroke-width="2" stroke-miterlimit="10"/>
<path d="M213.725 309.078H213.739L214.104 309.43" stroke="#929292" stroke-opacity="0.1" stroke-width="2" stroke-miterlimit="10"/>
<path d="M324.436 411.866H214.49L269.463 360.825L324.436 411.866Z" stroke="#929292" stroke-opacity="0.1" stroke-width="2" stroke-miterlimit="10"/>
<path d="M324.807 412.219L324.441 411.88" stroke="#929292" stroke-opacity="0.1" stroke-width="2" stroke-miterlimit="10"/>
<path d="M435.151 514.667H325.191L380.164 463.613L435.151 514.667Z" stroke="#929292" stroke-opacity="0.1" stroke-width="2" stroke-miterlimit="10"/>
<path d="M435.154 514.666V515.358L380.181 566.412L324.814 515.005L325.194 514.666H435.154Z" stroke="#929292" stroke-opacity="0.1" stroke-width="2" stroke-miterlimit="10"/>
<path d="M214.104 412.218L213.725 411.866" stroke="#929292" stroke-opacity="0.1" stroke-width="2" stroke-miterlimit="10"/>
<path d="M324.807 515.005L324.441 514.666" stroke="#929292" stroke-opacity="0.1" stroke-width="2" stroke-miterlimit="10"/>
<path d="M103.401 309.43L103.021 309.078" stroke="#929292" stroke-opacity="0.1" stroke-width="2" stroke-miterlimit="10"/>
<path d="M435.153 617.453V618.145L380.181 669.199L324.828 617.805L325.194 617.453H435.153Z" stroke="#929292" stroke-opacity="0.1" stroke-width="2" stroke-miterlimit="10"/>
<path d="M435.151 720.24L380.178 669.199" stroke="#929292" stroke-opacity="0.1" stroke-width="2" stroke-miterlimit="10"/>
<path d="M324.821 617.805L324.441 617.453" stroke="#929292" stroke-opacity="0.1" stroke-width="2" stroke-miterlimit="10"/>
<path d="M103.401 412.218L103.021 411.866" stroke="#929292" stroke-opacity="0.1" stroke-width="2" stroke-miterlimit="10"/>
<path d="M214.108 515.005L213.742 514.666" stroke="#929292" stroke-opacity="0.1" stroke-width="2" stroke-miterlimit="10"/>
<path d="M157.994 669.89L103.767 720.24H103.021V618.849L157.994 669.89Z" stroke="#929292" stroke-opacity="0.1" stroke-width="2" stroke-miterlimit="10"/>
<path d="M103.026 721.637L102.646 721.284L101.521 720.24" stroke="#929292" stroke-opacity="0.1" stroke-width="2" stroke-miterlimit="10"/>
<path d="M325.201 720.24L324.807 720.592L324.441 720.944" stroke="#929292" stroke-opacity="0.1" stroke-width="2" stroke-miterlimit="10"/>
<path d="M324.448 618.144V720.24H324.434L269.461 669.199L324.448 618.144Z" stroke="#929292" stroke-opacity="0.1" stroke-width="2" stroke-miterlimit="10"/>
<path d="M214.484 720.24L213.725 720.944" stroke="#929292" stroke-opacity="0.1" stroke-width="2" stroke-miterlimit="10"/>
<path d="M212.967 0.704773L157.994 51.7458L103.021 0.704773H212.967Z" stroke="#929292" stroke-opacity="0.1" stroke-width="2" stroke-miterlimit="10"/>
<path d="M-7.69531 205.587L-7.68125 205.574L47.2916 154.533L102.264 103.492L102.644 103.139L103.024 102.787L157.996 51.7458" stroke="#929292" stroke-opacity="0.1" stroke-width="2" stroke-miterlimit="10"/>
<path d="M213.726 -1.52588e-05L212.967 0.704062" stroke="#929292" stroke-opacity="0.1" stroke-width="2" stroke-miterlimit="10"/>
<path d="M324.449 514.666V515.358L269.462 566.399L214.109 515.005L214.475 514.666H324.449Z" stroke="#929292" stroke-opacity="0.1" stroke-width="2" stroke-miterlimit="10"/>
<path d="M269.457 566.4L214.47 617.454H213.725V515.372L214.104 515.006L269.457 566.4Z" stroke="#929292" stroke-opacity="0.1" stroke-width="2" stroke-miterlimit="10"/>
<path d="M213.727 515.371V617.453L158.754 566.412L213.727 515.371Z" stroke="#929292" stroke-opacity="0.1" stroke-width="2" stroke-miterlimit="10"/>
<path d="M213.726 617.453V618.145L157.994 669.891L103.021 618.849V618.158L103.781 617.453H213.726Z" stroke="#929292" stroke-opacity="0.1" stroke-width="2" stroke-miterlimit="10"/>
<path d="M102.268 721.637L102.647 721.284L103.772 720.24" stroke="#929292" stroke-opacity="0.1" stroke-width="2" stroke-miterlimit="10"/>
<path d="M435.157 412.571L380.17 463.612" stroke="#929292" stroke-opacity="0.1" stroke-width="2" stroke-miterlimit="10"/>
<path d="M269.457 52.4507L214.484 103.492H213.725V0.704773L269.457 52.4507Z" stroke="#929292" stroke-opacity="0.1" stroke-width="2" stroke-miterlimit="10"/>
<path d="M103.029 206.292V206.984L48.0563 258.038L-7.67578 206.292H103.029Z" stroke="#929292" stroke-opacity="0.1" stroke-width="2" stroke-miterlimit="10"/>
<path d="M103.404 206.631L103.77 206.292L158.757 155.238L213.73 104.197L214.109 103.844L214.489 103.492" stroke="#929292" stroke-opacity="0.1" stroke-width="2" stroke-miterlimit="10"/>
<path d="M103.024 309.078V309.783L48.0516 360.824L-7.30078 309.43L-6.93523 309.078H103.024Z" stroke="#929292" stroke-opacity="0.1" stroke-width="2" stroke-miterlimit="10"/>
<path d="M325.187 0.704773L324.821 1.05681L324.441 1.39582" stroke="#929292" stroke-opacity="0.1" stroke-width="2" stroke-miterlimit="10"/>
<path d="M380.159 463.612L325.187 514.666H324.441V412.558L324.807 412.218L380.159 463.612Z" stroke="#929292" stroke-opacity="0.1" stroke-width="2" stroke-miterlimit="10"/>
<path d="M324.448 412.558V514.666L269.461 463.612L324.448 412.558Z" stroke="#929292" stroke-opacity="0.1" stroke-width="2" stroke-miterlimit="10"/>
<path d="M101.519 720.24H-6.92188L47.2917 669.903L101.519 720.24Z" stroke="#929292" stroke-opacity="0.1" stroke-width="2" stroke-miterlimit="10"/>
<path d="M103.023 618.849V720.24H101.519L47.291 669.903L102.643 618.51L103.023 618.849Z" stroke="#929292" stroke-opacity="0.1" stroke-width="2" stroke-miterlimit="10"/>
<path d="M103.022 618.158L102.643 618.51" stroke="#929292" stroke-opacity="0.1" stroke-width="2" stroke-miterlimit="10"/>
<path d="M324.449 411.866V412.558L269.462 463.612L214.109 412.218L214.489 411.866H324.449Z" stroke="#929292" stroke-opacity="0.1" stroke-width="2" stroke-miterlimit="10"/>
<path d="M269.457 463.612L214.47 514.666H213.725V412.571L214.104 412.218L269.457 463.612Z" stroke="#929292" stroke-opacity="0.1" stroke-width="2" stroke-miterlimit="10"/>
<path d="M324.814 412.218L325.194 411.866L380.181 360.825L435.154 309.771" stroke="#929292" stroke-opacity="0.1" stroke-width="2" stroke-miterlimit="10"/>
<path d="M269.457 360.825L214.484 411.866H213.725V309.784L214.104 309.431L269.457 360.825Z" stroke="#929292" stroke-opacity="0.1" stroke-width="2" stroke-miterlimit="10"/>
<path d="M380.18 258.038L325.193 309.079L324.827 309.431L324.448 309.771L269.461 360.825" stroke="#929292" stroke-opacity="0.1" stroke-width="2" stroke-miterlimit="10"/>
<path d="M213.73 514.666V515.371L158.757 566.412L103.404 515.005L103.77 514.666H213.73Z" stroke="#929292" stroke-opacity="0.1" stroke-width="2" stroke-miterlimit="10"/>
<path d="M213.725 617.454H103.779L158.752 566.413L213.725 617.454Z" stroke="#929292" stroke-opacity="0.1" stroke-width="2" stroke-miterlimit="10"/>
<path d="M158.754 566.413L103.781 617.454H103.021V515.359L103.401 515.006L158.754 566.413Z" stroke="#929292" stroke-opacity="0.1" stroke-width="2" stroke-miterlimit="10"/>
<path d="M103.023 515.358V617.453H101.505L47.291 567.103L103.023 515.358Z" stroke="#929292" stroke-opacity="0.1" stroke-width="2" stroke-miterlimit="10"/>
<path d="M101.504 617.453H-6.9375L47.2902 567.103L101.504 617.453Z" stroke="#929292" stroke-opacity="0.1" stroke-width="2" stroke-miterlimit="10"/>
<path d="M213.727 412.571V514.653L158.754 463.612L213.727 412.571Z" stroke="#929292" stroke-opacity="0.1" stroke-width="2" stroke-miterlimit="10"/>
<path d="M213.73 411.866V412.571L158.757 463.612L103.404 412.218L103.784 411.866H213.73Z" stroke="#929292" stroke-opacity="0.1" stroke-width="2" stroke-miterlimit="10"/>
<path d="M158.754 463.612L103.767 514.666H103.021V412.571L103.401 412.218L158.754 463.612Z" stroke="#929292" stroke-opacity="0.1" stroke-width="2" stroke-miterlimit="10"/>
<path d="M213.731 514.654V514.667H103.771L158.758 463.613L213.731 514.654Z" stroke="#929292" stroke-opacity="0.1" stroke-width="2" stroke-miterlimit="10"/>
<path d="M103.022 514.654V514.667H-6.9375L48.0494 463.613L103.022 514.654Z" stroke="#929292" stroke-opacity="0.1" stroke-width="2" stroke-miterlimit="10"/>
<path d="M103.022 412.571V514.653L48.0488 463.612L103.022 412.571Z" stroke="#929292" stroke-opacity="0.1" stroke-width="2" stroke-miterlimit="10"/>
<path d="M324.828 206.644L324.449 206.984L269.476 258.038L214.489 309.079L214.109 309.431" stroke="#929292" stroke-opacity="0.1" stroke-width="2" stroke-miterlimit="10"/>
<path d="M380.173 155.251L325.187 206.292H324.441V104.184L324.807 103.844L380.173 155.251Z" stroke="#929292" stroke-opacity="0.1" stroke-width="2" stroke-miterlimit="10"/>
<path d="M158.754 258.038L103.781 309.079H103.021V206.984L103.401 206.631L158.754 258.038Z" stroke="#929292" stroke-opacity="0.1" stroke-width="2" stroke-miterlimit="10"/>
<path d="M324.446 104.184L269.459 155.238L214.472 206.292L214.106 206.631L213.727 206.997L158.754 258.038" stroke="#929292" stroke-opacity="0.1" stroke-width="2" stroke-miterlimit="10"/>
<path d="M213.725 309.066V309.079H103.779L158.752 258.038L213.725 309.066Z" stroke="#929292" stroke-opacity="0.1" stroke-width="2" stroke-miterlimit="10"/>
<path d="M213.73 309.078V309.783L158.757 360.824L103.404 309.43L103.784 309.078H213.73Z" stroke="#929292" stroke-opacity="0.1" stroke-width="2" stroke-miterlimit="10"/>
<path d="M213.727 309.784V411.866L158.754 360.825L213.727 309.784Z" stroke="#929292" stroke-opacity="0.1" stroke-width="2" stroke-miterlimit="10"/>
<path d="M158.754 360.825L103.781 411.866H103.021V309.784L103.401 309.431L158.754 360.825Z" stroke="#929292" stroke-opacity="0.1" stroke-width="2" stroke-miterlimit="10"/>
<path d="M213.725 411.866H103.779L158.752 360.825L213.725 411.866Z" stroke="#929292" stroke-opacity="0.1" stroke-width="2" stroke-miterlimit="10"/>
<path d="M103.024 411.866H-6.92188L48.0509 360.825L103.024 411.866Z" stroke="#929292" stroke-opacity="0.1" stroke-width="2" stroke-miterlimit="10"/>
<path d="M103.022 309.784V411.866L48.0488 360.825L103.022 309.784Z" stroke="#929292" stroke-opacity="0.1" stroke-width="2" stroke-miterlimit="10"/>
<path d="M435.151 1.39662L380.178 52.4507L325.191 103.492" stroke="#929292" stroke-opacity="0.1" stroke-width="2" stroke-miterlimit="10"/>
<path d="M103.029 0.0129242L-7.67578 102.8" stroke="#929292" stroke-opacity="0.1" stroke-width="2" stroke-miterlimit="10"/>
<path d="M102.27 766.15L102.649 766.502L103.029 766.854" stroke="#929292" stroke-opacity="0.1" stroke-width="2" stroke-miterlimit="10"/>
<path d="M213.728 766.15L212.969 766.854" stroke="#929292" stroke-opacity="0.1" stroke-width="2" stroke-miterlimit="10"/>
<path d="M325.189 766.856L324.823 767.208L324.443 767.547" stroke="#929292" stroke-opacity="0.1" stroke-width="2" stroke-miterlimit="10"/>
<path d="M435.151 720.866V822.961L380.178 771.92L435.151 720.866Z" stroke="#929292" stroke-opacity="0.1" stroke-width="2" stroke-miterlimit="10"/>
<path d="M435.153 822.961H325.193L380.18 771.92L435.153 822.961Z" stroke="#929292" stroke-opacity="0.1" stroke-width="2" stroke-miterlimit="10"/>
<path d="M380.175 771.921L325.189 822.962H324.443V720.867L324.809 720.515L380.175 771.921Z" stroke="#929292" stroke-opacity="0.1" stroke-width="2" stroke-miterlimit="10"/>
<path d="M325.189 822.961L324.823 823.313L324.443 823.652V822.961H325.189Z" stroke="#929292" stroke-opacity="0.1" stroke-width="2" stroke-miterlimit="10"/>
<path d="M435.157 823.653V925.748H325.211L380.184 874.707L435.157 823.653Z" stroke="#929292" stroke-opacity="0.1" stroke-width="2" stroke-miterlimit="10"/>
<path d="M324.448 720.866V822.961L269.461 771.907L324.448 720.866Z" stroke="#929292" stroke-opacity="0.1" stroke-width="2" stroke-miterlimit="10"/>
<path d="M324.448 822.962H214.475L269.462 771.908L324.448 822.962Z" stroke="#929292" stroke-opacity="0.1" stroke-width="2" stroke-miterlimit="10"/>
<path d="M324.438 925.749H214.492L269.465 874.708L324.438 925.749Z" stroke="#929292" stroke-opacity="0.1" stroke-width="2" stroke-miterlimit="10"/>
<path d="M269.459 874.708L214.486 925.749H213.727V823.654L214.106 823.314L269.459 874.708Z" stroke="#929292" stroke-opacity="0.1" stroke-width="2" stroke-miterlimit="10"/>
<path d="M214.472 822.961L214.106 823.313L213.727 823.652V822.961H214.472Z" stroke="#929292" stroke-opacity="0.1" stroke-width="2" stroke-miterlimit="10"/>
<path d="M103.783 822.961L103.023 823.665V822.961H103.783Z" stroke="#929292" stroke-opacity="0.1" stroke-width="2" stroke-miterlimit="10"/>
<path d="M213.732 823.653V925.748H212.228L158 875.399L213.732 823.653Z" stroke="#929292" stroke-opacity="0.1" stroke-width="2" stroke-miterlimit="10"/>
<path d="M212.229 925.748H103.773L158.001 875.399L212.229 925.748Z" stroke="#929292" stroke-opacity="0.1" stroke-width="2" stroke-miterlimit="10"/>
<path d="M103.031 720.175V720.867L47.299 772.613L-7.67383 721.585V720.867L-6.92867 720.175H103.031Z" stroke="#929292" stroke-opacity="0.1" stroke-width="2" stroke-miterlimit="10"/>
<path d="M47.299 772.613L-6.92867 822.962H-7.67383V721.585L47.299 772.613Z" stroke="#929292" stroke-opacity="0.1" stroke-width="2" stroke-miterlimit="10"/>
<path d="M47.299 875.412L-6.91461 925.748H-7.67383V824.371L47.299 875.412Z" stroke="#929292" stroke-opacity="0.1" stroke-width="2" stroke-miterlimit="10"/>
<path d="M102.651 824.018L47.299 875.412L-7.67383 824.371V823.653L-6.92867 822.961H101.513L102.651 824.018Z" stroke="#929292" stroke-opacity="0.1" stroke-width="2" stroke-miterlimit="10"/>
<path d="M103.03 822.961V824.358L102.651 824.018L101.512 822.961H103.03Z" stroke="#929292" stroke-opacity="0.1" stroke-width="2" stroke-miterlimit="10"/>
<path d="M213.735 927.145L212.23 925.748" stroke="#929292" stroke-opacity="0.1" stroke-width="2" stroke-miterlimit="10"/>
<path d="M380.175 874.708L325.203 925.749H324.443V823.654L324.823 823.314L380.175 874.708Z" stroke="#929292" stroke-opacity="0.1" stroke-width="2" stroke-miterlimit="10"/>
<path d="M325.189 926.452L324.809 926.1L324.443 925.748" stroke="#929292" stroke-opacity="0.1" stroke-width="2" stroke-miterlimit="10"/>
<path d="M324.451 822.961V823.653L269.464 874.707L214.111 823.314L214.477 822.961H324.451Z" stroke="#929292" stroke-opacity="0.1" stroke-width="2" stroke-miterlimit="10"/>
<path d="M214.106 823.313L213.727 822.961" stroke="#929292" stroke-opacity="0.1" stroke-width="2" stroke-miterlimit="10"/>
<path d="M435.156 720.175V720.867L380.183 771.921L324.816 720.515L325.196 720.175H435.156Z" stroke="#929292" stroke-opacity="0.1" stroke-width="2" stroke-miterlimit="10"/>
<path d="M435.155 822.961V823.653L380.182 874.707L324.83 823.314L325.196 822.961H435.155Z" stroke="#929292" stroke-opacity="0.1" stroke-width="2" stroke-miterlimit="10"/>
<path d="M435.151 925.749L380.178 874.708" stroke="#929292" stroke-opacity="0.1" stroke-width="2" stroke-miterlimit="10"/>
<path d="M324.823 823.313L324.443 822.961" stroke="#929292" stroke-opacity="0.1" stroke-width="2" stroke-miterlimit="10"/>
<path d="M157.996 875.399L103.769 925.748H103.023V824.358L157.996 875.399Z" stroke="#929292" stroke-opacity="0.1" stroke-width="2" stroke-miterlimit="10"/>
<path d="M103.028 927.145L102.648 926.792L101.523 925.748" stroke="#929292" stroke-opacity="0.1" stroke-width="2" stroke-miterlimit="10"/>
<path d="M325.203 925.748L324.809 926.1L324.443 926.452" stroke="#929292" stroke-opacity="0.1" stroke-width="2" stroke-miterlimit="10"/>
<path d="M324.448 823.653V925.748H324.434L269.461 874.707L324.448 823.653Z" stroke="#929292" stroke-opacity="0.1" stroke-width="2" stroke-miterlimit="10"/>
<path d="M214.486 925.748L213.727 926.452" stroke="#929292" stroke-opacity="0.1" stroke-width="2" stroke-miterlimit="10"/>
<path d="M324.451 720.175V720.867L269.464 771.908L214.111 720.515L214.477 720.175H324.451Z" stroke="#929292" stroke-opacity="0.1" stroke-width="2" stroke-miterlimit="10"/>
<path d="M269.459 771.908L214.472 822.962H213.727V720.88L214.106 720.515L269.459 771.908Z" stroke="#929292" stroke-opacity="0.1" stroke-width="2" stroke-miterlimit="10"/>
<path d="M213.727 720.879V822.961L158.754 771.92L213.727 720.879Z" stroke="#929292" stroke-opacity="0.1" stroke-width="2" stroke-miterlimit="10"/>
<path d="M213.728 822.961V823.653L157.996 875.399L103.023 824.358V823.666L103.783 822.961H213.728Z" stroke="#929292" stroke-opacity="0.1" stroke-width="2" stroke-miterlimit="10"/>
<path d="M102.27 927.145L102.649 926.792L103.774 925.748" stroke="#929292" stroke-opacity="0.1" stroke-width="2" stroke-miterlimit="10"/>
<path d="M101.521 925.749H-6.91992L47.2937 875.413L101.521 925.749Z" stroke="#929292" stroke-opacity="0.1" stroke-width="2" stroke-miterlimit="10"/>
<path d="M103.023 824.359V925.749H101.519L47.291 875.413L102.643 824.019L103.023 824.359Z" stroke="#929292" stroke-opacity="0.1" stroke-width="2" stroke-miterlimit="10"/>
<path d="M103.024 823.666L102.645 824.018" stroke="#929292" stroke-opacity="0.1" stroke-width="2" stroke-miterlimit="10"/>
<path d="M213.732 720.175V720.88L158.759 771.921L103.406 720.515L103.772 720.175H213.732Z" stroke="#929292" stroke-opacity="0.1" stroke-width="2" stroke-miterlimit="10"/>
<path d="M213.727 822.961H103.781L158.754 771.92L213.727 822.961Z" stroke="#929292" stroke-opacity="0.1" stroke-width="2" stroke-miterlimit="10"/>
<path d="M158.756 771.921L103.783 822.962H103.023V720.867L103.403 720.515L158.756 771.921Z" stroke="#929292" stroke-opacity="0.1" stroke-width="2" stroke-miterlimit="10"/>
<path d="M103.023 720.866V822.961H101.505L47.291 772.612L103.023 720.866Z" stroke="#929292" stroke-opacity="0.1" stroke-width="2" stroke-miterlimit="10"/>
<path d="M101.506 822.962H-6.93555L47.2921 772.613L101.506 822.962Z" stroke="#929292" stroke-opacity="0.1" stroke-width="2" stroke-miterlimit="10"/>
<path d="M380.447 206.458V155.414L437.739 103.229H494.515V206.458H380.447Z" fill="#3A8977"/>
<rect x="-7.69336" width="55.7436" height="52.6467" fill="#FED564"/>
<rect x="-8.72461" y="812.411" width="55.7436" height="52.6467" fill="#2F1BC8"/>
<rect x="48.0508" y="52.6467" width="96.0029" height="12.3875" fill="#2F1BC8"/>
<rect x="48.0508" y="78.4539" width="96.0029" height="12.3875" fill="#2F1BC8"/>
<rect x="48.0508" y="104.261" width="96.0029" height="12.3875" fill="#2F1BC8"/>
<rect x="48.0508" y="130.068" width="96.0029" height="12.3875" fill="#2F1BC8"/>
<rect x="336.061" y="205.425" width="14.4519" height="14.4519" fill="#FED564"/>
<rect x="336.061" y="235.534" width="14.4519" height="14.4519" fill="#FED564"/>
<rect x="336.061" y="265.642" width="14.4519" height="14.4519" fill="#FED564"/>
<rect x="336.061" y="295.75" width="14.4519" height="14.4519" fill="#FED564"/>
<rect x="364.963" y="205.425" width="14.4519" height="14.4519" fill="#FED564"/>
<rect x="364.963" y="235.534" width="14.4519" height="14.4519" fill="#FED564"/>
<rect x="364.963" y="265.642" width="14.4519" height="14.4519" fill="#FED564"/>
<rect x="364.963" y="295.75" width="14.4519" height="14.4519" fill="#FED564"/>
<rect x="359.801" y="916.671" width="14.4519" height="14.4519" transform="rotate(-90 359.801 916.671)" fill="#2F1BC8"/>
<rect x="389.908" y="916.671" width="14.4519" height="14.4519" transform="rotate(-90 389.908 916.671)" fill="#2F1BC8"/>
<rect x="420.016" y="916.671" width="14.4519" height="14.4519" transform="rotate(-90 420.016 916.671)" fill="#2F1BC8"/>
<rect x="359.801" y="887.768" width="14.4519" height="14.4519" transform="rotate(-90 359.801 887.768)" fill="#2F1BC8"/>
<rect x="389.908" y="887.768" width="14.4519" height="14.4519" transform="rotate(-90 389.908 887.768)" fill="#2F1BC8"/>
<rect x="420.016" y="887.768" width="14.4519" height="14.4519" transform="rotate(-90 420.016 887.768)" fill="#2F1BC8"/>
<path d="M65.5996 409.819L65.5996 448.102L22.0579 487.24L-18.0158 487.24L-18.0158 409.819L65.5996 409.819Z" fill="#EF4421"/>
<rect x="390.965" y="713.312" width="86.7123" height="12.3875" transform="rotate(-90 390.965 713.312)" fill="#FED564"/>
<rect x="416.771" y="713.312" width="86.7123" height="12.3875" transform="rotate(-90 416.771 713.312)" fill="#FED564"/>
</svg>
