<svg width="374" height="32" viewBox="0 0 374 32" fill="none" xmlns="http://www.w3.org/2000/svg">
<path d="M0.869318 1.90909H7.31818L15.9545 22.9886H16.2955L24.9318 1.90909H31.3807V31H26.3239V11.0142H26.054L18.0142 30.9148H14.2358L6.19602 10.9716H5.92614V31H0.869318V1.90909ZM46.4091 31.4261C44.2784 31.4261 42.4318 30.9574 40.8693 30.0199C39.3068 29.0824 38.0947 27.7708 37.233 26.0852C36.3807 24.3996 35.9545 22.4299 35.9545 20.1761C35.9545 17.9223 36.3807 15.9479 37.233 14.2528C38.0947 12.5578 39.3068 11.2415 40.8693 10.304C42.4318 9.36648 44.2784 8.89773 46.4091 8.89773C48.5398 8.89773 50.3864 9.36648 51.9489 10.304C53.5114 11.2415 54.7188 12.5578 55.571 14.2528C56.4328 15.9479 56.8636 17.9223 56.8636 20.1761C56.8636 22.4299 56.4328 24.3996 55.571 26.0852C54.7188 27.7708 53.5114 29.0824 51.9489 30.0199C50.3864 30.9574 48.5398 31.4261 46.4091 31.4261ZM46.4375 27.3068C47.5928 27.3068 48.5587 26.9896 49.3352 26.3551C50.1117 25.7112 50.6894 24.8494 51.0682 23.7699C51.4564 22.6903 51.6506 21.4877 51.6506 20.1619C51.6506 18.8267 51.4564 17.6193 51.0682 16.5398C50.6894 15.4508 50.1117 14.5843 49.3352 13.9403C48.5587 13.2964 47.5928 12.9744 46.4375 12.9744C45.2538 12.9744 44.2689 13.2964 43.483 13.9403C42.7064 14.5843 42.1241 15.4508 41.7358 16.5398C41.357 17.6193 41.1676 18.8267 41.1676 20.1619C41.1676 21.4877 41.357 22.6903 41.7358 23.7699C42.1241 24.8494 42.7064 25.7112 43.483 26.3551C44.2689 26.9896 45.2538 27.3068 46.4375 27.3068ZM61.4553 31V1.90909H66.5973V12.7898H66.8104C67.0755 12.2595 67.4496 11.696 67.9325 11.0994C68.4155 10.4934 69.0689 9.97727 69.8928 9.55114C70.7166 9.11553 71.7678 8.89773 73.0462 8.89773C74.7318 8.89773 76.2517 9.3286 77.6058 10.1903C78.9695 11.0426 80.049 12.3068 80.8445 13.983C81.6494 15.6496 82.0518 17.6951 82.0518 20.1193C82.0518 22.5152 81.6589 24.5511 80.8729 26.2273C80.0869 27.9034 79.0168 29.1818 77.6626 30.0625C76.3085 30.9432 74.7744 31.3835 73.0604 31.3835C71.8104 31.3835 70.7734 31.1752 69.9496 30.7585C69.1257 30.3419 68.4628 29.84 67.9609 29.2528C67.4685 28.6562 67.085 28.0928 66.8104 27.5625H66.5121V31H61.4553ZM66.4979 20.0909C66.4979 21.5019 66.6967 22.7377 67.0945 23.7983C67.5017 24.8589 68.084 25.6875 68.8416 26.2841C69.6087 26.8712 70.5367 27.1648 71.6257 27.1648C72.7621 27.1648 73.7138 26.8617 74.4808 26.2557C75.2479 25.6402 75.8255 24.8021 76.2138 23.7415C76.6115 22.6714 76.8104 21.4545 76.8104 20.0909C76.8104 18.7367 76.6162 17.5341 76.228 16.483C75.8397 15.4318 75.2621 14.608 74.495 14.0114C73.728 13.4148 72.7715 13.1165 71.6257 13.1165C70.5272 13.1165 69.5945 13.4053 68.8274 13.983C68.0604 14.5606 67.478 15.3703 67.0803 16.4119C66.692 17.4536 66.4979 18.6799 66.4979 20.0909ZM86.4233 31V9.18182H91.5653V31H86.4233ZM89.0085 6.08523C88.1941 6.08523 87.4934 5.81534 86.9062 5.27557C86.3191 4.72632 86.0256 4.06818 86.0256 3.30114C86.0256 2.52462 86.3191 1.86648 86.9062 1.3267C87.4934 0.777461 88.1941 0.50284 89.0085 0.50284C89.8324 0.50284 90.5331 0.777461 91.1108 1.3267C91.6979 1.86648 91.9915 2.52462 91.9915 3.30114C91.9915 4.06818 91.6979 4.72632 91.1108 5.27557C90.5331 5.81534 89.8324 6.08523 89.0085 6.08523ZM101.995 1.90909V31H96.853V1.90909H101.995ZM116.942 31.4261C114.754 31.4261 112.865 30.9716 111.274 30.0625C109.693 29.1439 108.476 27.8466 107.624 26.1705C106.771 24.4848 106.345 22.5009 106.345 20.2188C106.345 17.9744 106.771 16.0047 107.624 14.3097C108.485 12.6051 109.688 11.2794 111.232 10.3324C112.775 9.37595 114.589 8.89773 116.672 8.89773C118.017 8.89773 119.286 9.11553 120.479 9.55114C121.681 9.97727 122.742 10.6402 123.661 11.5398C124.589 12.4394 125.318 13.5852 125.848 14.9773C126.378 16.3598 126.643 18.0076 126.643 19.9205V21.4972H108.76V18.0312H121.714C121.705 17.0464 121.492 16.1705 121.075 15.4034C120.659 14.6269 120.076 14.0161 119.328 13.571C118.589 13.1259 117.728 12.9034 116.743 12.9034C115.692 12.9034 114.768 13.1591 113.973 13.6705C113.178 14.1723 112.557 14.8352 112.112 15.6591C111.677 16.4735 111.454 17.3684 111.445 18.3438V21.3693C111.445 22.6383 111.677 23.7273 112.141 24.6364C112.605 25.536 113.253 26.2273 114.087 26.7102C114.92 27.1837 115.895 27.4205 117.013 27.4205C117.761 27.4205 118.438 27.3163 119.044 27.108C119.65 26.8902 120.176 26.5729 120.621 26.1562C121.066 25.7396 121.402 25.2235 121.629 24.608L126.43 25.1477C126.127 26.4167 125.55 27.5246 124.697 28.4716C123.855 29.4091 122.775 30.1383 121.459 30.6591C120.143 31.1705 118.637 31.4261 116.942 31.4261ZM165.049 1.90909V31H160.362L146.654 11.1847H146.413V31H141.143V1.90909H145.859L159.552 21.7386H159.808V1.90909H165.049ZM170.791 31V1.90909H189.428V6.3267H176.061V14.2244H188.149V18.642H176.061V31H170.791ZM192.95 6.3267V1.90909H216.161V6.3267H207.169V31H201.942V6.3267H192.95ZM255.457 11.7244H250.145C249.993 10.8532 249.714 10.0814 249.307 9.40909C248.9 8.72727 248.393 8.14962 247.787 7.67614C247.181 7.20265 246.49 6.84754 245.713 6.6108C244.946 6.36458 244.117 6.24148 243.227 6.24148C241.646 6.24148 240.244 6.6392 239.023 7.43466C237.801 8.22064 236.845 9.37595 236.153 10.9006C235.462 12.4157 235.116 14.267 235.116 16.4545C235.116 18.6799 235.462 20.5549 236.153 22.0795C236.854 23.5947 237.811 24.7405 239.023 25.517C240.244 26.2841 241.641 26.6676 243.213 26.6676C244.084 26.6676 244.899 26.554 245.656 26.3267C246.423 26.09 247.11 25.7443 247.716 25.2898C248.331 24.8352 248.848 24.2765 249.264 23.6136C249.69 22.9508 249.984 22.1932 250.145 21.3409L255.457 21.3693C255.259 22.7519 254.828 24.0492 254.165 25.2614C253.511 26.4735 252.654 27.5436 251.594 28.4716C250.533 29.3902 249.293 30.1098 247.872 30.6307C246.452 31.142 244.875 31.3977 243.142 31.3977C240.585 31.3977 238.303 30.8059 236.295 29.6222C234.288 28.4384 232.706 26.7292 231.551 24.4943C230.396 22.2595 229.818 19.5795 229.818 16.4545C229.818 13.3201 230.401 10.6402 231.565 8.41477C232.73 6.17992 234.316 4.47064 236.324 3.28693C238.331 2.10322 240.604 1.51136 243.142 1.51136C244.761 1.51136 246.267 1.73864 247.659 2.19318C249.051 2.64773 250.292 3.31534 251.381 4.19602C252.47 5.06723 253.365 6.13731 254.065 7.40625C254.776 8.66572 255.24 10.1051 255.457 11.7244ZM260.056 31V9.18182H265.042V12.8182H265.269C265.667 11.5587 266.349 10.5881 267.315 9.90625C268.29 9.21496 269.403 8.86932 270.653 8.86932C270.937 8.86932 271.254 8.88352 271.604 8.91193C271.964 8.93087 272.263 8.96401 272.499 9.01136V13.7415C272.281 13.6657 271.936 13.5994 271.462 13.5426C270.998 13.4763 270.549 13.4432 270.113 13.4432C269.175 13.4432 268.333 13.6468 267.585 14.054C266.846 14.4517 266.263 15.0057 265.837 15.7159C265.411 16.4261 265.198 17.2453 265.198 18.1733V31H260.056ZM284.676 31.4261C282.489 31.4261 280.599 30.9716 279.009 30.0625C277.427 29.1439 276.21 27.8466 275.358 26.1705C274.506 24.4848 274.08 22.5009 274.08 20.2188C274.08 17.9744 274.506 16.0047 275.358 14.3097C276.22 12.6051 277.422 11.2794 278.966 10.3324C280.509 9.37595 282.323 8.89773 284.406 8.89773C285.751 8.89773 287.02 9.11553 288.213 9.55114C289.416 9.97727 290.476 10.6402 291.395 11.5398C292.323 12.4394 293.052 13.5852 293.582 14.9773C294.113 16.3598 294.378 18.0076 294.378 19.9205V21.4972H276.494V18.0312H289.449C289.439 17.0464 289.226 16.1705 288.81 15.4034C288.393 14.6269 287.811 14.0161 287.062 13.571C286.324 13.1259 285.462 12.9034 284.477 12.9034C283.426 12.9034 282.503 13.1591 281.707 13.6705C280.912 14.1723 280.292 14.8352 279.847 15.6591C279.411 16.4735 279.188 17.3684 279.179 18.3438V21.3693C279.179 22.6383 279.411 23.7273 279.875 24.6364C280.339 25.536 280.988 26.2273 281.821 26.7102C282.654 27.1837 283.63 27.4205 284.747 27.4205C285.495 27.4205 286.172 27.3163 286.778 27.108C287.384 26.8902 287.91 26.5729 288.355 26.1562C288.8 25.7396 289.136 25.2235 289.364 24.608L294.165 25.1477C293.862 26.4167 293.284 27.5246 292.432 28.4716C291.589 29.4091 290.509 30.1383 289.193 30.6591C287.877 31.1705 286.371 31.4261 284.676 31.4261ZM305.006 31.4403C303.624 31.4403 302.379 31.1941 301.271 30.7017C300.172 30.1998 299.301 29.4612 298.657 28.4858C298.022 27.5104 297.705 26.3078 297.705 24.8778C297.705 23.6468 297.933 22.6288 298.387 21.8239C298.842 21.0189 299.462 20.375 300.248 19.892C301.034 19.4091 301.919 19.0445 302.904 18.7983C303.898 18.5426 304.926 18.358 305.987 18.2443C307.265 18.1117 308.302 17.9934 309.097 17.8892C309.893 17.7756 310.47 17.6051 310.83 17.3778C311.2 17.1411 311.384 16.7765 311.384 16.2841V16.1989C311.384 15.1288 311.067 14.3002 310.433 13.7131C309.798 13.1259 308.884 12.8324 307.691 12.8324C306.432 12.8324 305.433 13.107 304.694 13.6562C303.965 14.2055 303.472 14.8542 303.217 15.6023L298.415 14.9205C298.794 13.5947 299.419 12.4867 300.29 11.5966C301.162 10.697 302.227 10.0246 303.487 9.57955C304.746 9.125 306.138 8.89773 307.663 8.89773C308.714 8.89773 309.76 9.02083 310.802 9.26705C311.844 9.51326 312.795 9.92045 313.657 10.4886C314.519 11.0473 315.21 11.8097 315.731 12.7756C316.261 13.7415 316.526 14.9489 316.526 16.3977V31H311.583V28.0028H311.413C311.1 28.6089 310.66 29.1771 310.092 29.7074C309.533 30.2282 308.827 30.6496 307.975 30.9716C307.132 31.2841 306.143 31.4403 305.006 31.4403ZM306.342 27.6619C307.374 27.6619 308.269 27.4583 309.026 27.0511C309.784 26.6345 310.366 26.0852 310.773 25.4034C311.19 24.7216 311.398 23.9782 311.398 23.1733V20.6023C311.237 20.7348 310.963 20.858 310.575 20.9716C310.196 21.0852 309.77 21.1847 309.296 21.2699C308.823 21.3551 308.354 21.4309 307.89 21.4972C307.426 21.5634 307.023 21.6203 306.683 21.6676C305.915 21.7718 305.229 21.9422 304.623 22.179C304.017 22.4157 303.539 22.7472 303.188 23.1733C302.838 23.59 302.663 24.1297 302.663 24.7926C302.663 25.7396 303.008 26.4545 303.7 26.9375C304.391 27.4205 305.272 27.6619 306.342 27.6619ZM332.592 9.18182V13.1591H320.049V9.18182H332.592ZM323.146 3.95455H328.288V24.4375C328.288 25.1288 328.392 25.6591 328.6 26.0284C328.818 26.3883 329.102 26.6345 329.452 26.767C329.803 26.8996 330.191 26.9659 330.617 26.9659C330.939 26.9659 331.233 26.9422 331.498 26.8949C331.772 26.8475 331.981 26.8049 332.123 26.767L332.989 30.7869C332.715 30.8816 332.322 30.9858 331.81 31.0994C331.308 31.2131 330.693 31.2794 329.964 31.2983C328.676 31.3362 327.516 31.142 326.484 30.7159C325.451 30.2803 324.632 29.608 324.026 28.6989C323.43 27.7898 323.136 26.6534 323.146 25.2898V3.95455ZM346.175 31.4261C344.044 31.4261 342.197 30.9574 340.635 30.0199C339.072 29.0824 337.86 27.7708 336.999 26.0852C336.146 24.3996 335.72 22.4299 335.72 20.1761C335.72 17.9223 336.146 15.9479 336.999 14.2528C337.86 12.5578 339.072 11.2415 340.635 10.304C342.197 9.36648 344.044 8.89773 346.175 8.89773C348.305 8.89773 350.152 9.36648 351.714 10.304C353.277 11.2415 354.484 12.5578 355.337 14.2528C356.198 15.9479 356.629 17.9223 356.629 20.1761C356.629 22.4299 356.198 24.3996 355.337 26.0852C354.484 27.7708 353.277 29.0824 351.714 30.0199C350.152 30.9574 348.305 31.4261 346.175 31.4261ZM346.203 27.3068C347.358 27.3068 348.324 26.9896 349.101 26.3551C349.877 25.7112 350.455 24.8494 350.834 23.7699C351.222 22.6903 351.416 21.4877 351.416 20.1619C351.416 18.8267 351.222 17.6193 350.834 16.5398C350.455 15.4508 349.877 14.5843 349.101 13.9403C348.324 13.2964 347.358 12.9744 346.203 12.9744C345.019 12.9744 344.035 13.2964 343.249 13.9403C342.472 14.5843 341.89 15.4508 341.501 16.5398C341.123 17.6193 340.933 18.8267 340.933 20.1619C340.933 21.4877 341.123 22.6903 341.501 23.7699C341.89 24.8494 342.472 25.7112 343.249 26.3551C344.035 26.9896 345.019 27.3068 346.203 27.3068ZM360.994 31V9.18182H365.979V12.8182H366.207C366.604 11.5587 367.286 10.5881 368.252 9.90625C369.228 9.21496 370.34 8.86932 371.59 8.86932C371.874 8.86932 372.192 8.88352 372.542 8.91193C372.902 8.93087 373.2 8.96401 373.437 9.01136V13.7415C373.219 13.6657 372.873 13.5994 372.4 13.5426C371.936 13.4763 371.486 13.4432 371.05 13.4432C370.113 13.4432 369.27 13.6468 368.522 14.054C367.783 14.4517 367.201 15.0057 366.775 15.7159C366.349 16.4261 366.136 17.2453 366.136 18.1733V31H360.994Z" fill="#080830"/>
</svg>
