<svg width="429" height="927" viewBox="0 0 429 927" fill="none" xmlns="http://www.w3.org/2000/svg">
<g clip-path="url(#clip0_2500_472)">
<rect width="429" height="927" fill="#FBFBFB"/>
<path d="M435.146 0.705078H324.441V103.492H435.146V0.705078Z" stroke="#929292" stroke-opacity="0.1" stroke-width="2" stroke-miterlimit="10"/>
<path d="M435.154 103.492V104.197L380.181 155.251L324.814 103.845L325.194 103.492H435.154Z" stroke="#929292" stroke-opacity="0.1" stroke-width="2" stroke-miterlimit="10"/>
<path d="M325.187 103.492L324.441 104.183V103.492H325.187Z" stroke="#929292" stroke-opacity="0.1" stroke-width="2" stroke-miterlimit="10"/>
<path d="M435.15 104.197V206.292L380.177 155.251L435.15 104.197Z" stroke="#929292" stroke-opacity="0.1" stroke-width="2" stroke-miterlimit="10"/>
<path d="M435.151 206.292H325.191L380.178 155.251L435.151 206.292Z" stroke="#929292" stroke-opacity="0.1" stroke-width="2" stroke-miterlimit="10"/>
<path d="M435.15 206.983V309.079L380.177 258.038L435.15 206.983Z" stroke="#929292" stroke-opacity="0.1" stroke-width="2" stroke-miterlimit="10"/>
<path d="M435.146 309.079H324.441V206.292H325.187L324.821 206.644L380.173 258.038L435.146 309.079Z" stroke="#929292" stroke-opacity="0.1" stroke-width="2" stroke-miterlimit="10"/>
<path d="M324.438 309.087L324.438 411.874L435.142 411.874L435.142 309.087L324.438 309.087Z" stroke="#929292" stroke-opacity="0.1" stroke-width="2" stroke-miterlimit="10"/>
<path d="M435.146 411.866V514.666L324.807 412.219L324.441 412.558V411.866H435.146Z" stroke="#929292" stroke-opacity="0.1" stroke-width="2" stroke-miterlimit="10"/>
<path d="M435.15 515.357V617.453L380.177 566.412L435.15 515.357Z" stroke="#929292" stroke-opacity="0.1" stroke-width="2" stroke-miterlimit="10"/>
<path d="M435.151 617.454H325.191L380.178 566.413L435.151 617.454Z" stroke="#929292" stroke-opacity="0.1" stroke-width="2" stroke-miterlimit="10"/>
<path d="M380.173 566.412L325.187 617.453H324.441V515.358L324.807 515.006L380.173 566.412Z" stroke="#929292" stroke-opacity="0.1" stroke-width="2" stroke-miterlimit="10"/>
<path d="M325.187 514.666L324.807 515.005L324.441 515.357V514.666H325.187Z" stroke="#929292" stroke-opacity="0.1" stroke-width="2" stroke-miterlimit="10"/>
<path d="M325.187 617.453L324.821 617.805L324.441 618.144V617.453H325.187Z" stroke="#929292" stroke-opacity="0.1" stroke-width="2" stroke-miterlimit="10"/>
<path d="M435.156 618.145V720.24H325.21L380.183 669.199L435.156 618.145Z" stroke="#929292" stroke-opacity="0.1" stroke-width="2" stroke-miterlimit="10"/>
<path d="M324.443 0.705078V1.39694L269.457 52.451L213.725 0.705078H324.443Z" stroke="#929292" stroke-opacity="0.1" stroke-width="2" stroke-miterlimit="10"/>
<path d="M324.447 1.39648V103.492H324.433L269.46 52.4506L324.447 1.39648Z" stroke="#929292" stroke-opacity="0.1" stroke-width="2" stroke-miterlimit="10"/>
<path d="M324.443 103.492H213.725V206.292H324.443V103.492Z" stroke="#929292" stroke-opacity="0.1" stroke-width="2" stroke-miterlimit="10"/>
<path d="M324.443 206.292H213.725V309.079H324.443V206.292Z" stroke="#929292" stroke-opacity="0.1" stroke-width="2" stroke-miterlimit="10"/>
<path d="M324.443 309.078V411.865H324.429L269.457 360.824L214.104 309.431L213.725 309.783V309.078H324.443Z" stroke="#929292" stroke-opacity="0.1" stroke-width="2" stroke-miterlimit="10"/>
<path d="M324.446 514.667H214.473L269.46 463.613L324.446 514.667Z" stroke="#929292" stroke-opacity="0.1" stroke-width="2" stroke-miterlimit="10"/>
<path d="M214.484 411.866L214.104 412.218L213.725 412.57V411.866H214.484Z" stroke="#929292" stroke-opacity="0.1" stroke-width="2" stroke-miterlimit="10"/>
<path d="M324.447 515.357V617.453L269.46 566.398L324.447 515.357Z" stroke="#929292" stroke-opacity="0.1" stroke-width="2" stroke-miterlimit="10"/>
<path d="M324.446 617.452H214.473L269.46 566.398L324.446 617.452Z" stroke="#929292" stroke-opacity="0.1" stroke-width="2" stroke-miterlimit="10"/>
<path d="M214.47 514.666L214.104 515.005L213.725 515.37V514.666H214.47Z" stroke="#929292" stroke-opacity="0.1" stroke-width="2" stroke-miterlimit="10"/>
<path d="M324.437 720.239H214.491L269.464 669.198L324.437 720.239Z" stroke="#929292" stroke-opacity="0.1" stroke-width="2" stroke-miterlimit="10"/>
<path d="M269.457 669.2L214.484 720.241H213.725V618.146L214.104 617.807L269.457 669.2Z" stroke="#929292" stroke-opacity="0.1" stroke-width="2" stroke-miterlimit="10"/>
<path d="M214.47 617.453L214.104 617.805L213.725 618.144V617.453H214.47Z" stroke="#929292" stroke-opacity="0.1" stroke-width="2" stroke-miterlimit="10"/>
<path d="M213.731 0.705078V103.492L157.999 51.7461L212.972 0.705078H213.731Z" stroke="#929292" stroke-opacity="0.1" stroke-width="2" stroke-miterlimit="10"/>
<path d="M213.726 103.492H103.021V0.705078L157.994 51.7461L213.726 103.492Z" stroke="#929292" stroke-opacity="0.1" stroke-width="2" stroke-miterlimit="10"/>
<path d="M103.034 103.51L103.034 206.297L213.739 206.297L213.739 103.51L103.034 103.51Z" stroke="#929292" stroke-opacity="0.1" stroke-width="2" stroke-miterlimit="10"/>
<path d="M213.726 206.292V309.066L158.754 258.038L103.401 206.631L103.021 206.984V206.292H213.726Z" stroke="#929292" stroke-opacity="0.1" stroke-width="2" stroke-miterlimit="10"/>
<path d="M103.781 309.078L103.401 309.43L103.021 309.782V309.078H103.781Z" stroke="#929292" stroke-opacity="0.1" stroke-width="2" stroke-miterlimit="10"/>
<path d="M103.781 411.866L103.021 412.57V411.866H103.781Z" stroke="#929292" stroke-opacity="0.1" stroke-width="2" stroke-miterlimit="10"/>
<path d="M103.767 514.666L103.021 515.357V514.666H103.767Z" stroke="#929292" stroke-opacity="0.1" stroke-width="2" stroke-miterlimit="10"/>
<path d="M103.781 617.453L103.021 618.157V617.453H103.781Z" stroke="#929292" stroke-opacity="0.1" stroke-width="2" stroke-miterlimit="10"/>
<path d="M213.731 618.145V720.24H212.227L157.999 669.891L213.731 618.145Z" stroke="#929292" stroke-opacity="0.1" stroke-width="2" stroke-miterlimit="10"/>
<path d="M212.227 720.24H103.771L157.999 669.891L212.227 720.24Z" stroke="#929292" stroke-opacity="0.1" stroke-width="2" stroke-miterlimit="10"/>
<path d="M-7.68359 0.715958L-7.68359 103.503L103.021 103.503L103.021 0.715958L-7.68359 0.715958Z" stroke="#929292" stroke-opacity="0.1" stroke-width="2" stroke-miterlimit="10"/>
<path d="M103.03 103.492H-7.6748V206.292H103.03V103.492Z" stroke="#929292" stroke-opacity="0.1" stroke-width="2" stroke-miterlimit="10"/>
<path d="M48.0572 258.038L-6.92965 309.079H-7.6748V206.292L48.0572 258.038Z" stroke="#929292" stroke-opacity="0.1" stroke-width="2" stroke-miterlimit="10"/>
<path d="M103.022 309.079H-6.9375L48.0494 258.038L103.022 309.079Z" stroke="#929292" stroke-opacity="0.1" stroke-width="2" stroke-miterlimit="10"/>
<path d="M103.021 206.983V309.079L48.0479 258.038L103.021 206.983Z" stroke="#929292" stroke-opacity="0.1" stroke-width="2" stroke-miterlimit="10"/>
<path d="M48.0572 360.825L-6.91559 411.866H-7.6748V309.771L-7.2952 309.432L48.0572 360.825Z" stroke="#929292" stroke-opacity="0.1" stroke-width="2" stroke-miterlimit="10"/>
<path d="M48.0572 463.611L-6.92965 514.665H-7.6748V412.57L-7.2952 412.218L48.0572 463.611Z" stroke="#929292" stroke-opacity="0.1" stroke-width="2" stroke-miterlimit="10"/>
<path d="M103.03 514.666V515.358L47.298 567.104L-7.6748 516.076V515.358L-6.92965 514.666H103.03Z" stroke="#929292" stroke-opacity="0.1" stroke-width="2" stroke-miterlimit="10"/>
<path d="M47.298 567.103L-6.92965 617.452H-7.6748V516.075L47.298 567.103Z" stroke="#929292" stroke-opacity="0.1" stroke-width="2" stroke-miterlimit="10"/>
<path d="M47.298 669.903L-6.91559 720.239H-7.6748V618.862L47.298 669.903Z" stroke="#929292" stroke-opacity="0.1" stroke-width="2" stroke-miterlimit="10"/>
<path d="M102.65 618.51L47.298 669.904L-7.6748 618.863V618.145L-6.92965 617.453H101.512L102.65 618.51Z" stroke="#929292" stroke-opacity="0.1" stroke-width="2" stroke-miterlimit="10"/>
<path d="M103.028 617.453V618.85L102.649 618.511L101.51 617.453H103.028Z" stroke="#929292" stroke-opacity="0.1" stroke-width="2" stroke-miterlimit="10"/>
<path d="M435.146 103.505L324.441 0.705078" stroke="#929292" stroke-opacity="0.1" stroke-width="2" stroke-miterlimit="10"/>
<path d="M324.437 103.492H214.491L269.464 52.4512L324.437 103.492Z" stroke="#929292" stroke-opacity="0.1" stroke-width="2" stroke-miterlimit="10"/>
<path d="M324.434 103.492L324.448 103.505L324.813 103.844" stroke="#929292" stroke-opacity="0.1" stroke-width="2" stroke-miterlimit="10"/>
<path d="M213.733 721.637L212.229 720.24" stroke="#929292" stroke-opacity="0.1" stroke-width="2" stroke-miterlimit="10"/>
<path d="M102.268 0L102.647 0.352039L103.027 0.704078" stroke="#929292" stroke-opacity="0.1" stroke-width="2" stroke-miterlimit="10"/>
<path d="M435.154 206.292V206.984L380.182 258.038L324.829 206.644L325.195 206.292H435.154Z" stroke="#929292" stroke-opacity="0.1" stroke-width="2" stroke-miterlimit="10"/>
<path d="M213.725 103.492L214.104 103.845L269.457 155.238L324.443 206.292L324.823 206.645" stroke="#929292" stroke-opacity="0.1" stroke-width="2" stroke-miterlimit="10"/>
<path d="M380.173 669.2L325.201 720.241H324.441V618.146L324.821 617.807L380.173 669.2Z" stroke="#929292" stroke-opacity="0.1" stroke-width="2" stroke-miterlimit="10"/>
<path d="M325.187 720.944L324.807 720.592L324.441 720.24" stroke="#929292" stroke-opacity="0.1" stroke-width="2" stroke-miterlimit="10"/>
<path d="M324.449 617.453V618.145L269.462 669.199L214.109 617.806L214.475 617.453H324.449Z" stroke="#929292" stroke-opacity="0.1" stroke-width="2" stroke-miterlimit="10"/>
<path d="M103.025 411.866V412.571L48.0526 463.612L-7.2998 412.219L-6.9202 411.866H103.025Z" stroke="#929292" stroke-opacity="0.1" stroke-width="2" stroke-miterlimit="10"/>
<path d="M214.104 617.805L213.725 617.453" stroke="#929292" stroke-opacity="0.1" stroke-width="2" stroke-miterlimit="10"/>
<path d="M103.408 515.005L103.042 514.666" stroke="#929292" stroke-opacity="0.1" stroke-width="2" stroke-miterlimit="10"/>
<path d="M435.159 411.866L380.186 360.825L324.833 309.431L324.454 309.079L269.481 258.038L214.115 206.631L213.749 206.292H213.735V206.279L158.762 155.238L103.03 103.492L102.65 103.14L47.298 51.7461L-7.6748 0.705078" stroke="#929292" stroke-opacity="0.1" stroke-width="2" stroke-miterlimit="10"/>
<path d="M-7.6748 103.492L47.298 154.533L103.03 206.279V206.292H103.044L103.41 206.632" stroke="#929292" stroke-opacity="0.1" stroke-width="2" stroke-miterlimit="10"/>
<path d="M213.725 309.078H213.739L214.104 309.43" stroke="#929292" stroke-opacity="0.1" stroke-width="2" stroke-miterlimit="10"/>
<path d="M324.437 411.865H214.491L269.464 360.824L324.437 411.865Z" stroke="#929292" stroke-opacity="0.1" stroke-width="2" stroke-miterlimit="10"/>
<path d="M324.807 412.219L324.441 411.88" stroke="#929292" stroke-opacity="0.1" stroke-width="2" stroke-miterlimit="10"/>
<path d="M435.151 514.667H325.191L380.164 463.613L435.151 514.667Z" stroke="#929292" stroke-opacity="0.1" stroke-width="2" stroke-miterlimit="10"/>
<path d="M435.154 514.666V515.358L380.181 566.412L324.814 515.005L325.194 514.666H435.154Z" stroke="#929292" stroke-opacity="0.1" stroke-width="2" stroke-miterlimit="10"/>
<path d="M214.104 412.218L213.725 411.866" stroke="#929292" stroke-opacity="0.1" stroke-width="2" stroke-miterlimit="10"/>
<path d="M324.807 515.005L324.441 514.666" stroke="#929292" stroke-opacity="0.1" stroke-width="2" stroke-miterlimit="10"/>
<path d="M103.401 309.43L103.021 309.078" stroke="#929292" stroke-opacity="0.1" stroke-width="2" stroke-miterlimit="10"/>
<path d="M435.154 617.453V618.145L380.182 669.199L324.829 617.806L325.195 617.453H435.154Z" stroke="#929292" stroke-opacity="0.1" stroke-width="2" stroke-miterlimit="10"/>
<path d="M435.15 720.239L380.177 669.198" stroke="#929292" stroke-opacity="0.1" stroke-width="2" stroke-miterlimit="10"/>
<path d="M324.821 617.805L324.441 617.453" stroke="#929292" stroke-opacity="0.1" stroke-width="2" stroke-miterlimit="10"/>
<path d="M103.401 412.218L103.021 411.866" stroke="#929292" stroke-opacity="0.1" stroke-width="2" stroke-miterlimit="10"/>
<path d="M214.109 515.005L213.743 514.666" stroke="#929292" stroke-opacity="0.1" stroke-width="2" stroke-miterlimit="10"/>
<path d="M157.994 669.891L103.767 720.24H103.021V618.85L157.994 669.891Z" stroke="#929292" stroke-opacity="0.1" stroke-width="2" stroke-miterlimit="10"/>
<path d="M103.026 721.637L102.646 721.285L101.521 720.24" stroke="#929292" stroke-opacity="0.1" stroke-width="2" stroke-miterlimit="10"/>
<path d="M325.201 720.24L324.807 720.592L324.441 720.944" stroke="#929292" stroke-opacity="0.1" stroke-width="2" stroke-miterlimit="10"/>
<path d="M324.447 618.145V720.24H324.433L269.46 669.199L324.447 618.145Z" stroke="#929292" stroke-opacity="0.1" stroke-width="2" stroke-miterlimit="10"/>
<path d="M214.484 720.24L213.725 720.944" stroke="#929292" stroke-opacity="0.1" stroke-width="2" stroke-miterlimit="10"/>
<path d="M212.967 0.705078L157.994 51.7461L103.021 0.705078H212.967Z" stroke="#929292" stroke-opacity="0.1" stroke-width="2" stroke-miterlimit="10"/>
<path d="M-7.69531 205.587L-7.68125 205.574L47.2916 154.533L102.264 103.492L102.644 103.14L103.024 102.787L157.996 51.7461" stroke="#929292" stroke-opacity="0.1" stroke-width="2" stroke-miterlimit="10"/>
<path d="M213.726 0L212.967 0.704078" stroke="#929292" stroke-opacity="0.1" stroke-width="2" stroke-miterlimit="10"/>
<path d="M324.449 514.666V515.358L269.462 566.399L214.109 515.005L214.475 514.666H324.449Z" stroke="#929292" stroke-opacity="0.1" stroke-width="2" stroke-miterlimit="10"/>
<path d="M269.457 566.399L214.47 617.453H213.725V515.371L214.104 515.006L269.457 566.399Z" stroke="#929292" stroke-opacity="0.1" stroke-width="2" stroke-miterlimit="10"/>
<path d="M213.726 515.37V617.452L158.753 566.411L213.726 515.37Z" stroke="#929292" stroke-opacity="0.1" stroke-width="2" stroke-miterlimit="10"/>
<path d="M213.726 617.453V618.145L157.994 669.891L103.021 618.85V618.158L103.781 617.453H213.726Z" stroke="#929292" stroke-opacity="0.1" stroke-width="2" stroke-miterlimit="10"/>
<path d="M102.268 721.637L102.647 721.285L103.772 720.24" stroke="#929292" stroke-opacity="0.1" stroke-width="2" stroke-miterlimit="10"/>
<path d="M435.156 412.57L380.169 463.611" stroke="#929292" stroke-opacity="0.1" stroke-width="2" stroke-miterlimit="10"/>
<path d="M269.457 52.451L214.484 103.492H213.725V0.705078L269.457 52.451Z" stroke="#929292" stroke-opacity="0.1" stroke-width="2" stroke-miterlimit="10"/>
<path d="M103.03 206.292V206.984L48.0572 258.038L-7.6748 206.292H103.03Z" stroke="#929292" stroke-opacity="0.1" stroke-width="2" stroke-miterlimit="10"/>
<path d="M103.404 206.632L103.77 206.292L158.757 155.238L213.73 104.197L214.109 103.845L214.489 103.492" stroke="#929292" stroke-opacity="0.1" stroke-width="2" stroke-miterlimit="10"/>
<path d="M103.025 309.078V309.783L48.0526 360.824L-7.2998 309.431L-6.93426 309.078H103.025Z" stroke="#929292" stroke-opacity="0.1" stroke-width="2" stroke-miterlimit="10"/>
<path d="M325.187 0.705078L324.821 1.05712L324.441 1.39612" stroke="#929292" stroke-opacity="0.1" stroke-width="2" stroke-miterlimit="10"/>
<path d="M380.159 463.611L325.187 514.665H324.441V412.557L324.807 412.218L380.159 463.611Z" stroke="#929292" stroke-opacity="0.1" stroke-width="2" stroke-miterlimit="10"/>
<path d="M324.447 412.558V514.666L269.46 463.612L324.447 412.558Z" stroke="#929292" stroke-opacity="0.1" stroke-width="2" stroke-miterlimit="10"/>
<path d="M101.52 720.24H-6.9209L47.2927 669.903L101.52 720.24Z" stroke="#929292" stroke-opacity="0.1" stroke-width="2" stroke-miterlimit="10"/>
<path d="M103.022 618.849V720.239H101.518L47.29 669.903L102.642 618.51L103.022 618.849Z" stroke="#929292" stroke-opacity="0.1" stroke-width="2" stroke-miterlimit="10"/>
<path d="M103.022 618.157L102.643 618.509" stroke="#929292" stroke-opacity="0.1" stroke-width="2" stroke-miterlimit="10"/>
<path d="M324.449 411.866V412.558L269.462 463.612L214.109 412.219L214.489 411.866H324.449Z" stroke="#929292" stroke-opacity="0.1" stroke-width="2" stroke-miterlimit="10"/>
<path d="M269.457 463.611L214.47 514.665H213.725V412.57L214.104 412.218L269.457 463.611Z" stroke="#929292" stroke-opacity="0.1" stroke-width="2" stroke-miterlimit="10"/>
<path d="M324.814 412.218L325.194 411.866L380.181 360.825L435.154 309.771" stroke="#929292" stroke-opacity="0.1" stroke-width="2" stroke-miterlimit="10"/>
<path d="M269.457 360.825L214.484 411.866H213.725V309.784L214.104 309.432L269.457 360.825Z" stroke="#929292" stroke-opacity="0.1" stroke-width="2" stroke-miterlimit="10"/>
<path d="M380.179 258.038L325.192 309.079L324.826 309.432L324.447 309.771L269.46 360.825" stroke="#929292" stroke-opacity="0.1" stroke-width="2" stroke-miterlimit="10"/>
<path d="M213.73 514.666V515.371L158.757 566.412L103.404 515.005L103.77 514.666H213.73Z" stroke="#929292" stroke-opacity="0.1" stroke-width="2" stroke-miterlimit="10"/>
<path d="M213.725 617.454H103.779L158.752 566.413L213.725 617.454Z" stroke="#929292" stroke-opacity="0.1" stroke-width="2" stroke-miterlimit="10"/>
<path d="M158.754 566.412L103.781 617.453H103.021V515.358L103.401 515.006L158.754 566.412Z" stroke="#929292" stroke-opacity="0.1" stroke-width="2" stroke-miterlimit="10"/>
<path d="M103.022 515.357V617.453H101.504L47.29 567.103L103.022 515.357Z" stroke="#929292" stroke-opacity="0.1" stroke-width="2" stroke-miterlimit="10"/>
<path d="M101.504 617.453H-6.9375L47.2902 567.104L101.504 617.453Z" stroke="#929292" stroke-opacity="0.1" stroke-width="2" stroke-miterlimit="10"/>
<path d="M213.726 412.57V514.652L158.753 463.611L213.726 412.57Z" stroke="#929292" stroke-opacity="0.1" stroke-width="2" stroke-miterlimit="10"/>
<path d="M213.73 411.866V412.571L158.757 463.612L103.404 412.219L103.784 411.866H213.73Z" stroke="#929292" stroke-opacity="0.1" stroke-width="2" stroke-miterlimit="10"/>
<path d="M158.754 463.611L103.767 514.665H103.021V412.57L103.401 412.218L158.754 463.611Z" stroke="#929292" stroke-opacity="0.1" stroke-width="2" stroke-miterlimit="10"/>
<path d="M213.731 514.654V514.667H103.771L158.758 463.613L213.731 514.654Z" stroke="#929292" stroke-opacity="0.1" stroke-width="2" stroke-miterlimit="10"/>
<path d="M103.022 514.654V514.667H-6.9375L48.0494 463.613L103.022 514.654Z" stroke="#929292" stroke-opacity="0.1" stroke-width="2" stroke-miterlimit="10"/>
<path d="M103.021 412.57V514.652L48.0479 463.611L103.021 412.57Z" stroke="#929292" stroke-opacity="0.1" stroke-width="2" stroke-miterlimit="10"/>
<path d="M324.828 206.645L324.449 206.984L269.476 258.038L214.489 309.079L214.109 309.432" stroke="#929292" stroke-opacity="0.1" stroke-width="2" stroke-miterlimit="10"/>
<path d="M380.173 155.25L325.187 206.291H324.441V104.183L324.807 103.844L380.173 155.25Z" stroke="#929292" stroke-opacity="0.1" stroke-width="2" stroke-miterlimit="10"/>
<path d="M158.754 258.037L103.781 309.078H103.021V206.983L103.401 206.631L158.754 258.037Z" stroke="#929292" stroke-opacity="0.1" stroke-width="2" stroke-miterlimit="10"/>
<path d="M324.445 104.184L269.458 155.238L214.471 206.292L214.105 206.631L213.726 206.997L158.753 258.038" stroke="#929292" stroke-opacity="0.1" stroke-width="2" stroke-miterlimit="10"/>
<path d="M213.725 309.066V309.079H103.779L158.752 258.038L213.725 309.066Z" stroke="#929292" stroke-opacity="0.1" stroke-width="2" stroke-miterlimit="10"/>
<path d="M213.73 309.078V309.783L158.757 360.824L103.404 309.431L103.784 309.078H213.73Z" stroke="#929292" stroke-opacity="0.1" stroke-width="2" stroke-miterlimit="10"/>
<path d="M213.726 309.783V411.865L158.753 360.824L213.726 309.783Z" stroke="#929292" stroke-opacity="0.1" stroke-width="2" stroke-miterlimit="10"/>
<path d="M158.754 360.825L103.781 411.866H103.021V309.784L103.401 309.432L158.754 360.825Z" stroke="#929292" stroke-opacity="0.1" stroke-width="2" stroke-miterlimit="10"/>
<path d="M213.725 411.865H103.779L158.752 360.824L213.725 411.865Z" stroke="#929292" stroke-opacity="0.1" stroke-width="2" stroke-miterlimit="10"/>
<path d="M103.025 411.865H-6.9209L48.0519 360.824L103.025 411.865Z" stroke="#929292" stroke-opacity="0.1" stroke-width="2" stroke-miterlimit="10"/>
<path d="M103.021 309.783V411.865L48.0479 360.824L103.021 309.783Z" stroke="#929292" stroke-opacity="0.1" stroke-width="2" stroke-miterlimit="10"/>
<path d="M435.151 1.39648L380.178 52.4506L325.191 103.492" stroke="#929292" stroke-opacity="0.1" stroke-width="2" stroke-miterlimit="10"/>
<path d="M103.03 0.0126953L-7.6748 102.8" stroke="#929292" stroke-opacity="0.1" stroke-width="2" stroke-miterlimit="10"/>
<path d="M102.269 766.15L102.648 766.502L103.028 766.854" stroke="#929292" stroke-opacity="0.1" stroke-width="2" stroke-miterlimit="10"/>
<path d="M213.727 766.15L212.968 766.854" stroke="#929292" stroke-opacity="0.1" stroke-width="2" stroke-miterlimit="10"/>
<path d="M325.189 766.856L324.823 767.209L324.443 767.547" stroke="#929292" stroke-opacity="0.1" stroke-width="2" stroke-miterlimit="10"/>
<path d="M435.152 720.866V822.961L380.179 771.92L435.152 720.866Z" stroke="#929292" stroke-opacity="0.1" stroke-width="2" stroke-miterlimit="10"/>
<path d="M435.153 822.961H325.193L380.18 771.92L435.153 822.961Z" stroke="#929292" stroke-opacity="0.1" stroke-width="2" stroke-miterlimit="10"/>
<path d="M380.175 771.921L325.189 822.962H324.443V720.867L324.809 720.515L380.175 771.921Z" stroke="#929292" stroke-opacity="0.1" stroke-width="2" stroke-miterlimit="10"/>
<path d="M325.189 822.961L324.823 823.313L324.443 823.652V822.961H325.189Z" stroke="#929292" stroke-opacity="0.1" stroke-width="2" stroke-miterlimit="10"/>
<path d="M435.157 823.653V925.748H325.211L380.184 874.707L435.157 823.653Z" stroke="#929292" stroke-opacity="0.1" stroke-width="2" stroke-miterlimit="10"/>
<path d="M324.449 720.866V822.961L269.462 771.907L324.449 720.866Z" stroke="#929292" stroke-opacity="0.1" stroke-width="2" stroke-miterlimit="10"/>
<path d="M324.447 822.962H214.474L269.461 771.908L324.447 822.962Z" stroke="#929292" stroke-opacity="0.1" stroke-width="2" stroke-miterlimit="10"/>
<path d="M324.438 925.749H214.492L269.465 874.708L324.438 925.749Z" stroke="#929292" stroke-opacity="0.1" stroke-width="2" stroke-miterlimit="10"/>
<path d="M269.458 874.708L214.485 925.749H213.726V823.654L214.105 823.314L269.458 874.708Z" stroke="#929292" stroke-opacity="0.1" stroke-width="2" stroke-miterlimit="10"/>
<path d="M214.471 822.961L214.105 823.313L213.726 823.652V822.961H214.471Z" stroke="#929292" stroke-opacity="0.1" stroke-width="2" stroke-miterlimit="10"/>
<path d="M103.783 822.961L103.023 823.665V822.961H103.783Z" stroke="#929292" stroke-opacity="0.1" stroke-width="2" stroke-miterlimit="10"/>
<path d="M213.733 823.653V925.748H212.229L158.001 875.399L213.733 823.653Z" stroke="#929292" stroke-opacity="0.1" stroke-width="2" stroke-miterlimit="10"/>
<path d="M212.229 925.748H103.773L158.001 875.398L212.229 925.748Z" stroke="#929292" stroke-opacity="0.1" stroke-width="2" stroke-miterlimit="10"/>
<path d="M103.031 720.176V720.868L47.299 772.614L-7.67383 721.586V720.868L-6.92867 720.176H103.031Z" stroke="#929292" stroke-opacity="0.1" stroke-width="2" stroke-miterlimit="10"/>
<path d="M47.299 772.613L-6.92867 822.962H-7.67383V721.585L47.299 772.613Z" stroke="#929292" stroke-opacity="0.1" stroke-width="2" stroke-miterlimit="10"/>
<path d="M47.299 875.412L-6.91461 925.748H-7.67383V824.371L47.299 875.412Z" stroke="#929292" stroke-opacity="0.1" stroke-width="2" stroke-miterlimit="10"/>
<path d="M102.651 824.018L47.299 875.412L-7.67383 824.371V823.653L-6.92867 822.961H101.513L102.651 824.018Z" stroke="#929292" stroke-opacity="0.1" stroke-width="2" stroke-miterlimit="10"/>
<path d="M103.029 822.961V824.358L102.65 824.018L101.511 822.961H103.029Z" stroke="#929292" stroke-opacity="0.1" stroke-width="2" stroke-miterlimit="10"/>
<path d="M213.734 927.145L212.229 925.748" stroke="#929292" stroke-opacity="0.1" stroke-width="2" stroke-miterlimit="10"/>
<path d="M380.175 874.708L325.203 925.749H324.443V823.654L324.823 823.314L380.175 874.708Z" stroke="#929292" stroke-opacity="0.1" stroke-width="2" stroke-miterlimit="10"/>
<path d="M325.189 926.452L324.809 926.1L324.443 925.748" stroke="#929292" stroke-opacity="0.1" stroke-width="2" stroke-miterlimit="10"/>
<path d="M324.451 822.961V823.653L269.464 874.707L214.111 823.313L214.477 822.961H324.451Z" stroke="#929292" stroke-opacity="0.1" stroke-width="2" stroke-miterlimit="10"/>
<path d="M214.105 823.313L213.726 822.961" stroke="#929292" stroke-opacity="0.1" stroke-width="2" stroke-miterlimit="10"/>
<path d="M435.156 720.176V720.868L380.183 771.922L324.816 720.515L325.196 720.176H435.156Z" stroke="#929292" stroke-opacity="0.1" stroke-width="2" stroke-miterlimit="10"/>
<path d="M435.155 822.961V823.653L380.182 874.707L324.83 823.313L325.196 822.961H435.155Z" stroke="#929292" stroke-opacity="0.1" stroke-width="2" stroke-miterlimit="10"/>
<path d="M435.152 925.749L380.179 874.708" stroke="#929292" stroke-opacity="0.1" stroke-width="2" stroke-miterlimit="10"/>
<path d="M324.823 823.313L324.443 822.961" stroke="#929292" stroke-opacity="0.1" stroke-width="2" stroke-miterlimit="10"/>
<path d="M157.996 875.398L103.769 925.748H103.023V824.357L157.996 875.398Z" stroke="#929292" stroke-opacity="0.1" stroke-width="2" stroke-miterlimit="10"/>
<path d="M103.028 927.145L102.648 926.792L101.523 925.748" stroke="#929292" stroke-opacity="0.1" stroke-width="2" stroke-miterlimit="10"/>
<path d="M325.203 925.748L324.809 926.1L324.443 926.452" stroke="#929292" stroke-opacity="0.1" stroke-width="2" stroke-miterlimit="10"/>
<path d="M324.449 823.653V925.748H324.435L269.462 874.707L324.449 823.653Z" stroke="#929292" stroke-opacity="0.1" stroke-width="2" stroke-miterlimit="10"/>
<path d="M214.485 925.748L213.726 926.452" stroke="#929292" stroke-opacity="0.1" stroke-width="2" stroke-miterlimit="10"/>
<path d="M324.451 720.176V720.868L269.464 771.909L214.111 720.515L214.477 720.176H324.451Z" stroke="#929292" stroke-opacity="0.1" stroke-width="2" stroke-miterlimit="10"/>
<path d="M269.458 771.908L214.471 822.962H213.726V720.88L214.105 720.515L269.458 771.908Z" stroke="#929292" stroke-opacity="0.1" stroke-width="2" stroke-miterlimit="10"/>
<path d="M213.728 720.879V822.961L158.755 771.92L213.728 720.879Z" stroke="#929292" stroke-opacity="0.1" stroke-width="2" stroke-miterlimit="10"/>
<path d="M213.728 822.961V823.653L157.996 875.399L103.023 824.358V823.666L103.783 822.961H213.728Z" stroke="#929292" stroke-opacity="0.1" stroke-width="2" stroke-miterlimit="10"/>
<path d="M102.269 927.145L102.648 926.792L103.773 925.748" stroke="#929292" stroke-opacity="0.1" stroke-width="2" stroke-miterlimit="10"/>
<path d="M101.521 925.749H-6.91992L47.2937 875.413L101.521 925.749Z" stroke="#929292" stroke-opacity="0.1" stroke-width="2" stroke-miterlimit="10"/>
<path d="M103.024 824.359V925.749H101.52L47.292 875.413L102.644 824.02L103.024 824.359Z" stroke="#929292" stroke-opacity="0.1" stroke-width="2" stroke-miterlimit="10"/>
<path d="M103.024 823.666L102.645 824.018" stroke="#929292" stroke-opacity="0.1" stroke-width="2" stroke-miterlimit="10"/>
<path d="M213.732 720.176V720.881L158.759 771.922L103.406 720.515L103.772 720.176H213.732Z" stroke="#929292" stroke-opacity="0.1" stroke-width="2" stroke-miterlimit="10"/>
<path d="M213.727 822.961H103.781L158.754 771.92L213.727 822.961Z" stroke="#929292" stroke-opacity="0.1" stroke-width="2" stroke-miterlimit="10"/>
<path d="M158.756 771.921L103.783 822.962H103.023V720.867L103.403 720.515L158.756 771.921Z" stroke="#929292" stroke-opacity="0.1" stroke-width="2" stroke-miterlimit="10"/>
<path d="M103.024 720.866V822.961H101.506L47.292 772.612L103.024 720.866Z" stroke="#929292" stroke-opacity="0.1" stroke-width="2" stroke-miterlimit="10"/>
<path d="M101.506 822.962H-6.93555L47.2921 772.613L101.506 822.962Z" stroke="#929292" stroke-opacity="0.1" stroke-width="2" stroke-miterlimit="10"/>
<rect x="-3" width="46" height="43" fill="#FED564"/>
<rect x="-14" y="837" width="46" height="44" fill="#2F1BC8"/>
<rect x="44" y="43" width="61.7099" height="7.96256" fill="#2F1BC8"/>
<rect x="44" y="59.5889" width="61.7099" height="7.96256" fill="#2F1BC8"/>
<rect x="44" y="76.1777" width="61.7099" height="7.96256" fill="#2F1BC8"/>
<rect x="44" y="92.7656" width="61.7099" height="7.96256" fill="#2F1BC8"/>
<rect x="366" y="167" width="9.61216" height="9.61216" fill="#FED564"/>
<rect x="366" y="187.025" width="9.61216" height="9.61216" fill="#FED564"/>
<rect x="366" y="207.051" width="9.61216" height="9.61216" fill="#FED564"/>
<rect x="366" y="227.076" width="9.61216" height="9.61216" fill="#FED564"/>
<rect x="385.224" y="167" width="9.61216" height="9.61216" fill="#FED564"/>
<rect x="385.224" y="187.025" width="9.61216" height="9.61216" fill="#FED564"/>
<rect x="385.224" y="207.051" width="9.61216" height="9.61216" fill="#FED564"/>
<rect x="385.224" y="227.076" width="9.61216" height="9.61216" fill="#FED564"/>
<rect x="358" y="911.858" width="10.2865" height="10.2865" transform="rotate(-90 358 911.858)" fill="#2F1BC8"/>
<rect x="379.43" y="911.858" width="10.2865" height="10.2865" transform="rotate(-90 379.43 911.858)" fill="#2F1BC8"/>
<rect x="400.86" y="911.858" width="10.2865" height="10.2865" transform="rotate(-90 400.86 911.858)" fill="#2F1BC8"/>
<rect x="422.291" y="911.858" width="10.2865" height="10.2865" transform="rotate(-90 422.291 911.858)" fill="#2F1BC8"/>
<rect x="358" y="891.286" width="10.2865" height="10.2865" transform="rotate(-90 358 891.286)" fill="#2F1BC8"/>
<rect x="379.43" y="891.286" width="10.2865" height="10.2865" transform="rotate(-90 379.43 891.286)" fill="#2F1BC8"/>
<rect x="400.86" y="891.286" width="10.2865" height="10.2865" transform="rotate(-90 400.86 891.286)" fill="#2F1BC8"/>
<rect x="422.291" y="891.286" width="10.2865" height="10.2865" transform="rotate(-90 422.291 891.286)" fill="#2F1BC8"/>
<path d="M36 631L36 655.724L7.88018 681L-18 681L-18 631L36 631Z" fill="#EF4421"/>
<rect x="376" y="746" width="77" height="9.21505" transform="rotate(-90 376 746)" fill="#FED564"/>
<rect x="395.198" y="746" width="77" height="9.21505" transform="rotate(-90 395.198 746)" fill="#FED564"/>
<rect x="414.396" y="746" width="77" height="9.21505" transform="rotate(-90 414.396 746)" fill="#FED564"/>
<path d="M395 167V141.782L424.131 116H453V167H395Z" fill="#3A8977"/>
<path d="M41.6605 313.182H46.1243L51.4616 322.834H51.6747L57.0121 313.182H61.4759L53.5391 326.861V335H49.5973V326.861L41.6605 313.182ZM68.1955 335.32C66.5975 335.32 65.2125 334.968 64.0407 334.265C62.8688 333.562 61.9597 332.578 61.3134 331.314C60.6742 330.05 60.3546 328.572 60.3546 326.882C60.3546 325.192 60.6742 323.711 61.3134 322.44C61.9597 321.168 62.8688 320.181 64.0407 319.478C65.2125 318.775 66.5975 318.423 68.1955 318.423C69.7935 318.423 71.1784 318.775 72.3503 319.478C73.5222 320.181 74.4277 321.168 75.0669 322.44C75.7132 323.711 76.0364 325.192 76.0364 326.882C76.0364 328.572 75.7132 330.05 75.0669 331.314C74.4277 332.578 73.5222 333.562 72.3503 334.265C71.1784 334.968 69.7935 335.32 68.1955 335.32ZM68.2168 332.23C69.0833 332.23 69.8077 331.992 70.3901 331.516C70.9725 331.033 71.4057 330.387 71.6898 329.577C71.981 328.768 72.1266 327.866 72.1266 326.871C72.1266 325.87 71.981 324.964 71.6898 324.155C71.4057 323.338 70.9725 322.688 70.3901 322.205C69.8077 321.722 69.0833 321.481 68.2168 321.481C67.329 321.481 66.5904 321.722 66.0009 322.205C65.4185 322.688 64.9817 323.338 64.6905 324.155C64.4064 324.964 64.2644 325.87 64.2644 326.871C64.2644 327.866 64.4064 328.768 64.6905 329.577C64.9817 330.387 65.4185 331.033 66.0009 331.516C66.5904 331.992 67.329 332.23 68.2168 332.23ZM89.7393 328.118V318.636H93.5959V335H89.8565V332.092H89.6861C89.3168 333.008 88.7095 333.757 87.8643 334.339C87.0263 334.922 85.9929 335.213 84.7642 335.213C83.6918 335.213 82.7436 334.975 81.9197 334.499C81.103 334.016 80.4638 333.317 80.0021 332.401C79.5405 331.477 79.3097 330.362 79.3097 329.055V318.636H83.1662V328.459C83.1662 329.496 83.4503 330.32 84.0185 330.93C84.5866 331.541 85.3324 331.847 86.2557 331.847C86.8239 331.847 87.3743 331.708 87.907 331.431C88.4396 331.154 88.8764 330.742 89.2173 330.195C89.5653 329.641 89.7393 328.949 89.7393 328.118ZM97.5616 335V318.636H101.301V321.364H101.471C101.77 320.419 102.281 319.691 103.006 319.18C103.737 318.661 104.572 318.402 105.509 318.402C105.722 318.402 105.96 318.413 106.223 318.434C106.493 318.448 106.716 318.473 106.894 318.509V322.056C106.731 321.999 106.471 321.95 106.116 321.907C105.768 321.857 105.431 321.832 105.104 321.832C104.401 321.832 103.769 321.985 103.208 322.29C102.654 322.589 102.217 323.004 101.898 323.537C101.578 324.07 101.418 324.684 101.418 325.38V335H97.5616ZM134.998 313.182V335H131.482L121.202 320.138H121.02V335H117.068V313.182H120.605L130.875 328.054H131.067V313.182H134.998ZM139.304 335V313.182H153.282V316.495H143.257V322.418H152.323V325.732H143.257V335H139.304ZM155.924 316.495V313.182H173.331V316.495H166.588V335H162.667V316.495H155.924ZM184.129 313.182H188.965L195.442 328.991H195.698L202.175 313.182H207.012V335H203.219V320.011H203.017L196.987 334.936H194.153L188.124 319.979H187.921V335H184.129V313.182ZM215.854 335.33C214.817 335.33 213.884 335.146 213.053 334.776C212.229 334.4 211.575 333.846 211.092 333.114C210.616 332.383 210.379 331.481 210.379 330.408C210.379 329.485 210.549 328.722 210.89 328.118C211.231 327.514 211.696 327.031 212.286 326.669C212.875 326.307 213.539 326.033 214.278 325.849C215.023 325.657 215.794 325.518 216.589 325.433C217.548 325.334 218.326 325.245 218.923 325.167C219.519 325.082 219.952 324.954 220.222 324.783C220.499 324.606 220.638 324.332 220.638 323.963V323.899C220.638 323.097 220.4 322.475 219.924 322.035C219.448 321.594 218.763 321.374 217.868 321.374C216.923 321.374 216.174 321.58 215.62 321.992C215.073 322.404 214.704 322.891 214.512 323.452L210.911 322.94C211.195 321.946 211.664 321.115 212.317 320.447C212.971 319.773 213.77 319.268 214.714 318.935C215.659 318.594 216.703 318.423 217.847 318.423C218.635 318.423 219.42 318.516 220.201 318.7C220.982 318.885 221.696 319.19 222.342 319.616C222.989 320.036 223.507 320.607 223.898 321.332C224.295 322.056 224.494 322.962 224.494 324.048V335H220.787V332.752H220.659C220.425 333.207 220.094 333.633 219.668 334.031C219.249 334.421 218.72 334.737 218.081 334.979C217.449 335.213 216.707 335.33 215.854 335.33ZM216.856 332.496C217.63 332.496 218.301 332.344 218.869 332.038C219.438 331.726 219.874 331.314 220.18 330.803C220.492 330.291 220.648 329.734 220.648 329.13V327.202C220.528 327.301 220.322 327.393 220.031 327.479C219.746 327.564 219.427 327.638 219.072 327.702C218.717 327.766 218.365 327.823 218.017 327.873C217.669 327.923 217.367 327.965 217.112 328.001C216.536 328.079 216.021 328.207 215.567 328.384C215.112 328.562 214.754 328.81 214.491 329.13C214.228 329.442 214.097 329.847 214.097 330.344C214.097 331.055 214.356 331.591 214.874 331.953C215.393 332.315 216.053 332.496 216.856 332.496ZM232.229 325.412V335H228.372V318.636H232.058V321.417H232.25C232.626 320.501 233.227 319.773 234.05 319.233C234.881 318.693 235.908 318.423 237.129 318.423C238.259 318.423 239.242 318.665 240.08 319.148C240.925 319.631 241.579 320.33 242.04 321.246C242.509 322.163 242.74 323.274 242.733 324.581V335H238.876V325.178C238.876 324.084 238.592 323.228 238.024 322.61C237.463 321.992 236.685 321.683 235.691 321.683C235.016 321.683 234.416 321.832 233.891 322.131C233.372 322.422 232.964 322.844 232.665 323.398C232.374 323.952 232.229 324.624 232.229 325.412ZM251.362 335.33C250.325 335.33 249.391 335.146 248.56 334.776C247.737 334.4 247.083 333.846 246.6 333.114C246.124 332.383 245.886 331.481 245.886 330.408C245.886 329.485 246.057 328.722 246.398 328.118C246.739 327.514 247.204 327.031 247.793 326.669C248.383 326.307 249.047 326.033 249.786 325.849C250.531 325.657 251.302 325.518 252.097 325.433C253.056 325.334 253.834 325.245 254.43 325.167C255.027 325.082 255.46 324.954 255.73 324.783C256.007 324.606 256.146 324.332 256.146 323.963V323.899C256.146 323.097 255.908 322.475 255.432 322.035C254.956 321.594 254.271 321.374 253.376 321.374C252.431 321.374 251.682 321.58 251.128 321.992C250.581 322.404 250.212 322.891 250.02 323.452L246.419 322.94C246.703 321.946 247.172 321.115 247.825 320.447C248.479 319.773 249.278 319.268 250.222 318.935C251.167 318.594 252.211 318.423 253.354 318.423C254.143 318.423 254.928 318.516 255.709 318.7C256.49 318.885 257.204 319.19 257.85 319.616C258.496 320.036 259.015 320.607 259.406 321.332C259.803 322.056 260.002 322.962 260.002 324.048V335H256.295V332.752H256.167C255.933 333.207 255.602 333.633 255.176 334.031C254.757 334.421 254.228 334.737 253.589 334.979C252.957 335.213 252.214 335.33 251.362 335.33ZM252.364 332.496C253.138 332.496 253.809 332.344 254.377 332.038C254.945 331.726 255.382 331.314 255.688 330.803C256 330.291 256.156 329.734 256.156 329.13V327.202C256.036 327.301 255.83 327.393 255.538 327.479C255.254 327.564 254.935 327.638 254.58 327.702C254.224 327.766 253.873 327.823 253.525 327.873C253.177 327.923 252.875 327.965 252.619 328.001C252.044 328.079 251.529 328.207 251.075 328.384C250.62 328.562 250.261 328.81 249.999 329.13C249.736 329.442 249.604 329.847 249.604 330.344C249.604 331.055 249.864 331.591 250.382 331.953C250.901 332.315 251.561 332.496 252.364 332.496ZM270.996 341.477C269.612 341.477 268.422 341.289 267.428 340.913C266.433 340.543 265.634 340.046 265.031 339.421C264.427 338.796 264.008 338.104 263.773 337.344L267.246 336.502C267.403 336.822 267.63 337.138 267.928 337.45C268.227 337.77 268.628 338.033 269.132 338.239C269.643 338.452 270.286 338.558 271.06 338.558C272.154 338.558 273.06 338.292 273.777 337.759C274.494 337.234 274.853 336.367 274.853 335.16V332.06H274.661C274.462 332.457 274.171 332.866 273.788 333.285C273.411 333.704 272.911 334.055 272.286 334.339C271.668 334.624 270.89 334.766 269.952 334.766C268.695 334.766 267.555 334.471 266.533 333.881C265.517 333.285 264.707 332.397 264.104 331.218C263.507 330.032 263.209 328.548 263.209 326.765C263.209 324.968 263.507 323.452 264.104 322.216C264.707 320.973 265.521 320.032 266.543 319.393C267.566 318.746 268.706 318.423 269.963 318.423C270.922 318.423 271.71 318.587 272.328 318.913C272.953 319.233 273.45 319.62 273.82 320.075C274.189 320.522 274.469 320.945 274.661 321.342H274.874V318.636H278.678V335.266C278.678 336.665 278.344 337.823 277.676 338.739C277.009 339.656 276.096 340.341 274.938 340.795C273.781 341.25 272.467 341.477 270.996 341.477ZM271.028 331.74C271.845 331.74 272.541 331.541 273.116 331.143C273.692 330.746 274.129 330.174 274.427 329.428C274.725 328.683 274.874 327.788 274.874 326.744C274.874 325.714 274.725 324.812 274.427 324.038C274.136 323.263 273.702 322.663 273.127 322.237C272.559 321.804 271.859 321.587 271.028 321.587C270.169 321.587 269.452 321.811 268.876 322.259C268.301 322.706 267.868 323.32 267.577 324.102C267.286 324.876 267.14 325.756 267.14 326.744C267.14 327.745 267.286 328.622 267.577 329.375C267.875 330.121 268.312 330.703 268.887 331.122C269.469 331.534 270.183 331.74 271.028 331.74ZM289.874 335.32C288.234 335.32 286.817 334.979 285.624 334.297C284.438 333.608 283.525 332.635 282.886 331.378C282.246 330.114 281.927 328.626 281.927 326.914C281.927 325.231 282.246 323.754 282.886 322.482C283.532 321.204 284.434 320.21 285.592 319.499C286.749 318.782 288.109 318.423 289.672 318.423C290.68 318.423 291.632 318.587 292.527 318.913C293.429 319.233 294.224 319.73 294.913 320.405C295.609 321.08 296.156 321.939 296.554 322.983C296.952 324.02 297.151 325.256 297.151 326.69V327.873H283.738V325.273H293.454C293.447 324.535 293.287 323.878 292.974 323.303C292.662 322.72 292.225 322.262 291.664 321.928C291.11 321.594 290.464 321.428 289.725 321.428C288.937 321.428 288.244 321.619 287.648 322.003C287.051 322.379 286.586 322.876 286.252 323.494C285.925 324.105 285.759 324.776 285.751 325.508V327.777C285.751 328.729 285.925 329.545 286.273 330.227C286.621 330.902 287.108 331.42 287.733 331.783C288.358 332.138 289.089 332.315 289.928 332.315C290.489 332.315 290.996 332.237 291.451 332.081C291.906 331.918 292.3 331.68 292.634 331.367C292.967 331.055 293.219 330.668 293.39 330.206L296.991 330.611C296.763 331.562 296.33 332.393 295.691 333.104C295.059 333.807 294.249 334.354 293.262 334.744C292.275 335.128 291.146 335.32 289.874 335.32ZM300.413 335V318.636H304.153V321.364H304.323C304.621 320.419 305.133 319.691 305.857 319.18C306.589 318.661 307.423 318.402 308.361 318.402C308.574 318.402 308.812 318.413 309.074 318.434C309.344 318.448 309.568 318.473 309.746 318.509V322.056C309.582 321.999 309.323 321.95 308.968 321.907C308.62 321.857 308.282 321.832 307.956 321.832C307.253 321.832 306.621 321.985 306.059 322.29C305.506 322.589 305.069 323.004 304.749 323.537C304.43 324.07 304.27 324.684 304.27 325.38V335H300.413Z" fill="#080830"/>
<path d="M64.5 212H42.5V287H64.5V276.2H53.7V254.9H62.7V244.1H53.7V222.8H64.5V212ZM98.3531 287L92.7531 212H73.5531L67.9531 287H79.6531C79.8531 282.5 80.1531 278 80.3531 273.5H85.9531C86.1531 278 86.4531 282.5 86.6531 287H98.3531ZM80.9531 262.7L82.4531 232.9C82.5531 230.1 82.4531 227.4 82.4531 224.6H83.8531C83.8531 227.4 83.7531 230.1 83.8531 232.9L85.3531 262.7H80.9531ZM127.387 217.4L121.987 212H106.787L101.387 217.4V239.2L116.187 263.7V276.2H112.587V262H101.387V281.6L106.787 287H122.387L127.387 281.6V259.9L112.587 235.4V222.8H116.187V237H127.387V217.4ZM154.344 212H132.344V287H154.344V276.2H143.544V254.9H152.544V244.1H143.544V222.8H154.344V212ZM169.52 212H158.32V287H180.32V276.2H169.52V212Z" fill="#080830"/>
</g>
<defs>
<clipPath id="clip0_2500_472">
<rect width="429" height="927" fill="white"/>
</clipPath>
</defs>
</svg>
