<svg width="75" height="61" viewBox="0 0 75 61" fill="none" xmlns="http://www.w3.org/2000/svg">
<path d="M68.9067 10.2849H57.2267L51.9644 1.17176C51.5455 0.446845 50.7721 0.000683242 49.9345 0.000683242L25.0641 0C24.2264 0 23.453 0.446843 23.0342 1.17108L17.7719 10.2842L6.09316 10.2849C2.73297 10.2849 0 13.0186 0 16.3781V54.3178C0 57.6773 2.73227 60.411 6.09316 60.411H68.9068C72.2663 60.411 75 57.6773 75 54.3178V16.3781C74.9993 13.0179 72.2656 10.2849 68.9061 10.2849H68.9067ZM70.3121 54.3168C70.3121 55.0786 69.6685 55.7222 68.9067 55.7222H6.09299C5.33117 55.7222 4.68755 55.0786 4.68755 54.3168V16.377C4.68755 15.6152 5.33117 14.9716 6.09299 14.9716H19.1266C19.9642 14.9716 20.7377 14.5248 21.1564 13.8005L26.4188 4.68736H48.5834L53.8457 13.8005C54.2645 14.5254 55.0379 14.9716 55.8755 14.9716H68.9091C69.6709 14.9716 70.3145 15.6152 70.3145 16.377L70.3139 54.3168H70.3121ZM37.5007 17.1117C28.6186 17.1117 21.3919 24.3375 21.3919 33.2205C21.3919 42.1026 28.6178 49.3294 37.5007 49.3294C46.3828 49.3294 53.6096 42.1035 53.6096 33.2205C53.6096 24.3375 46.383 17.1117 37.5007 17.1117ZM37.5007 44.6425C31.2033 44.6425 26.0782 39.5188 26.0782 33.2214C26.0782 26.9239 31.2026 21.7989 37.5007 21.7989C43.7982 21.7989 48.9218 26.9225 48.9218 33.2214C48.9218 39.5196 43.7982 44.6425 37.5007 44.6425Z" fill="white"/>
</svg>
