<svg width="355" height="176" viewBox="0 0 355 176" fill="none" xmlns="http://www.w3.org/2000/svg">
<path d="M353 24.875H355V34.625H353V44.375H355V54.125H353V63.875H355V73.625H353V83.375H355V93.125H353V102.875H355V112.625H353V122.375H355V132.125H353V141.875H355V151.625H353V161.375H355V171.125H353V174H350.07V176H340.208V174H330.347V176H320.486V174H310.625V176H300.764V174H290.903V176H281.042V174H271.181V176H261.319V174H251.458V176H241.597V174H231.736V176H221.875V174H212.014V176H202.153V174H192.292V176H182.431V174H172.569V176H162.708V174H152.847V176H142.986V174H133.125V176H123.264V174H113.403V176H103.542V174H93.6806V176H83.8194V174H73.9583V176H64.0972V174H54.2361V176H44.375V174H34.5139V176H24.6528V174H14.7917V176H4.93056V174H2V171.125H0V161.375H2V151.625H0V141.875H2V132.125H0V122.375H2V112.625H0V102.875H2V93.125H0V83.375H2V73.625H0V63.875H2V54.125H0V44.375H2V34.625H0V24.875H2V20C2 18.7953 2.11807 17.6202 2.34266 16.4849L0.380681 16.0968C0.899766 13.4729 1.93209 11.0335 3.36869 8.88769L5.03063 10.0003C6.34535 8.03654 8.03654 6.34535 10.0003 5.03063L8.88769 3.36869C11.0335 1.93209 13.4729 0.899766 16.0968 0.380681L16.4849 2.34266C17.6202 2.11807 18.7953 2 20 2H24.9219V0H34.7656V2H44.6094V0H54.4531V2H64.2969V0H74.1406V2H83.9844V0H93.8281V2H103.672V0H113.516V2H123.359V0H133.203V2H143.047V0H152.891V2H162.734V0H172.578V2H182.422V0H192.266V2H202.109V0H211.953V2H221.797V0H231.641V2H241.484V0H251.328V2H261.172V0H271.016V2H280.859V0H290.703V2H300.547V0H310.391V2H320.234V0H330.078V2H335C336.205 2 337.38 2.11807 338.515 2.34266L338.903 0.380681C341.527 0.899764 343.966 1.93209 346.112 3.36868L345 5.03063C346.963 6.34535 348.655 8.03654 349.969 10.0003L351.631 8.88768C353.068 11.0335 354.1 13.4729 354.619 16.0968L352.657 16.4849C352.882 17.6202 353 18.7953 353 20V24.875Z" stroke="#B6B6E8" stroke-width="4" stroke-dasharray="10 10"/>
</svg>
