<svg width="26" height="28" viewBox="0 0 26 28" fill="none" xmlns="http://www.w3.org/2000/svg">
<path fill-rule="evenodd" clip-rule="evenodd" d="M0 8.63135H20.9587V12.2656H25.0472V22.7759H20.9587V28.0001H0V8.63135ZM2.33333 10.9647V25.6667H18.6254V20.4426H22.7139V14.5989H18.6254V10.9647H2.33333Z" fill="black"/>
<path fill-rule="evenodd" clip-rule="evenodd" d="M4.08838 22.972V13.4321H6.42171V22.972H4.08838Z" fill="black"/>
<path fill-rule="evenodd" clip-rule="evenodd" d="M9.53955 22.972V13.4321H11.8729V22.972H9.53955Z" fill="black"/>
<path fill-rule="evenodd" clip-rule="evenodd" d="M14.5366 22.972V13.4321H16.87V22.972H14.5366Z" fill="black"/>
<path fill-rule="evenodd" clip-rule="evenodd" d="M2.32817 0H9.12383V2.49852H9.31268V0H19.2126V2.49852H20.9587V8.23894H0V2.49852H2.32817V0ZM2.33333 4.83186V5.9056H18.6254V4.83186H16.8792V2.33333H11.646V4.83186H6.7905V2.33333H4.6615V4.83186H2.33333Z" fill="black"/>
</svg>
