<svg width="429" height="927" viewBox="0 0 429 927" fill="none" xmlns="http://www.w3.org/2000/svg">
<g clip-path="url(#clip0_115_512)">
<rect width="429" height="927" fill="#EF4421"/>
<path d="M32.55 252V216.8H57.8V222.4H38.9V231.3H55.7V236.6H38.9V246.4H57.8V252H32.55ZM70.0094 252L59.8594 226.55H66.1594L73.0594 244.6L79.9094 226.55H86.2094L76.1094 252H70.0094ZM101.545 252.8C98.9116 252.8 96.6116 252.233 94.6449 251.1C92.7116 249.933 91.2116 248.333 90.1449 246.3C89.0783 244.233 88.5449 241.9 88.5449 239.3C88.5449 236.733 89.0449 234.433 90.0449 232.4C91.0783 230.333 92.5616 228.717 94.4949 227.55C96.4616 226.35 98.7783 225.75 101.445 225.75C103.978 225.75 106.128 226.317 107.895 227.45C109.695 228.55 111.045 230.117 111.945 232.15C112.878 234.183 113.345 236.567 113.345 239.3C113.345 239.867 113.328 240.35 113.295 240.75H94.4949C94.6949 243.117 95.4116 244.9 96.6449 246.1C97.8783 247.267 99.5449 247.85 101.645 247.85C103.145 247.85 104.378 247.517 105.345 246.85C106.312 246.15 106.978 245.217 107.345 244.05H113.145C112.545 246.917 111.195 249.1 109.095 250.6C106.995 252.067 104.478 252.8 101.545 252.8ZM107.395 236.6C107.262 234.7 106.662 233.267 105.595 232.3C104.562 231.3 103.178 230.8 101.445 230.8C99.6449 230.8 98.1616 231.3 96.9949 232.3C95.8283 233.267 95.0616 234.7 94.6949 236.6H107.395ZM119.051 252V226.55H125.251V230.1C126.051 228.733 127.118 227.667 128.451 226.9C129.785 226.133 131.318 225.75 133.051 225.75C135.918 225.75 138.151 226.683 139.751 228.55C141.351 230.417 142.151 232.983 142.151 236.25V252H136.001V236.65C136.001 234.783 135.585 233.367 134.751 232.4C133.918 231.433 132.685 230.95 131.051 230.95C129.918 230.95 128.901 231.267 128.001 231.9C127.135 232.5 126.451 233.367 125.951 234.5C125.485 235.633 125.251 236.933 125.251 238.4V252H119.051ZM157.543 252.6C154.777 252.6 152.793 251.967 151.593 250.7C150.427 249.433 149.843 247.617 149.843 245.25V231.55H145.893V226.55H149.843V219.9H155.993V226.55H161.243V231.55H155.993V244.9C155.993 245.767 156.243 246.4 156.743 246.8C157.277 247.2 158.043 247.4 159.043 247.4C159.543 247.4 160.26 247.333 161.193 247.2V252.05C159.927 252.417 158.71 252.6 157.543 252.6ZM166.161 252V215.75H172.261V252H166.161ZM179.762 261.5V256.1H182.062C183.262 256.1 184.162 255.883 184.762 255.45C185.395 255.05 185.895 254.383 186.262 253.45L186.862 251.95L176.412 226.55H182.712L189.912 244.75L197.012 226.55H203.312L191.662 255C190.662 257.367 189.395 259.033 187.862 260C186.362 261 184.429 261.5 182.062 261.5H179.762Z" fill="#040214"/>
<path d="M34.82 291V276.92H37.58L44.46 286.76V276.92H46.98V291H44.38L37.36 280.98V291H34.82ZM50.6403 291V276.92H60.6803V279.16H53.1803V283.06H59.8403V285.28H53.1803V291H50.6403ZM66.698 291V279.16H62.018V276.92H73.878V279.16H69.218V291H66.698ZM84.53 291V279.16H79.85V276.92H91.71V279.16H87.05V291H84.53ZM93.5806 291V280.82H96.0406V291H93.5806ZM94.8206 279.48C94.3806 279.48 94.0073 279.327 93.7006 279.02C93.394 278.7 93.2406 278.327 93.2406 277.9C93.2406 277.46 93.394 277.087 93.7006 276.78C94.0073 276.46 94.3806 276.3 94.8206 276.3C95.2606 276.3 95.634 276.46 95.9406 276.78C96.2473 277.087 96.4006 277.46 96.4006 277.9C96.4006 278.327 96.2473 278.7 95.9406 279.02C95.634 279.327 95.2606 279.48 94.8206 279.48ZM103.493 291.3C102.466 291.3 101.553 291.073 100.753 290.62C99.966 290.153 99.3527 289.513 98.9127 288.7C98.486 287.887 98.2727 286.967 98.2727 285.94C98.2727 284.913 98.486 283.987 98.9127 283.16C99.3527 282.333 99.966 281.687 100.753 281.22C101.539 280.74 102.446 280.5 103.473 280.5C104.326 280.5 105.086 280.667 105.753 281C106.433 281.32 106.979 281.78 107.393 282.38C107.806 282.98 108.053 283.673 108.133 284.46H105.653C105.533 283.9 105.286 283.453 104.913 283.12C104.553 282.773 104.073 282.6 103.473 282.6C102.926 282.6 102.453 282.753 102.053 283.06C101.653 283.353 101.339 283.753 101.113 284.26C100.899 284.753 100.793 285.3 100.793 285.9C100.793 286.513 100.899 287.067 101.113 287.56C101.326 288.053 101.633 288.447 102.033 288.74C102.446 289.02 102.933 289.16 103.493 289.16C104.079 289.16 104.559 289 104.933 288.68C105.306 288.347 105.553 287.92 105.673 287.4H108.153C108.059 288.147 107.813 288.813 107.413 289.4C107.026 289.987 106.493 290.453 105.813 290.8C105.146 291.133 104.373 291.3 103.493 291.3ZM110.182 291V276.5H112.622V284.56L116.462 280.82H119.562L115.262 285.04L119.642 291H116.742L113.602 286.72L112.622 287.66V291H110.182ZM125.738 291.32C124.685 291.32 123.765 291.093 122.978 290.64C122.205 290.173 121.605 289.533 121.178 288.72C120.752 287.893 120.538 286.96 120.538 285.92C120.538 284.893 120.738 283.973 121.138 283.16C121.552 282.333 122.145 281.687 122.918 281.22C123.705 280.74 124.632 280.5 125.698 280.5C126.712 280.5 127.572 280.727 128.278 281.18C128.998 281.62 129.538 282.247 129.898 283.06C130.272 283.873 130.458 284.827 130.458 285.92C130.458 286.147 130.452 286.34 130.438 286.5H122.918C122.998 287.447 123.285 288.16 123.778 288.64C124.272 289.107 124.938 289.34 125.778 289.34C126.378 289.34 126.872 289.207 127.258 288.94C127.645 288.66 127.912 288.287 128.058 287.82H130.378C130.138 288.967 129.598 289.84 128.758 290.44C127.918 291.027 126.912 291.32 125.738 291.32ZM128.078 284.84C128.025 284.08 127.785 283.507 127.358 283.12C126.945 282.72 126.392 282.52 125.698 282.52C124.978 282.52 124.385 282.72 123.918 283.12C123.452 283.507 123.145 284.08 122.998 284.84H128.078ZM136.341 291.24C135.234 291.24 134.441 290.987 133.961 290.48C133.494 289.973 133.261 289.247 133.261 288.3V282.82H131.681V280.82H133.261V278.16H135.721V280.82H137.821V282.82H135.721V288.16C135.721 288.507 135.821 288.76 136.021 288.92C136.234 289.08 136.541 289.16 136.941 289.16C137.141 289.16 137.427 289.133 137.801 289.08V291.02C137.294 291.167 136.807 291.24 136.341 291.24ZM145.093 291V276.92H148.453L152.673 287.56L156.853 276.92H160.193V291H157.673V281.02L153.693 291H151.653L147.633 280.82V291H145.093ZM166.024 291.22C165.357 291.22 164.777 291.1 164.284 290.86C163.804 290.62 163.437 290.287 163.184 289.86C162.931 289.42 162.804 288.913 162.804 288.34C162.804 287.447 163.111 286.74 163.724 286.22C164.337 285.7 165.237 285.34 166.424 285.14L168.464 284.82C168.784 284.767 169.004 284.68 169.124 284.56C169.257 284.427 169.324 284.253 169.324 284.04C169.324 283.613 169.151 283.26 168.804 282.98C168.457 282.7 167.997 282.56 167.424 282.56C166.811 282.56 166.337 282.7 166.004 282.98C165.671 283.26 165.477 283.64 165.424 284.12H162.984C163.051 283.36 163.277 282.713 163.664 282.18C164.064 281.633 164.584 281.22 165.224 280.94C165.877 280.647 166.611 280.5 167.424 280.5C168.304 280.5 169.071 280.653 169.724 280.96C170.377 281.267 170.871 281.7 171.204 282.26C171.551 282.82 171.724 283.467 171.724 284.2V291H169.324V289.12C169.004 289.787 168.551 290.307 167.964 290.68C167.391 291.04 166.744 291.22 166.024 291.22ZM166.784 289.3C167.291 289.3 167.737 289.167 168.124 288.9C168.511 288.633 168.804 288.273 169.004 287.82C169.217 287.367 169.324 286.873 169.324 286.34V286.04C169.244 286.093 169.117 286.147 168.944 286.2C168.784 286.24 168.604 286.273 168.404 286.3L167.124 286.52C166.564 286.613 166.111 286.773 165.764 287C165.417 287.213 165.244 287.553 165.244 288.02C165.244 288.407 165.377 288.72 165.644 288.96C165.924 289.187 166.304 289.3 166.784 289.3ZM174.42 291V280.82H176.9V282.24C177.22 281.693 177.647 281.267 178.18 280.96C178.714 280.653 179.327 280.5 180.02 280.5C181.167 280.5 182.06 280.873 182.7 281.62C183.34 282.367 183.66 283.393 183.66 284.7V291H181.2V284.86C181.2 284.113 181.034 283.547 180.7 283.16C180.367 282.773 179.874 282.58 179.22 282.58C178.767 282.58 178.36 282.707 178 282.96C177.654 283.2 177.38 283.547 177.18 284C176.994 284.453 176.9 284.973 176.9 285.56V291H174.42ZM188.934 291.22C188.267 291.22 187.687 291.1 187.194 290.86C186.714 290.62 186.347 290.287 186.094 289.86C185.841 289.42 185.714 288.913 185.714 288.34C185.714 287.447 186.021 286.74 186.634 286.22C187.247 285.7 188.147 285.34 189.334 285.14L191.374 284.82C191.694 284.767 191.914 284.68 192.034 284.56C192.167 284.427 192.234 284.253 192.234 284.04C192.234 283.613 192.061 283.26 191.714 282.98C191.367 282.7 190.907 282.56 190.334 282.56C189.721 282.56 189.247 282.7 188.914 282.98C188.581 283.26 188.387 283.64 188.334 284.12H185.894C185.961 283.36 186.187 282.713 186.574 282.18C186.974 281.633 187.494 281.22 188.134 280.94C188.787 280.647 189.521 280.5 190.334 280.5C191.214 280.5 191.981 280.653 192.634 280.96C193.287 281.267 193.781 281.7 194.114 282.26C194.461 282.82 194.634 283.467 194.634 284.2V291H192.234V289.12C191.914 289.787 191.461 290.307 190.874 290.68C190.301 291.04 189.654 291.22 188.934 291.22ZM189.694 289.3C190.201 289.3 190.647 289.167 191.034 288.9C191.421 288.633 191.714 288.273 191.914 287.82C192.127 287.367 192.234 286.873 192.234 286.34V286.04C192.154 286.093 192.027 286.147 191.854 286.2C191.694 286.24 191.514 286.273 191.314 286.3L190.034 286.52C189.474 286.613 189.021 286.773 188.674 287C188.327 287.213 188.154 287.553 188.154 288.02C188.154 288.407 188.287 288.72 188.554 288.96C188.834 289.187 189.214 289.3 189.694 289.3ZM201.991 295.12C200.671 295.12 199.564 294.807 198.671 294.18C197.791 293.567 197.297 292.68 197.191 291.52H199.711C199.831 292.08 200.097 292.493 200.511 292.76C200.924 293.027 201.437 293.16 202.051 293.16C202.571 293.16 203.017 293.067 203.391 292.88C203.764 292.693 204.051 292.413 204.251 292.04C204.464 291.667 204.571 291.213 204.571 290.68V289.32C204.184 289.813 203.711 290.193 203.151 290.46C202.604 290.727 202.004 290.86 201.351 290.86C200.444 290.86 199.637 290.64 198.931 290.2C198.224 289.76 197.671 289.153 197.271 288.38C196.884 287.593 196.691 286.7 196.691 285.7C196.691 284.687 196.884 283.787 197.271 283C197.671 282.213 198.224 281.6 198.931 281.16C199.637 280.72 200.444 280.5 201.351 280.5C202.004 280.5 202.604 280.633 203.151 280.9C203.711 281.167 204.184 281.547 204.571 282.04V280.82H207.011V290.56C207.011 291.48 206.797 292.28 206.371 292.96C205.957 293.653 205.371 294.187 204.611 294.56C203.864 294.933 202.991 295.12 201.991 295.12ZM201.911 288.86C202.444 288.86 202.911 288.733 203.311 288.48C203.724 288.213 204.037 287.847 204.251 287.38C204.464 286.9 204.571 286.34 204.571 285.7C204.571 284.713 204.331 283.94 203.851 283.38C203.384 282.807 202.737 282.52 201.911 282.52C201.071 282.52 200.411 282.807 199.931 283.38C199.451 283.94 199.211 284.713 199.211 285.7C199.211 286.34 199.317 286.9 199.531 287.38C199.757 287.847 200.071 288.213 200.471 288.48C200.884 288.733 201.364 288.86 201.911 288.86ZM214.469 291.32C213.415 291.32 212.495 291.093 211.709 290.64C210.935 290.173 210.335 289.533 209.909 288.72C209.482 287.893 209.269 286.96 209.269 285.92C209.269 284.893 209.469 283.973 209.869 283.16C210.282 282.333 210.875 281.687 211.649 281.22C212.435 280.74 213.362 280.5 214.429 280.5C215.442 280.5 216.302 280.727 217.009 281.18C217.729 281.62 218.269 282.247 218.629 283.06C219.002 283.873 219.189 284.827 219.189 285.92C219.189 286.147 219.182 286.34 219.169 286.5H211.649C211.729 287.447 212.015 288.16 212.509 288.64C213.002 289.107 213.669 289.34 214.509 289.34C215.109 289.34 215.602 289.207 215.989 288.94C216.375 288.66 216.642 288.287 216.789 287.82H219.109C218.869 288.967 218.329 289.84 217.489 290.44C216.649 291.027 215.642 291.32 214.469 291.32ZM216.809 284.84C216.755 284.08 216.515 283.507 216.089 283.12C215.675 282.72 215.122 282.52 214.429 282.52C213.709 282.52 213.115 282.72 212.649 283.12C212.182 283.507 211.875 284.08 211.729 284.84H216.809ZM221.471 291V280.82H223.951V282.6C224.205 282 224.558 281.54 225.011 281.22C225.465 280.887 226.011 280.72 226.651 280.72C226.785 280.72 226.905 280.727 227.011 280.74C227.118 280.74 227.225 280.753 227.331 280.78V283.1C227.131 283.06 226.898 283.04 226.631 283.04C225.831 283.04 225.185 283.32 224.691 283.88C224.198 284.427 223.951 285.173 223.951 286.12V291H221.471Z" fill="#040214"/>
<path d="M435.146 0.70459H324.441V103.492H435.146V0.70459Z" stroke="white" stroke-opacity="0.1" stroke-width="2" stroke-miterlimit="10"/>
<path d="M435.154 103.492V104.197L380.181 155.251L324.814 103.844L325.194 103.492H435.154Z" stroke="white" stroke-opacity="0.1" stroke-width="2" stroke-miterlimit="10"/>
<path d="M325.187 103.492L324.441 104.183V103.492H325.187Z" stroke="white" stroke-opacity="0.1" stroke-width="2" stroke-miterlimit="10"/>
<path d="M435.15 104.198V206.293L380.177 155.252L435.15 104.198Z" stroke="white" stroke-opacity="0.1" stroke-width="2" stroke-miterlimit="10"/>
<path d="M435.151 206.291H325.191L380.178 155.25L435.151 206.291Z" stroke="white" stroke-opacity="0.1" stroke-width="2" stroke-miterlimit="10"/>
<path d="M435.15 206.983V309.079L380.177 258.038L435.15 206.983Z" stroke="white" stroke-opacity="0.1" stroke-width="2" stroke-miterlimit="10"/>
<path d="M435.146 309.079H324.441V206.292H325.187L324.821 206.644L380.173 258.038L435.146 309.079Z" stroke="white" stroke-opacity="0.1" stroke-width="2" stroke-miterlimit="10"/>
<path d="M324.437 309.088L324.437 411.875L435.142 411.875L435.142 309.088L324.437 309.088Z" stroke="white" stroke-opacity="0.1" stroke-width="2" stroke-miterlimit="10"/>
<path d="M435.146 411.866V514.666L324.807 412.218L324.441 412.558V411.866H435.146Z" stroke="white" stroke-opacity="0.1" stroke-width="2" stroke-miterlimit="10"/>
<path d="M435.15 515.357V617.453L380.177 566.412L435.15 515.357Z" stroke="white" stroke-opacity="0.1" stroke-width="2" stroke-miterlimit="10"/>
<path d="M435.151 617.454H325.191L380.178 566.413L435.151 617.454Z" stroke="white" stroke-opacity="0.1" stroke-width="2" stroke-miterlimit="10"/>
<path d="M380.173 566.413L325.187 617.454H324.441V515.359L324.807 515.006L380.173 566.413Z" stroke="white" stroke-opacity="0.1" stroke-width="2" stroke-miterlimit="10"/>
<path d="M325.187 514.666L324.807 515.005L324.441 515.357V514.666H325.187Z" stroke="white" stroke-opacity="0.1" stroke-width="2" stroke-miterlimit="10"/>
<path d="M325.187 617.453L324.821 617.805L324.441 618.144V617.453H325.187Z" stroke="white" stroke-opacity="0.1" stroke-width="2" stroke-miterlimit="10"/>
<path d="M435.155 618.145V720.24H325.21L380.182 669.199L435.155 618.145Z" stroke="white" stroke-opacity="0.1" stroke-width="2" stroke-miterlimit="10"/>
<path d="M324.443 0.70459V1.39645L269.456 52.4505L213.724 0.70459H324.443Z" stroke="white" stroke-opacity="0.1" stroke-width="2" stroke-miterlimit="10"/>
<path d="M324.447 1.39648V103.492H324.433L269.46 52.4506L324.447 1.39648Z" stroke="white" stroke-opacity="0.1" stroke-width="2" stroke-miterlimit="10"/>
<path d="M324.443 103.492H213.724V206.292H324.443V103.492Z" stroke="white" stroke-opacity="0.1" stroke-width="2" stroke-miterlimit="10"/>
<path d="M324.443 206.292H213.724V309.079H324.443V206.292Z" stroke="white" stroke-opacity="0.1" stroke-width="2" stroke-miterlimit="10"/>
<path d="M324.443 309.078V411.865H324.429L269.456 360.824L214.104 309.43L213.724 309.783V309.078H324.443Z" stroke="white" stroke-opacity="0.1" stroke-width="2" stroke-miterlimit="10"/>
<path d="M324.446 514.667H214.472L269.459 463.613L324.446 514.667Z" stroke="white" stroke-opacity="0.1" stroke-width="2" stroke-miterlimit="10"/>
<path d="M214.484 411.866L214.104 412.218L213.724 412.57V411.866H214.484Z" stroke="white" stroke-opacity="0.1" stroke-width="2" stroke-miterlimit="10"/>
<path d="M324.447 515.357V617.453L269.46 566.398L324.447 515.357Z" stroke="white" stroke-opacity="0.1" stroke-width="2" stroke-miterlimit="10"/>
<path d="M324.446 617.453H214.472L269.459 566.399L324.446 617.453Z" stroke="white" stroke-opacity="0.1" stroke-width="2" stroke-miterlimit="10"/>
<path d="M214.47 514.666L214.104 515.005L213.724 515.37V514.666H214.47Z" stroke="white" stroke-opacity="0.1" stroke-width="2" stroke-miterlimit="10"/>
<path d="M324.436 720.24H214.491L269.463 669.199L324.436 720.24Z" stroke="white" stroke-opacity="0.1" stroke-width="2" stroke-miterlimit="10"/>
<path d="M269.456 669.2L214.484 720.241H213.724V618.146L214.104 617.806L269.456 669.2Z" stroke="white" stroke-opacity="0.1" stroke-width="2" stroke-miterlimit="10"/>
<path d="M214.47 617.453L214.104 617.805L213.724 618.144V617.453H214.47Z" stroke="white" stroke-opacity="0.1" stroke-width="2" stroke-miterlimit="10"/>
<path d="M213.731 0.70459V103.492L157.999 51.7456L212.972 0.70459H213.731Z" stroke="white" stroke-opacity="0.1" stroke-width="2" stroke-miterlimit="10"/>
<path d="M213.726 103.492H103.021V0.70459L157.994 51.7456L213.726 103.492Z" stroke="white" stroke-opacity="0.1" stroke-width="2" stroke-miterlimit="10"/>
<path d="M103.034 103.51L103.034 206.297L213.738 206.297L213.738 103.51L103.034 103.51Z" stroke="white" stroke-opacity="0.1" stroke-width="2" stroke-miterlimit="10"/>
<path d="M213.726 206.292V309.066L158.754 258.038L103.401 206.631L103.021 206.984V206.292H213.726Z" stroke="white" stroke-opacity="0.1" stroke-width="2" stroke-miterlimit="10"/>
<path d="M103.781 309.078L103.401 309.43L103.021 309.782V309.078H103.781Z" stroke="white" stroke-opacity="0.1" stroke-width="2" stroke-miterlimit="10"/>
<path d="M103.781 411.866L103.021 412.57V411.866H103.781Z" stroke="white" stroke-opacity="0.1" stroke-width="2" stroke-miterlimit="10"/>
<path d="M103.767 514.666L103.021 515.357V514.666H103.767Z" stroke="white" stroke-opacity="0.1" stroke-width="2" stroke-miterlimit="10"/>
<path d="M103.781 617.453L103.021 618.157V617.453H103.781Z" stroke="white" stroke-opacity="0.1" stroke-width="2" stroke-miterlimit="10"/>
<path d="M213.731 618.145V720.24H212.227L157.999 669.891L213.731 618.145Z" stroke="white" stroke-opacity="0.1" stroke-width="2" stroke-miterlimit="10"/>
<path d="M212.227 720.24H103.772L157.999 669.891L212.227 720.24Z" stroke="white" stroke-opacity="0.1" stroke-width="2" stroke-miterlimit="10"/>
<path d="M-7.68341 0.715469L-7.68341 103.502L103.021 103.502L103.021 0.715469L-7.68341 0.715469Z" stroke="white" stroke-opacity="0.1" stroke-width="2" stroke-miterlimit="10"/>
<path d="M103.03 103.492H-7.67532V206.292H103.03V103.492Z" stroke="white" stroke-opacity="0.1" stroke-width="2" stroke-miterlimit="10"/>
<path d="M48.0567 258.038L-6.93017 309.079H-7.67532V206.292L48.0567 258.038Z" stroke="white" stroke-opacity="0.1" stroke-width="2" stroke-miterlimit="10"/>
<path d="M103.022 309.079H-6.93741L48.0495 258.038L103.022 309.079Z" stroke="white" stroke-opacity="0.1" stroke-width="2" stroke-miterlimit="10"/>
<path d="M103.021 206.983V309.079L48.0481 258.038L103.021 206.983Z" stroke="white" stroke-opacity="0.1" stroke-width="2" stroke-miterlimit="10"/>
<path d="M48.0567 360.825L-6.91611 411.866H-7.67532V309.771L-7.29572 309.431L48.0567 360.825Z" stroke="white" stroke-opacity="0.1" stroke-width="2" stroke-miterlimit="10"/>
<path d="M48.0567 463.612L-6.93017 514.666H-7.67532V412.571L-7.29572 412.218L48.0567 463.612Z" stroke="white" stroke-opacity="0.1" stroke-width="2" stroke-miterlimit="10"/>
<path d="M103.03 514.666V515.358L47.2975 567.104L-7.67532 516.076V515.358L-6.93017 514.666H103.03Z" stroke="white" stroke-opacity="0.1" stroke-width="2" stroke-miterlimit="10"/>
<path d="M47.2975 567.103L-6.93017 617.452H-7.67532V516.075L47.2975 567.103Z" stroke="white" stroke-opacity="0.1" stroke-width="2" stroke-miterlimit="10"/>
<path d="M47.2975 669.903L-6.91611 720.239H-7.67532V618.862L47.2975 669.903Z" stroke="white" stroke-opacity="0.1" stroke-width="2" stroke-miterlimit="10"/>
<path d="M102.65 618.51L47.2975 669.904L-7.67532 618.862V618.144L-6.93017 617.453H101.511L102.65 618.51Z" stroke="white" stroke-opacity="0.1" stroke-width="2" stroke-miterlimit="10"/>
<path d="M103.028 617.453V618.85L102.648 618.51L101.509 617.453H103.028Z" stroke="white" stroke-opacity="0.1" stroke-width="2" stroke-miterlimit="10"/>
<path d="M435.146 103.505L324.441 0.70459" stroke="white" stroke-opacity="0.1" stroke-width="2" stroke-miterlimit="10"/>
<path d="M324.436 103.492H214.491L269.463 52.4507L324.436 103.492Z" stroke="white" stroke-opacity="0.1" stroke-width="2" stroke-miterlimit="10"/>
<path d="M324.433 103.492L324.447 103.505L324.813 103.844" stroke="white" stroke-opacity="0.1" stroke-width="2" stroke-miterlimit="10"/>
<path d="M213.733 721.637L212.228 720.24" stroke="white" stroke-opacity="0.1" stroke-width="2" stroke-miterlimit="10"/>
<path d="M102.267 0L102.647 0.352039L103.027 0.704078" stroke="white" stroke-opacity="0.1" stroke-width="2" stroke-miterlimit="10"/>
<path d="M435.154 206.292V206.984L380.181 258.038L324.828 206.644L325.194 206.292H435.154Z" stroke="white" stroke-opacity="0.1" stroke-width="2" stroke-miterlimit="10"/>
<path d="M213.724 103.492L214.104 103.844L269.456 155.238L324.443 206.292L324.823 206.644" stroke="white" stroke-opacity="0.1" stroke-width="2" stroke-miterlimit="10"/>
<path d="M380.173 669.2L325.201 720.241H324.441V618.146L324.821 617.806L380.173 669.2Z" stroke="white" stroke-opacity="0.1" stroke-width="2" stroke-miterlimit="10"/>
<path d="M325.187 720.944L324.807 720.592L324.441 720.24" stroke="white" stroke-opacity="0.1" stroke-width="2" stroke-miterlimit="10"/>
<path d="M324.449 617.453V618.144L269.462 669.199L214.109 617.805L214.475 617.453H324.449Z" stroke="white" stroke-opacity="0.1" stroke-width="2" stroke-miterlimit="10"/>
<path d="M103.025 411.866V412.571L48.0521 463.612L-7.30032 412.218L-6.92072 411.866H103.025Z" stroke="white" stroke-opacity="0.1" stroke-width="2" stroke-miterlimit="10"/>
<path d="M214.104 617.805L213.724 617.453" stroke="white" stroke-opacity="0.1" stroke-width="2" stroke-miterlimit="10"/>
<path d="M103.407 515.005L103.042 514.666" stroke="white" stroke-opacity="0.1" stroke-width="2" stroke-miterlimit="10"/>
<path d="M435.158 411.865L380.185 360.824L324.833 309.431L324.453 309.079L269.48 258.037L214.114 206.631L213.748 206.292H213.734V206.279L158.762 155.237L103.03 103.492L102.65 103.139L47.2975 51.7456L-7.67532 0.70459" stroke="white" stroke-opacity="0.1" stroke-width="2" stroke-miterlimit="10"/>
<path d="M-7.67532 103.492L47.2975 154.533L103.03 206.279V206.292H103.044L103.409 206.631" stroke="white" stroke-opacity="0.1" stroke-width="2" stroke-miterlimit="10"/>
<path d="M213.724 309.078H213.738L214.104 309.43" stroke="white" stroke-opacity="0.1" stroke-width="2" stroke-miterlimit="10"/>
<path d="M324.436 411.866H214.491L269.463 360.825L324.436 411.866Z" stroke="white" stroke-opacity="0.1" stroke-width="2" stroke-miterlimit="10"/>
<path d="M324.807 412.219L324.441 411.88" stroke="white" stroke-opacity="0.1" stroke-width="2" stroke-miterlimit="10"/>
<path d="M435.151 514.667H325.191L380.164 463.613L435.151 514.667Z" stroke="white" stroke-opacity="0.1" stroke-width="2" stroke-miterlimit="10"/>
<path d="M435.154 514.666V515.358L380.181 566.412L324.814 515.005L325.194 514.666H435.154Z" stroke="white" stroke-opacity="0.1" stroke-width="2" stroke-miterlimit="10"/>
<path d="M214.104 412.218L213.724 411.866" stroke="white" stroke-opacity="0.1" stroke-width="2" stroke-miterlimit="10"/>
<path d="M324.807 515.005L324.441 514.666" stroke="white" stroke-opacity="0.1" stroke-width="2" stroke-miterlimit="10"/>
<path d="M103.401 309.43L103.021 309.078" stroke="white" stroke-opacity="0.1" stroke-width="2" stroke-miterlimit="10"/>
<path d="M435.154 617.453V618.144L380.181 669.199L324.828 617.805L325.194 617.453H435.154Z" stroke="white" stroke-opacity="0.1" stroke-width="2" stroke-miterlimit="10"/>
<path d="M435.15 720.24L380.177 669.199" stroke="white" stroke-opacity="0.1" stroke-width="2" stroke-miterlimit="10"/>
<path d="M324.821 617.805L324.441 617.453" stroke="white" stroke-opacity="0.1" stroke-width="2" stroke-miterlimit="10"/>
<path d="M103.401 412.218L103.021 411.866" stroke="white" stroke-opacity="0.1" stroke-width="2" stroke-miterlimit="10"/>
<path d="M214.108 515.005L213.743 514.666" stroke="white" stroke-opacity="0.1" stroke-width="2" stroke-miterlimit="10"/>
<path d="M157.994 669.891L103.767 720.24H103.021V618.85L157.994 669.891Z" stroke="white" stroke-opacity="0.1" stroke-width="2" stroke-miterlimit="10"/>
<path d="M103.026 721.637L102.646 721.284L101.521 720.24" stroke="white" stroke-opacity="0.1" stroke-width="2" stroke-miterlimit="10"/>
<path d="M325.201 720.24L324.807 720.592L324.441 720.944" stroke="white" stroke-opacity="0.1" stroke-width="2" stroke-miterlimit="10"/>
<path d="M324.447 618.145V720.24H324.433L269.46 669.199L324.447 618.145Z" stroke="white" stroke-opacity="0.1" stroke-width="2" stroke-miterlimit="10"/>
<path d="M214.484 720.24L213.724 720.944" stroke="white" stroke-opacity="0.1" stroke-width="2" stroke-miterlimit="10"/>
<path d="M212.967 0.70459L157.994 51.7456L103.021 0.70459H212.967Z" stroke="white" stroke-opacity="0.1" stroke-width="2" stroke-miterlimit="10"/>
<path d="M-7.6955 205.587L-7.68144 205.574L47.2914 154.533L102.264 103.492L102.644 103.14L103.023 102.787L157.996 51.7461" stroke="white" stroke-opacity="0.1" stroke-width="2" stroke-miterlimit="10"/>
<path d="M213.726 0L212.966 0.704078" stroke="white" stroke-opacity="0.1" stroke-width="2" stroke-miterlimit="10"/>
<path d="M324.449 514.666V515.358L269.462 566.399L214.109 515.005L214.475 514.666H324.449Z" stroke="white" stroke-opacity="0.1" stroke-width="2" stroke-miterlimit="10"/>
<path d="M269.456 566.4L214.47 617.454H213.724V515.372L214.104 515.006L269.456 566.4Z" stroke="white" stroke-opacity="0.1" stroke-width="2" stroke-miterlimit="10"/>
<path d="M213.726 515.371V617.453L158.753 566.412L213.726 515.371Z" stroke="white" stroke-opacity="0.1" stroke-width="2" stroke-miterlimit="10"/>
<path d="M213.726 617.453V618.144L157.994 669.89L103.021 618.849V618.158L103.781 617.453H213.726Z" stroke="white" stroke-opacity="0.1" stroke-width="2" stroke-miterlimit="10"/>
<path d="M102.267 721.637L102.647 721.284L103.772 720.24" stroke="white" stroke-opacity="0.1" stroke-width="2" stroke-miterlimit="10"/>
<path d="M435.156 412.571L380.169 463.612" stroke="white" stroke-opacity="0.1" stroke-width="2" stroke-miterlimit="10"/>
<path d="M269.456 52.4505L214.484 103.492H213.724V0.70459L269.456 52.4505Z" stroke="white" stroke-opacity="0.1" stroke-width="2" stroke-miterlimit="10"/>
<path d="M103.03 206.292V206.984L48.0567 258.038L-7.67532 206.292H103.03Z" stroke="white" stroke-opacity="0.1" stroke-width="2" stroke-miterlimit="10"/>
<path d="M103.405 206.631L103.77 206.292L158.757 155.238L213.73 104.197L214.109 103.844L214.489 103.492" stroke="white" stroke-opacity="0.1" stroke-width="2" stroke-miterlimit="10"/>
<path d="M103.025 309.078V309.783L48.0521 360.824L-7.30032 309.43L-6.93478 309.078H103.025Z" stroke="white" stroke-opacity="0.1" stroke-width="2" stroke-miterlimit="10"/>
<path d="M325.187 0.70459L324.821 1.05663L324.441 1.39563" stroke="white" stroke-opacity="0.1" stroke-width="2" stroke-miterlimit="10"/>
<path d="M380.159 463.612L325.187 514.666H324.441V412.558L324.807 412.218L380.159 463.612Z" stroke="white" stroke-opacity="0.1" stroke-width="2" stroke-miterlimit="10"/>
<path d="M324.447 412.558V514.666L269.46 463.612L324.447 412.558Z" stroke="white" stroke-opacity="0.1" stroke-width="2" stroke-miterlimit="10"/>
<path d="M101.52 720.24H-6.92126L47.2923 669.903L101.52 720.24Z" stroke="white" stroke-opacity="0.1" stroke-width="2" stroke-miterlimit="10"/>
<path d="M103.022 618.849V720.239H101.518L47.29 669.903L102.642 618.51L103.022 618.849Z" stroke="white" stroke-opacity="0.1" stroke-width="2" stroke-miterlimit="10"/>
<path d="M103.022 618.158L102.642 618.51" stroke="white" stroke-opacity="0.1" stroke-width="2" stroke-miterlimit="10"/>
<path d="M324.449 411.866V412.558L269.462 463.612L214.109 412.218L214.489 411.866H324.449Z" stroke="white" stroke-opacity="0.1" stroke-width="2" stroke-miterlimit="10"/>
<path d="M269.456 463.612L214.47 514.666H213.724V412.571L214.104 412.218L269.456 463.612Z" stroke="white" stroke-opacity="0.1" stroke-width="2" stroke-miterlimit="10"/>
<path d="M324.814 412.218L325.194 411.866L380.181 360.825L435.154 309.771" stroke="white" stroke-opacity="0.1" stroke-width="2" stroke-miterlimit="10"/>
<path d="M269.456 360.825L214.484 411.866H213.724V309.784L214.104 309.431L269.456 360.825Z" stroke="white" stroke-opacity="0.1" stroke-width="2" stroke-miterlimit="10"/>
<path d="M380.179 258.038L325.192 309.079L324.826 309.431L324.447 309.77L269.46 360.825" stroke="white" stroke-opacity="0.1" stroke-width="2" stroke-miterlimit="10"/>
<path d="M213.73 514.666V515.371L158.757 566.412L103.405 515.005L103.77 514.666H213.73Z" stroke="white" stroke-opacity="0.1" stroke-width="2" stroke-miterlimit="10"/>
<path d="M213.725 617.454H103.78L158.752 566.413L213.725 617.454Z" stroke="white" stroke-opacity="0.1" stroke-width="2" stroke-miterlimit="10"/>
<path d="M158.754 566.413L103.781 617.454H103.021V515.359L103.401 515.006L158.754 566.413Z" stroke="white" stroke-opacity="0.1" stroke-width="2" stroke-miterlimit="10"/>
<path d="M103.022 515.357V617.453H101.504L47.29 567.103L103.022 515.357Z" stroke="white" stroke-opacity="0.1" stroke-width="2" stroke-miterlimit="10"/>
<path d="M101.504 617.453H-6.93741L47.2903 567.104L101.504 617.453Z" stroke="white" stroke-opacity="0.1" stroke-width="2" stroke-miterlimit="10"/>
<path d="M213.726 412.571V514.653L158.753 463.612L213.726 412.571Z" stroke="white" stroke-opacity="0.1" stroke-width="2" stroke-miterlimit="10"/>
<path d="M213.73 411.866V412.571L158.757 463.612L103.405 412.218L103.784 411.866H213.73Z" stroke="white" stroke-opacity="0.1" stroke-width="2" stroke-miterlimit="10"/>
<path d="M158.754 463.612L103.767 514.666H103.021V412.571L103.401 412.218L158.754 463.612Z" stroke="white" stroke-opacity="0.1" stroke-width="2" stroke-miterlimit="10"/>
<path d="M213.731 514.654V514.667H103.772L158.758 463.613L213.731 514.654Z" stroke="white" stroke-opacity="0.1" stroke-width="2" stroke-miterlimit="10"/>
<path d="M103.022 514.654V514.667H-6.93741L48.0495 463.613L103.022 514.654Z" stroke="white" stroke-opacity="0.1" stroke-width="2" stroke-miterlimit="10"/>
<path d="M103.021 412.571V514.653L48.0481 463.612L103.021 412.571Z" stroke="white" stroke-opacity="0.1" stroke-width="2" stroke-miterlimit="10"/>
<path d="M324.828 206.644L324.449 206.983L269.476 258.038L214.489 309.079L214.109 309.431" stroke="white" stroke-opacity="0.1" stroke-width="2" stroke-miterlimit="10"/>
<path d="M380.173 155.251L325.187 206.292H324.441V104.184L324.807 103.844L380.173 155.251Z" stroke="white" stroke-opacity="0.1" stroke-width="2" stroke-miterlimit="10"/>
<path d="M158.754 258.038L103.781 309.079H103.021V206.984L103.401 206.631L158.754 258.038Z" stroke="white" stroke-opacity="0.1" stroke-width="2" stroke-miterlimit="10"/>
<path d="M324.445 104.184L269.458 155.238L214.471 206.292L214.105 206.631L213.726 206.997L158.753 258.038" stroke="white" stroke-opacity="0.1" stroke-width="2" stroke-miterlimit="10"/>
<path d="M213.725 309.066V309.079H103.78L158.752 258.038L213.725 309.066Z" stroke="white" stroke-opacity="0.1" stroke-width="2" stroke-miterlimit="10"/>
<path d="M213.73 309.078V309.783L158.757 360.824L103.405 309.43L103.784 309.078H213.73Z" stroke="white" stroke-opacity="0.1" stroke-width="2" stroke-miterlimit="10"/>
<path d="M213.726 309.784V411.866L158.753 360.825L213.726 309.784Z" stroke="white" stroke-opacity="0.1" stroke-width="2" stroke-miterlimit="10"/>
<path d="M158.754 360.825L103.781 411.866H103.021V309.784L103.401 309.431L158.754 360.825Z" stroke="white" stroke-opacity="0.1" stroke-width="2" stroke-miterlimit="10"/>
<path d="M213.725 411.866H103.78L158.752 360.825L213.725 411.866Z" stroke="white" stroke-opacity="0.1" stroke-width="2" stroke-miterlimit="10"/>
<path d="M103.024 411.866H-6.92126L48.0516 360.825L103.024 411.866Z" stroke="white" stroke-opacity="0.1" stroke-width="2" stroke-miterlimit="10"/>
<path d="M103.021 309.784V411.866L48.0481 360.825L103.021 309.784Z" stroke="white" stroke-opacity="0.1" stroke-width="2" stroke-miterlimit="10"/>
<path d="M435.151 1.39648L380.178 52.4506L325.191 103.492" stroke="white" stroke-opacity="0.1" stroke-width="2" stroke-miterlimit="10"/>
<path d="M103.03 0.0126953L-7.67532 102.8" stroke="white" stroke-opacity="0.1" stroke-width="2" stroke-miterlimit="10"/>
<path d="M102.269 766.15L102.648 766.502L103.028 766.854" stroke="white" stroke-opacity="0.1" stroke-width="2" stroke-miterlimit="10"/>
<path d="M213.727 766.15L212.968 766.854" stroke="white" stroke-opacity="0.1" stroke-width="2" stroke-miterlimit="10"/>
<path d="M325.188 766.856L324.822 767.209L324.443 767.547" stroke="white" stroke-opacity="0.1" stroke-width="2" stroke-miterlimit="10"/>
<path d="M435.151 720.866V822.961L380.178 771.92L435.151 720.866Z" stroke="white" stroke-opacity="0.1" stroke-width="2" stroke-miterlimit="10"/>
<path d="M435.153 822.961H325.193L380.18 771.92L435.153 822.961Z" stroke="white" stroke-opacity="0.1" stroke-width="2" stroke-miterlimit="10"/>
<path d="M380.175 771.921L325.188 822.962H324.443V720.867L324.808 720.515L380.175 771.921Z" stroke="white" stroke-opacity="0.1" stroke-width="2" stroke-miterlimit="10"/>
<path d="M325.188 822.961L324.822 823.313L324.443 823.652V822.961H325.188Z" stroke="white" stroke-opacity="0.1" stroke-width="2" stroke-miterlimit="10"/>
<path d="M435.157 823.653V925.748H325.211L380.184 874.707L435.157 823.653Z" stroke="white" stroke-opacity="0.1" stroke-width="2" stroke-miterlimit="10"/>
<path d="M324.448 720.866V822.961L269.461 771.907L324.448 720.866Z" stroke="white" stroke-opacity="0.1" stroke-width="2" stroke-miterlimit="10"/>
<path d="M324.448 822.962H214.474L269.461 771.908L324.448 822.962Z" stroke="white" stroke-opacity="0.1" stroke-width="2" stroke-miterlimit="10"/>
<path d="M324.438 925.749H214.492L269.465 874.708L324.438 925.749Z" stroke="white" stroke-opacity="0.1" stroke-width="2" stroke-miterlimit="10"/>
<path d="M269.458 874.708L214.485 925.749H213.726V823.654L214.105 823.314L269.458 874.708Z" stroke="white" stroke-opacity="0.1" stroke-width="2" stroke-miterlimit="10"/>
<path d="M214.471 822.961L214.105 823.313L213.726 823.652V822.961H214.471Z" stroke="white" stroke-opacity="0.1" stroke-width="2" stroke-miterlimit="10"/>
<path d="M103.782 822.961L103.023 823.665V822.961H103.782Z" stroke="white" stroke-opacity="0.1" stroke-width="2" stroke-miterlimit="10"/>
<path d="M213.732 823.653V925.748H212.228L158 875.399L213.732 823.653Z" stroke="white" stroke-opacity="0.1" stroke-width="2" stroke-miterlimit="10"/>
<path d="M212.228 925.748H103.773L158.001 875.398L212.228 925.748Z" stroke="white" stroke-opacity="0.1" stroke-width="2" stroke-miterlimit="10"/>
<path d="M103.031 720.175V720.867L47.2989 772.613L-7.67395 721.585V720.867L-6.92879 720.175H103.031Z" stroke="white" stroke-opacity="0.1" stroke-width="2" stroke-miterlimit="10"/>
<path d="M47.2989 772.613L-6.92879 822.962H-7.67395V721.585L47.2989 772.613Z" stroke="white" stroke-opacity="0.1" stroke-width="2" stroke-miterlimit="10"/>
<path d="M47.2989 875.412L-6.91473 925.748H-7.67395V824.371L47.2989 875.412Z" stroke="white" stroke-opacity="0.1" stroke-width="2" stroke-miterlimit="10"/>
<path d="M102.651 824.018L47.2989 875.412L-7.67395 824.371V823.653L-6.92879 822.961H101.512L102.651 824.018Z" stroke="white" stroke-opacity="0.1" stroke-width="2" stroke-miterlimit="10"/>
<path d="M103.029 822.961V824.358L102.65 824.018L101.511 822.961H103.029Z" stroke="white" stroke-opacity="0.1" stroke-width="2" stroke-miterlimit="10"/>
<path d="M213.734 927.145L212.23 925.748" stroke="white" stroke-opacity="0.1" stroke-width="2" stroke-miterlimit="10"/>
<path d="M380.175 874.708L325.202 925.749H324.443V823.654L324.822 823.314L380.175 874.708Z" stroke="white" stroke-opacity="0.1" stroke-width="2" stroke-miterlimit="10"/>
<path d="M325.188 926.452L324.808 926.1L324.443 925.748" stroke="white" stroke-opacity="0.1" stroke-width="2" stroke-miterlimit="10"/>
<path d="M324.45 822.961V823.653L269.463 874.707L214.111 823.313L214.476 822.961H324.45Z" stroke="white" stroke-opacity="0.1" stroke-width="2" stroke-miterlimit="10"/>
<path d="M214.105 823.313L213.726 822.961" stroke="white" stroke-opacity="0.1" stroke-width="2" stroke-miterlimit="10"/>
<path d="M435.155 720.175V720.867L380.182 771.921L324.816 720.515L325.195 720.175H435.155Z" stroke="white" stroke-opacity="0.1" stroke-width="2" stroke-miterlimit="10"/>
<path d="M435.155 822.961V823.653L380.182 874.707L324.83 823.313L325.195 822.961H435.155Z" stroke="white" stroke-opacity="0.1" stroke-width="2" stroke-miterlimit="10"/>
<path d="M435.151 925.749L380.178 874.708" stroke="white" stroke-opacity="0.1" stroke-width="2" stroke-miterlimit="10"/>
<path d="M324.822 823.313L324.443 822.961" stroke="white" stroke-opacity="0.1" stroke-width="2" stroke-miterlimit="10"/>
<path d="M157.996 875.399L103.768 925.748H103.023V824.358L157.996 875.399Z" stroke="white" stroke-opacity="0.1" stroke-width="2" stroke-miterlimit="10"/>
<path d="M103.027 927.145L102.648 926.792L101.523 925.748" stroke="white" stroke-opacity="0.1" stroke-width="2" stroke-miterlimit="10"/>
<path d="M325.202 925.748L324.808 926.1L324.443 926.452" stroke="white" stroke-opacity="0.1" stroke-width="2" stroke-miterlimit="10"/>
<path d="M324.448 823.653V925.748H324.434L269.461 874.707L324.448 823.653Z" stroke="white" stroke-opacity="0.1" stroke-width="2" stroke-miterlimit="10"/>
<path d="M214.485 925.748L213.726 926.452" stroke="white" stroke-opacity="0.1" stroke-width="2" stroke-miterlimit="10"/>
<path d="M324.45 720.175V720.867L269.463 771.908L214.111 720.515L214.476 720.175H324.45Z" stroke="white" stroke-opacity="0.1" stroke-width="2" stroke-miterlimit="10"/>
<path d="M269.458 771.908L214.471 822.962H213.726V720.88L214.105 720.515L269.458 771.908Z" stroke="white" stroke-opacity="0.1" stroke-width="2" stroke-miterlimit="10"/>
<path d="M213.727 720.878V822.961L158.754 771.92L213.727 720.878Z" stroke="white" stroke-opacity="0.1" stroke-width="2" stroke-miterlimit="10"/>
<path d="M213.728 822.961V823.653L157.996 875.399L103.023 824.358V823.666L103.782 822.961H213.728Z" stroke="white" stroke-opacity="0.1" stroke-width="2" stroke-miterlimit="10"/>
<path d="M102.269 927.145L102.648 926.792L103.773 925.748" stroke="white" stroke-opacity="0.1" stroke-width="2" stroke-miterlimit="10"/>
<path d="M101.521 925.749H-6.91989L47.2937 875.413L101.521 925.749Z" stroke="white" stroke-opacity="0.1" stroke-width="2" stroke-miterlimit="10"/>
<path d="M103.023 824.358V925.749H101.519L47.2914 875.413L102.644 824.019L103.023 824.358Z" stroke="white" stroke-opacity="0.1" stroke-width="2" stroke-miterlimit="10"/>
<path d="M103.023 823.666L102.644 824.018" stroke="white" stroke-opacity="0.1" stroke-width="2" stroke-miterlimit="10"/>
<path d="M213.731 720.175V720.88L158.758 771.921L103.406 720.515L103.772 720.175H213.731Z" stroke="white" stroke-opacity="0.1" stroke-width="2" stroke-miterlimit="10"/>
<path d="M213.727 822.961H103.781L158.754 771.92L213.727 822.961Z" stroke="white" stroke-opacity="0.1" stroke-width="2" stroke-miterlimit="10"/>
<path d="M158.755 771.921L103.782 822.962H103.023V720.867L103.402 720.515L158.755 771.921Z" stroke="white" stroke-opacity="0.1" stroke-width="2" stroke-miterlimit="10"/>
<path d="M103.023 720.866V822.961H101.505L47.2914 772.612L103.023 720.866Z" stroke="white" stroke-opacity="0.1" stroke-width="2" stroke-miterlimit="10"/>
<path d="M101.505 822.962H-6.936L47.2917 772.613L101.505 822.962Z" stroke="white" stroke-opacity="0.1" stroke-width="2" stroke-miterlimit="10"/>
<rect x="-3" width="46" height="43" fill="#040214"/>
<rect x="44" y="43" width="61.7099" height="7.96256" fill="#040214"/>
<rect x="44" y="59.5889" width="61.7099" height="7.96256" fill="#040214"/>
<rect x="44" y="76.1772" width="61.7099" height="7.96256" fill="#040214"/>
<rect x="44" y="92.7661" width="61.7099" height="7.96256" fill="#040214"/>
<rect x="366" y="115" width="9.61216" height="9.61216" fill="#040214"/>
<rect x="366" y="135.025" width="9.61216" height="9.61216" fill="#040214"/>
<rect x="366" y="155.051" width="9.61216" height="9.61216" fill="#040214"/>
<rect x="366" y="175.076" width="9.61216" height="9.61216" fill="#040214"/>
<rect x="385.223" y="115" width="9.61216" height="9.61216" fill="#040214"/>
<rect x="385.223" y="135.025" width="9.61216" height="9.61216" fill="#040214"/>
<rect x="385.223" y="155.051" width="9.61216" height="9.61216" fill="#040214"/>
<rect x="385.223" y="175.076" width="9.61216" height="9.61216" fill="#040214"/>
<rect x="358" y="931.859" width="10.2865" height="10.2865" transform="rotate(-90 358 931.859)" fill="#040214"/>
<rect x="379.43" y="931.859" width="10.2865" height="10.2865" transform="rotate(-90 379.43 931.859)" fill="#040214"/>
<rect x="400.86" y="931.859" width="10.2865" height="10.2865" transform="rotate(-90 400.86 931.859)" fill="#040214"/>
<rect x="422.291" y="931.859" width="10.2865" height="10.2865" transform="rotate(-90 422.291 931.859)" fill="#040214"/>
<rect x="358" y="911.287" width="10.2865" height="10.2865" transform="rotate(-90 358 911.287)" fill="#040214"/>
<rect x="379.43" y="911.287" width="10.2865" height="10.2865" transform="rotate(-90 379.43 911.287)" fill="#040214"/>
<rect x="400.86" y="911.287" width="10.2865" height="10.2865" transform="rotate(-90 400.86 911.287)" fill="#040214"/>
<rect x="422.291" y="911.287" width="10.2865" height="10.2865" transform="rotate(-90 422.291 911.287)" fill="#040214"/>
<path d="M36 631L36 655.724L7.88018 681L-18 681L-18 631L36 631Z" fill="#040214"/>
<path d="M395 115V89.7818L424.131 64H453V115H395Z" fill="#040214"/>
<g filter="url(#filter0_b_115_512)">
<path d="M382.5 824L43.91 824L28 807.806V780H367.769L382.5 794.459V824Z" stroke="#040214" stroke-width="4"/>
</g>
<path d="M191.763 807.256C190.792 807.256 189.95 807.096 189.235 806.776C188.531 806.456 187.976 805.997 187.571 805.4C187.176 804.803 186.952 804.099 186.899 803.288H189.123C189.176 803.757 189.304 804.152 189.507 804.472C189.72 804.792 190.014 805.037 190.387 805.208C190.771 805.368 191.23 805.448 191.763 805.448C192.456 805.448 193.022 805.309 193.459 805.032C193.896 804.744 194.115 804.333 194.115 803.8C194.115 803.491 194.019 803.24 193.827 803.048C193.646 802.856 193.363 802.701 192.979 802.584C192.595 802.456 192.035 802.312 191.299 802.152C190.414 801.971 189.683 801.757 189.107 801.512C188.542 801.267 188.099 800.931 187.779 800.504C187.47 800.067 187.315 799.512 187.315 798.84C187.315 798.136 187.496 797.533 187.859 797.032C188.232 796.531 188.744 796.147 189.395 795.88C190.056 795.613 190.814 795.48 191.667 795.48C192.531 795.48 193.283 795.635 193.923 795.944C194.563 796.243 195.059 796.659 195.411 797.192C195.763 797.725 195.966 798.339 196.019 799.032H193.859C193.795 798.467 193.566 798.029 193.171 797.72C192.787 797.411 192.27 797.256 191.619 797.256C190.979 797.256 190.462 797.384 190.067 797.64C189.672 797.896 189.475 798.243 189.475 798.68C189.475 798.957 189.566 799.187 189.747 799.368C189.928 799.539 190.2 799.688 190.563 799.816C190.926 799.933 191.438 800.056 192.099 800.184C193.048 800.387 193.816 800.616 194.403 800.872C195 801.128 195.464 801.48 195.795 801.928C196.136 802.376 196.307 802.963 196.307 803.688C196.307 804.413 196.11 805.043 195.715 805.576C195.331 806.109 194.792 806.525 194.099 806.824C193.416 807.112 192.638 807.256 191.763 807.256ZM201.134 807.192C200.248 807.192 199.614 806.989 199.23 806.584C198.856 806.179 198.67 805.597 198.67 804.84V800.456H197.406V798.856H198.67V796.728H200.638V798.856H202.318V800.456H200.638V804.728C200.638 805.005 200.718 805.208 200.878 805.336C201.048 805.464 201.294 805.528 201.614 805.528C201.774 805.528 202.003 805.507 202.302 805.464V807.016C201.896 807.133 201.507 807.192 201.134 807.192ZM206.021 807.176C205.487 807.176 205.023 807.08 204.629 806.888C204.245 806.696 203.951 806.429 203.749 806.088C203.546 805.736 203.445 805.331 203.445 804.872C203.445 804.157 203.69 803.592 204.181 803.176C204.671 802.76 205.391 802.472 206.341 802.312L207.973 802.056C208.229 802.013 208.405 801.944 208.501 801.848C208.607 801.741 208.661 801.603 208.661 801.432C208.661 801.091 208.522 800.808 208.245 800.584C207.967 800.36 207.599 800.248 207.141 800.248C206.65 800.248 206.271 800.36 206.005 800.584C205.738 800.808 205.583 801.112 205.541 801.496H203.589C203.642 800.888 203.823 800.371 204.133 799.944C204.453 799.507 204.869 799.176 205.381 798.952C205.903 798.717 206.49 798.6 207.141 798.6C207.845 798.6 208.458 798.723 208.981 798.968C209.503 799.213 209.898 799.56 210.165 800.008C210.442 800.456 210.581 800.973 210.581 801.56V807H208.661V805.496C208.405 806.029 208.042 806.445 207.573 806.744C207.114 807.032 206.597 807.176 206.021 807.176ZM206.629 805.64C207.034 805.64 207.391 805.533 207.701 805.32C208.01 805.107 208.245 804.819 208.405 804.456C208.575 804.093 208.661 803.699 208.661 803.272V803.032C208.597 803.075 208.495 803.117 208.357 803.16C208.229 803.192 208.085 803.219 207.925 803.24L206.901 803.416C206.453 803.491 206.09 803.619 205.813 803.8C205.535 803.971 205.397 804.243 205.397 804.616C205.397 804.925 205.503 805.176 205.717 805.368C205.941 805.549 206.245 805.64 206.629 805.64ZM212.738 807V798.856H214.722V800.28C214.925 799.8 215.207 799.432 215.57 799.176C215.933 798.909 216.37 798.776 216.882 798.776C216.989 798.776 217.085 798.781 217.17 798.792C217.255 798.792 217.341 798.803 217.426 798.824V800.68C217.266 800.648 217.079 800.632 216.866 800.632C216.226 800.632 215.709 800.856 215.314 801.304C214.919 801.741 214.722 802.339 214.722 803.096V807H212.738ZM222.055 807.192C221.17 807.192 220.535 806.989 220.151 806.584C219.778 806.179 219.591 805.597 219.591 804.84V800.456H218.327V798.856H219.591V796.728H221.559V798.856H223.239V800.456H221.559V804.728C221.559 805.005 221.639 805.208 221.799 805.336C221.97 805.464 222.215 805.528 222.535 805.528C222.695 805.528 222.925 805.507 223.223 805.464V807.016C222.818 807.133 222.429 807.192 222.055 807.192Z" fill="#040214"/>
<rect x="376" y="489" width="77" height="9.21505" transform="rotate(-90 376 489)" fill="#040214"/>
<rect x="395.198" y="489" width="77" height="9.21505" transform="rotate(-90 395.198 489)" fill="#040214"/>
<rect x="414.396" y="489" width="77" height="9.21505" transform="rotate(-90 414.396 489)" fill="#040214"/>
</g>
<defs>
<filter id="filter0_b_115_512" x="16" y="768" width="378.5" height="68" filterUnits="userSpaceOnUse" color-interpolation-filters="sRGB">
<feFlood flood-opacity="0" result="BackgroundImageFix"/>
<feGaussianBlur in="BackgroundImageFix" stdDeviation="5"/>
<feComposite in2="SourceAlpha" operator="in" result="effect1_backgroundBlur_115_512"/>
<feBlend mode="normal" in="SourceGraphic" in2="effect1_backgroundBlur_115_512" result="shape"/>
</filter>
<clipPath id="clip0_115_512">
<rect width="429" height="927" fill="white"/>
</clipPath>
</defs>
</svg>
