<svg width="228" height="558" viewBox="0 0 228 558" fill="none" xmlns="http://www.w3.org/2000/svg">
<g opacity="0.04">
<path d="M513.218 105.56L523.944 94.8298L383.554 13.7423L379.628 28.4004L513.218 105.56Z" fill="#1212C4"/>
<path d="M590.348 239.204V393.524L562.823 386.15V462.953C562.762 464.308 562.308 465.616 561.516 466.717L546.604 458.141C546.736 457.954 546.86 457.753 546.992 457.57C547.579 456.595 547.908 455.487 547.95 454.349V178.382C547.929 177.537 547.737 176.705 547.384 175.938C547.267 175.672 547.138 175.413 546.996 175.161C546.441 174.163 545.64 173.324 544.668 172.724L425.618 103.97L433.043 91.0623L559.553 164.12C560.751 164.887 561.689 165.999 562.242 167.31C562.602 168.084 562.799 168.925 562.82 169.779V246.581L590.344 239.208V153.882C590.344 151.806 588.873 149.26 587.077 148.224L513.214 105.561L503.686 115.093L305.764 0.777149C303.968 -0.25905 301.032 -0.25905 299.236 0.777149L228.86 41.4257L221.442 13.7471L3.26643 139.76C1.47028 140.8 0 143.346 0 145.418V235.276L14.6524 239.204V153.882C14.6524 151.806 16.1227 149.26 17.9188 148.224L91.7821 105.561L101.31 115.093L228.86 41.4257L232.739 55.9363L299.228 17.5349C300.13 17.0495 301.133 16.7836 302.157 16.7587L302.184 33.9549C301.151 33.9743 300.137 34.2404 299.228 34.7311L179.782 103.726L187.094 116.397L299.232 51.6285C300.151 51.1356 301.175 50.8694 302.219 50.8523H302.498V33.9549C303.634 33.9307 304.757 34.1979 305.761 34.7311L425.214 103.718L417.902 116.389L364.347 85.4622L361.092 97.6171L305.764 65.6618C304.761 65.1287 303.638 64.8615 302.502 64.8857H302.246C301.195 64.8992 300.162 65.1654 299.236 65.6618L142.427 156.23L142.117 156.409L87.1036 188.182C86.1397 188.786 85.3454 189.626 84.7953 190.623C84.525 191.094 84.304 191.592 84.1359 192.109C83.9471 192.667 83.8464 193.251 83.8372 193.84V257.751L71.6908 254.495V186.823C71.6998 186.243 71.7966 185.667 71.9779 185.116C72.149 184.591 72.3739 184.085 72.649 183.606C73.1975 182.61 73.9906 181.77 74.9534 181.165L133.206 147.522L122.48 136.822L178.913 104.226L171.468 91.3417L45.443 164.12C44.1046 164.896 42.9485 166.503 42.4481 168.129L57.341 176.698C57.1638 177.241 57.0696 177.808 57.0617 178.379V316.364H71.6908V445.92C71.7305 447.056 72.0604 448.164 72.649 449.137L58.0199 457.586C57.4329 456.611 57.1031 455.502 57.0617 454.365V318.262L42.1766 318.289V386.146L27.6677 390.027V242.693L14.6524 239.2V393.52L0 397.451V487.302C0 489.374 1.47028 491.924 3.26643 492.96L221.446 618.977L232.762 576.791L299.251 615.212C300.477 615.848 301.863 616.106 303.235 615.953L303.204 598.761C304.106 598.701 304.985 598.447 305.78 598.016L425.117 529.099L425.234 529.029L482.466 495.976L493.429 506.842L493.088 507.04L372.257 576.807L383.554 619L601.734 492.983C603.53 491.947 605 489.397 605 487.325V235.276L590.348 239.204ZM305.764 581.111C304.961 581.548 304.071 581.803 303.158 581.86C302.94 581.879 302.719 581.891 302.502 581.891C301.365 581.916 300.24 581.648 299.236 581.115L240.657 547.281L243.912 535.13L193.17 505.806L199.241 495.281L299.232 553.036C300.237 553.568 301.361 553.835 302.498 553.813C302.7 553.813 302.886 553.813 303.103 553.785C304.033 553.733 304.94 553.477 305.761 553.036L405.577 495.382L405.755 495.281L453.677 467.602L453.782 467.544L505.766 437.529C506.517 437.068 507.162 436.453 507.659 435.725C507.807 435.52 507.944 435.307 508.07 435.088C508.66 434.115 508.991 433.008 509.032 431.871V371.717L496.882 368.461V424.85C496.842 425.987 496.512 427.095 495.924 428.068C495.792 428.293 495.648 428.514 495.497 428.724C495.002 429.445 494.361 430.053 493.615 430.509L444.852 458.672L444.801 458.703L399.7 484.752L399.506 484.865L305.757 539.003C304.93 539.449 304.014 539.706 303.076 539.756C302.882 539.771 302.688 539.779 302.494 539.779C301.357 539.802 300.233 539.535 299.228 539.003L250.414 510.808L253.602 498.898L169.055 450.045L178.125 440.972L217.466 463.69L218.502 464.292L256.931 486.487L260.186 474.332L224.558 453.763L223.537 453.177L187.017 432.08L186.893 432.011L178.001 440.906L135.693 416.456C134.731 415.85 133.938 415.01 133.388 414.015C132.8 413.042 132.47 411.934 132.43 410.798V221.907C132.441 221.284 132.552 220.666 132.76 220.079C132.924 219.596 133.134 219.131 133.388 218.689C133.938 217.694 134.731 216.854 135.693 216.248L177.757 191.966H177.78L178.001 191.841L216.713 169.456L217.466 169.026L256.815 146.299L256.943 146.225L299.247 121.776C300.202 121.265 301.268 120.998 302.351 121H302.506C303.642 120.975 304.765 121.243 305.768 121.776L348.073 146.225L344.818 158.38L381.463 179.547L381.998 179.853L418.107 200.709L427.003 191.814L387.538 169.006L348.069 146.225L351.262 134.315L351.324 134.074L305.764 107.75C304.76 107.219 303.638 106.952 302.502 106.974H302.323C301.241 106.973 300.175 107.239 299.22 107.75L253.676 134.074L250.421 121.919L205.316 147.972L204.54 148.426L160.218 174.02L169.288 183.098L169.071 183.222L169.032 183.245L123.546 209.511C122.651 210.071 121.904 210.838 121.366 211.747C121.095 212.185 120.866 212.649 120.683 213.132C120.435 213.783 120.304 214.473 120.296 215.169V267.519L108.149 264.263V368.465L120.296 365.209V418.117C120.331 419.172 120.621 420.203 121.141 421.121C121.696 422.207 122.532 423.124 123.562 423.775L168.951 449.987L151.323 467.602L99.2538 437.529C98.291 436.924 97.4979 436.084 96.9494 435.088L84.7992 442.105C84.2123 441.131 83.8826 440.024 83.841 438.888V316.376H95.9873V261.007L108.138 264.263V207.877C108.146 207.272 108.253 206.672 108.452 206.1C108.618 205.6 108.834 205.117 109.096 204.66C109.651 203.661 110.452 202.821 111.423 202.219L160.238 174.024L151.342 165.129L247.163 109.768L250.421 121.919L299.236 93.7246C300.178 93.2217 301.228 92.9554 302.296 92.9484H302.502C303.638 92.9261 304.76 93.1932 305.764 93.7246L354.575 121.919L357.83 109.768L405.751 137.447L411.823 126.922L412.269 127.178L517.896 188.182C518.867 188.784 519.669 189.624 520.224 190.623L508.074 197.639C508.233 197.914 508.376 198.198 508.501 198.489C508.835 199.235 509.017 200.04 509.036 200.857V316.364H521.182V257.762L533.332 254.506V378.249L521.182 374.993V438.903C521.141 440.039 520.811 441.147 520.224 442.12C520.1 442.334 519.968 442.536 519.836 442.737C519.335 443.474 518.683 444.096 517.924 444.561L462.759 476.424L462.6 476.513L411.858 505.821L411.702 505.915L361.092 535.114L364.11 546.369L364.347 547.246L305.764 581.111Z" fill="#1212C4"/>
<path d="M496.866 207.876C496.845 207.073 496.667 206.282 496.343 205.548C496.215 205.248 496.07 204.957 495.908 204.674C495.353 203.676 494.552 202.835 493.581 202.233L400.154 148.266L399.672 147.99L354.575 121.919L351.316 134.073L393.601 158.496L394.102 158.783L435.886 182.918L435.708 183.097L435.836 183.166L427.119 191.887L469.299 216.247C470.262 216.852 471.055 217.692 471.604 218.688C471.774 218.985 471.926 219.292 472.058 219.608C472.373 220.334 472.545 221.114 472.562 221.906V270.774L460.416 274.03V358.696L448.269 355.44V396.787C448.228 397.924 447.897 399.031 447.307 400.004C447.161 400.26 447.001 400.507 446.826 400.745C446.341 401.431 445.721 402.009 445.003 402.445L409.208 423.118L409.041 423.216L408.991 423.247L375.38 442.651L375.112 442.806L341.552 462.188L338.305 450.044L369.025 432.301L369.313 432.134L400.103 414.352L400.32 414.227L432.857 395.432C433.568 395 434.184 394.428 434.668 393.752C434.848 393.502 435.014 393.243 435.165 392.976C435.752 392.002 436.082 390.895 436.123 389.758V242.956C436.105 242.188 435.943 241.431 435.646 240.724C435.507 240.386 435.346 240.056 435.165 239.738C434.611 238.739 433.809 237.898 432.837 237.297L400.425 218.576L400.301 218.502L409.193 209.607L375.919 190.389L375.364 190.067L341.536 170.53L338.281 182.681L305.741 163.89C304.738 163.357 303.615 163.09 302.479 163.114H302.397C301.287 163.102 300.192 163.368 299.212 163.89L266.672 182.681L263.417 170.53L263.289 170.604L229.589 190.067L229.55 190.09L223.475 179.569L222.781 179.957L186.869 200.696L186.652 200.825L147.843 223.264C146.872 223.866 146.071 224.706 145.515 225.705C145.265 226.139 145.057 226.597 144.895 227.071C144.683 227.666 144.569 228.291 144.557 228.922V403.803C144.599 404.94 144.928 406.047 145.515 407.021C146.07 408.02 146.871 408.861 147.843 409.462L186.893 432.017L204.68 414.223L204.804 414.297L266.695 450.06L260.186 474.362L299.236 496.918C300.24 497.451 301.365 497.719 302.502 497.694C302.669 497.694 302.839 497.694 303.01 497.694C303.975 497.648 304.917 497.383 305.764 496.918L344.69 474.436L344.814 474.362L381.211 453.343L381.463 453.199L417.89 432.157L418.107 432.033L427.003 440.928L469.288 416.478C470.018 416.031 470.648 415.438 471.138 414.736C471.301 414.511 471.453 414.277 471.592 414.037C472.181 413.064 472.511 411.957 472.55 410.82V271.026L484.701 267.77V365.208L496.847 368.464L496.866 207.876ZM269.95 437.889L273.205 425.738L299.236 440.773C300.241 441.305 301.365 441.572 302.502 441.549H302.913C303.911 441.515 304.887 441.25 305.764 440.773L331.686 425.812L331.811 425.738L328.556 413.583L350.765 400.776L351.107 400.578L351.363 400.431L373.277 387.775L373.44 387.678L373.657 387.554L364.75 378.636L364.316 378.884L345.241 389.89L345.02 390.018L344.655 390.228L325.286 401.416L325.161 401.49L305.764 412.691C304.871 413.173 303.877 413.439 302.863 413.467H302.502C301.365 413.491 300.24 413.224 299.236 412.691L279.715 401.436L276.46 413.587L231.482 387.612L231.358 387.538L208.582 374.367C207.632 373.746 206.841 372.911 206.273 371.928C205.706 370.945 205.378 369.842 205.316 368.708V342.415L193.17 345.671V287.046L181.019 283.79V249.972C181.029 249.309 181.152 248.653 181.384 248.032C181.542 247.583 181.742 247.151 181.981 246.739C182.528 245.742 183.321 244.901 184.286 244.298L213.366 227.525L213.412 227.498L204.49 218.611L204.459 218.63L172.139 237.297C171.168 237.898 170.366 238.739 169.812 239.738C169.57 240.157 169.368 240.598 169.207 241.054C168.984 241.664 168.865 242.306 168.854 242.956V316.363H181V382.753C181.041 383.891 181.372 385 181.962 385.974L169.831 392.995C169.244 392.021 168.914 390.914 168.873 389.778V352.183L156.727 355.44V235.939C156.737 235.299 156.854 234.666 157.072 234.064C157.234 233.599 157.439 233.149 157.685 232.722C158.232 231.725 159.026 230.884 159.989 230.281L195.567 209.712L195.773 209.595L204.668 218.49L234.978 200.984L235.641 200.596H235.676L241.747 211.121H241.716L241.072 211.509L213.571 227.397L222.463 236.296L247.807 221.657H247.834L273.081 207.077L273.205 207.003L269.95 194.852L299.236 177.939C300.222 177.414 301.326 177.147 302.444 177.163H302.502C303.638 177.138 304.761 177.406 305.764 177.939L363.831 211.493L391.557 227.471L420.714 244.314C421.679 244.917 422.472 245.757 423.019 246.755C423.207 247.079 423.371 247.416 423.511 247.764C423.804 248.464 423.964 249.213 423.981 249.972V382.753C423.94 383.89 423.609 384.998 423.019 385.971C422.863 386.239 422.692 386.498 422.507 386.747C422.027 387.415 421.417 387.98 420.714 388.408L391.429 405.328L382.537 396.43L382.32 396.558L382.208 396.62L357.453 410.917L363.559 421.426L363.241 421.609L362.935 421.787L335.05 437.889L334.926 437.963L305.764 454.806C304.894 455.279 303.926 455.545 302.936 455.582C302.793 455.582 302.646 455.582 302.502 455.582C301.365 455.605 300.241 455.338 299.236 454.806L269.95 437.889Z" fill="#1212C4"/>
<path d="M426.782 441.037L387.538 463.705L387.305 463.841L348.069 486.501L347.945 486.571L351.2 498.726L351.266 498.967L351.39 498.897L393.516 474.564L393.729 474.439L435.855 450.11L426.782 441.037Z" fill="#1212C4"/>
<path d="M305.764 135.824C304.761 135.291 303.638 135.023 302.502 135.048H302.37C301.277 135.042 300.2 135.309 299.236 135.824L260.186 158.379L263.441 170.531L299.236 149.857C300.208 149.339 301.295 149.072 302.397 149.081H302.502C303.638 149.057 304.761 149.324 305.764 149.857L341.559 170.531L344.814 158.379L305.764 135.824Z" fill="#1212C4"/>
<path d="M409.216 209.607L409.34 209.677L445.011 230.281C445.974 230.885 446.768 231.725 447.315 232.722C447.495 233.032 447.653 233.353 447.788 233.684C448.093 234.398 448.259 235.163 448.277 235.939V277.286L460.423 274.03V228.923C460.405 228.138 460.236 227.365 459.927 226.644C459.792 226.323 459.638 226.009 459.465 225.705C458.91 224.707 458.109 223.866 457.138 223.264L418.235 200.782L418.107 200.709L409.216 209.607Z" fill="#1212C4"/>
<path d="M382.537 396.43L408.568 381.395C409.263 380.971 409.867 380.413 410.345 379.753C410.536 379.499 410.713 379.233 410.872 378.958C411.461 377.983 411.791 376.875 411.83 375.737V256.989C411.814 256.239 411.659 255.498 411.373 254.804C411.23 254.447 411.063 254.101 410.872 253.768C410.324 252.773 409.531 251.934 408.568 251.331L382.661 236.37L382.537 236.296L357.775 221.995L357.166 221.642L305.764 191.964C304.76 191.433 303.638 191.166 302.502 191.188H302.471C301.344 191.17 300.231 191.437 299.236 191.964L273.205 206.999L276.46 219.131L276.336 219.201L253.909 232.155H253.882L253.269 232.508L231.358 245.164L222.463 236.269L222.308 236.358L222.245 236.393L196.436 251.342C195.471 251.944 194.677 252.783 194.128 253.779C193.894 254.185 193.696 254.611 193.538 255.052C193.307 255.674 193.183 256.33 193.17 256.993L193.17 287.046L205.316 290.306L205.316 342.415L217.466 339.155V271.022C217.479 270.339 217.611 269.662 217.854 269.024C218.011 268.601 218.203 268.192 218.428 267.801C218.976 266.805 219.769 265.966 220.732 265.364L240.036 254.214L240.133 254.156L240.254 254.09L249.141 262.985L249.04 263.043L248.924 263.109L232.879 272.377C231.915 272.981 231.121 273.821 230.571 274.818C230.351 275.202 230.163 275.603 230.008 276.017C229.762 276.662 229.63 277.345 229.62 278.035V335.899L217.474 339.155V361.707C217.514 362.844 217.844 363.951 218.432 364.924C218.978 365.926 219.772 366.772 220.736 367.381L240.257 378.636L249.149 369.737L232.887 360.345C231.923 359.74 231.128 358.9 230.578 357.904L242.729 350.887C243.277 351.883 244.07 352.724 245.033 353.328L258.044 360.842L258.168 360.915L272.134 368.98L266.059 379.505L266.947 380.021L299.239 398.669C300.244 399.202 301.369 399.47 302.506 399.445C302.618 399.445 302.727 399.445 302.839 399.445C303.863 399.422 304.867 399.156 305.768 398.669L321.91 389.355L322.035 389.285L338.568 379.734L338.956 379.513L332.881 368.988L332.493 369.221L318.799 377.13L315.544 364.979L315.416 365.049L305.788 370.61C304.872 371.103 303.852 371.369 302.812 371.386H302.525C301.388 371.411 300.263 371.144 299.259 370.61L289.479 364.975L279.055 358.952L278.205 358.463L267.056 352.02L266.928 351.947L257.175 346.316C256.211 345.711 255.417 344.871 254.867 343.874C254.28 342.901 253.95 341.794 253.909 340.657V329.403L241.759 332.659V300.098L253.909 303.346V292.092C253.923 291.385 254.062 290.686 254.32 290.027C254.473 289.626 254.655 289.236 254.867 288.863C255.417 287.866 256.211 287.026 257.175 286.422L266.711 280.915L266.858 280.829L266.928 280.79L258.037 271.892L272.126 263.749L266.051 253.224L282.841 243.522L282.965 243.452L279.703 231.294L299.224 220.019C300.229 219.486 301.353 219.219 302.49 219.243H302.51C303.639 219.221 304.756 219.489 305.753 220.019L325.274 231.294L328.54 219.131L351.083 232.167L351.712 232.532L373.634 245.191L373.762 245.265L396.41 258.347C397.375 258.949 398.169 259.788 398.718 260.784C398.912 261.126 399.081 261.48 399.226 261.844C399.508 262.531 399.661 263.263 399.676 264.006V290.314L387.549 293.57V339.155L399.7 342.415V368.72C399.658 369.858 399.328 370.966 398.741 371.941C398.575 372.222 398.394 372.494 398.198 372.756C397.722 373.408 397.122 373.959 396.433 374.378L373.657 387.535L382.553 396.43L382.537 396.43Z" fill="#1212C4"/>
<path d="M384.271 367.381C384.952 366.965 385.545 366.419 386.017 365.775C386.221 365.509 386.408 365.23 386.576 364.94C387.164 363.967 387.494 362.859 387.534 361.723V339.156L375.388 335.899V296.827L387.549 293.57L387.549 271.022C387.536 270.289 387.387 269.564 387.111 268.884C386.965 268.511 386.792 268.149 386.591 267.801C386.044 266.805 385.25 265.966 384.287 265.364L364.89 254.16L364.766 254.09L355.859 262.985L339.612 253.601L338.945 253.213L305.764 234.049C304.774 233.522 303.666 233.255 302.545 233.273H302.502V247.306C301.365 247.282 300.24 247.549 299.236 248.082L286.224 255.611L289.479 267.763L299.236 262.131C300.24 261.598 301.365 261.33 302.502 261.355H302.591C303.696 261.344 304.786 261.611 305.761 262.131L315.517 267.763L318.776 255.611L332.87 263.761L333.556 264.149L346.963 271.892L338.072 280.791L338.196 280.861L347.825 286.422C348.789 287.027 349.583 287.867 350.133 288.863C350.345 289.236 350.528 289.626 350.68 290.027C350.938 290.687 351.077 291.387 351.091 292.096V340.642C351.051 341.779 350.721 342.886 350.133 343.859C349.952 344.172 349.75 344.471 349.528 344.756C349.064 345.377 348.486 345.904 347.825 346.308L338.072 351.939L346.963 360.838L359.975 353.325C360.641 352.921 361.224 352.394 361.693 351.772C361.907 351.493 362.102 351.2 362.279 350.895L374.429 357.912C374.256 358.208 374.064 358.493 373.855 358.766C373.385 359.402 372.796 359.941 372.121 360.353L355.859 369.745L364.75 378.636L384.271 367.381Z" fill="#1212C4"/>
<path d="M326.379 358.7L326.795 358.459L326.923 358.385L337.474 352.292L337.855 352.075L338.072 351.947L329.18 343.052L328.963 343.176L328.529 343.428L320.816 347.88L320.723 347.934L320.285 348.186L312.266 352.82L315.521 364.971L326.379 358.7Z" fill="#1212C4"/>
<path d="M312.266 279.906L305.764 276.149C304.797 275.633 303.715 275.366 302.618 275.373H302.502C301.365 275.35 300.241 275.617 299.236 276.149L292.734 279.906L292.61 279.976L284.277 284.788L283.737 285.099L275.823 289.674L275.773 289.705L275.606 289.798L269.326 293.427C268.363 294.032 267.57 294.872 267.021 295.868C266.811 296.229 266.631 296.607 266.482 296.997C266.217 297.662 266.074 298.37 266.059 299.085V306.595L278.209 309.851V322.868L290.356 319.611C290.356 319.693 290.356 319.778 290.356 319.86C290.441 320.905 290.764 321.917 291.302 322.817C291.85 323.809 292.64 324.646 293.599 325.25L293.715 325.316L296.407 326.869L297.183 327.327L299.197 328.491C300.198 329.022 301.318 329.289 302.452 329.267H302.665C303.677 329.258 304.673 329.018 305.578 328.565L305.706 328.499L308.034 327.148L308.507 326.877H308.538L310.567 325.712L311.11 325.402L311.316 325.281C311.951 324.895 312.509 324.394 312.961 323.803C313.201 323.501 313.419 323.182 313.612 322.848C314.143 321.959 314.466 320.961 314.559 319.93C314.559 319.833 314.559 319.736 314.559 319.643L338.856 326.155V299.078C338.843 298.377 338.705 297.684 338.448 297.032C338.298 296.63 338.113 296.24 337.897 295.868C337.342 294.869 336.541 294.029 335.57 293.427L329.305 289.763L329.18 289.69L338.072 280.795L315.521 267.767L312.266 279.922V279.906ZM320.413 298.643L323.517 300.444C324.479 301.049 325.272 301.889 325.821 302.885C326.041 303.267 326.229 303.667 326.383 304.08C326.63 304.726 326.762 305.411 326.771 306.102V309.851L314.625 313.107C314.61 312.428 314.478 311.756 314.237 311.12C314.082 310.698 313.891 310.291 313.667 309.901C313.139 308.954 312.393 308.146 311.49 307.546L311.37 307.468L309.322 306.285L308.546 305.846L305.737 304.224C304.782 303.714 303.716 303.448 302.634 303.448H302.467C301.334 303.426 300.214 303.693 299.212 304.224L299.096 304.29L296.404 305.842L295.895 306.133L293.599 307.46L284.707 298.561L295.853 292.127L295.977 292.053L299.224 290.179C300.229 289.647 301.353 289.38 302.49 289.403H302.63C303.712 289.403 304.778 289.669 305.733 290.179L314.617 295.309L315.358 295.736L320.254 298.565L320.413 298.643Z" fill="#1212C4"/>
<path d="M266.055 326.383V333.64C266.096 334.777 266.427 335.885 267.017 336.858C267.566 337.854 268.359 338.694 269.322 339.299L275.823 343.052L284.719 334.157L281.472 332.282C280.51 331.676 279.717 330.836 279.167 329.841C278.579 328.868 278.249 327.76 278.209 326.624V322.875L266.059 326.131L266.055 326.383Z" fill="#1212C4"/>
<path d="M309.011 340.669L308.883 340.743L305.78 342.543C304.848 343.04 303.81 343.306 302.754 343.319H302.517C301.38 343.342 300.256 343.075 299.251 342.543L295.996 340.669L295.608 342.155L292.745 352.835L299.247 356.592C300.252 357.124 301.377 357.391 302.514 357.368H302.773C303.822 357.353 304.852 357.087 305.776 356.592L312.15 352.909L312.278 352.835L309.023 340.684L309.011 340.669Z" fill="#1212C4"/>
</g>
</svg>
