<svg width="208" height="113" viewBox="0 0 208 113" fill="none" xmlns="http://www.w3.org/2000/svg">
<path d="M33.75 0.499991H0.75V113H33.75V96.8H17.55V64.85H31.05V48.65H17.55V16.7H33.75V0.499991ZM84.5297 113L76.1297 0.499991H47.3297L38.9297 113H56.4797C56.7797 106.25 57.2297 99.5 57.5297 92.75H65.9297C66.2297 99.5 66.6797 106.25 66.9797 113H84.5297ZM58.4297 76.55L60.6797 31.85C60.8297 27.65 60.6797 23.6 60.6797 19.4H62.7797C62.7797 23.6 62.6297 27.65 62.7797 31.85L65.0297 76.55H58.4297ZM128.08 8.59999L119.98 0.499991H97.1801L89.0801 8.59999V41.3L111.28 78.05V96.8H105.88V75.5H89.0801V104.9L97.1801 113H120.58L128.08 104.9V72.35L105.88 35.6V16.7H111.28V38H128.08V8.59999ZM168.516 0.499991H135.516V113H168.516V96.8H152.316V64.85H165.816V48.65H152.316V16.7H168.516V0.499991ZM191.28 0.499991H174.48V113H207.48V96.8H191.28V0.499991Z" fill="#080830"/>
</svg>
