<svg width="125" height="121" viewBox="0 0 125 121" fill="none" xmlns="http://www.w3.org/2000/svg">
<path d="M28.6094 36.6875V27.8075H25.0994V26.1275H33.9944V27.8075H30.4994V36.6875H28.6094ZM35.4706 36.6875V25.8125H37.3006V30.1175C37.5506 29.7075 37.8706 29.3875 38.2606 29.1575C38.6606 28.9275 39.1256 28.8125 39.6556 28.8125C40.5056 28.8125 41.1706 29.0925 41.6506 29.6525C42.1406 30.2125 42.3856 30.9825 42.3856 31.9625V36.6875H40.5256V32.0825C40.5256 31.5225 40.4006 31.0975 40.1506 30.8075C39.9106 30.5175 39.5456 30.3725 39.0556 30.3725C38.7056 30.3725 38.4006 30.4675 38.1406 30.6575C37.8806 30.8375 37.6756 31.0975 37.5256 31.4375C37.3756 31.7775 37.3006 32.1675 37.3006 32.6075V36.6875H35.4706ZM47.0012 36.9275C46.1412 36.9275 45.4712 36.6475 44.9912 36.0875C44.5112 35.5275 44.2712 34.7575 44.2712 33.7775V29.0525H46.1312V33.6575C46.1312 34.2175 46.2512 34.6425 46.4912 34.9325C46.7412 35.2125 47.1112 35.3525 47.6012 35.3525C47.9412 35.3525 48.2412 35.2625 48.5012 35.0825C48.7712 34.9025 48.9812 34.6425 49.1312 34.3025C49.2812 33.9625 49.3562 33.5725 49.3562 33.1325V29.0525H51.2012V36.6875H49.3562V35.6225C49.1062 36.0325 48.7812 36.3525 48.3812 36.5825C47.9812 36.8125 47.5212 36.9275 47.0012 36.9275ZM53.3564 36.6875V29.0525H55.2164V30.0275C55.4264 29.6475 55.7064 29.3525 56.0564 29.1425C56.4064 28.9225 56.8064 28.8125 57.2564 28.8125C57.7964 28.8125 58.2564 28.9325 58.6364 29.1725C59.0164 29.4125 59.2864 29.7575 59.4464 30.2075C59.6764 29.7675 59.9814 29.4275 60.3614 29.1875C60.7514 28.9375 61.2014 28.8125 61.7114 28.8125C62.4714 28.8125 63.0564 29.0325 63.4664 29.4725C63.8764 29.9025 64.0814 30.5375 64.0814 31.3775V36.6875H62.2364V31.7375C62.2364 31.2875 62.1364 30.9475 61.9364 30.7175C61.7464 30.4875 61.4564 30.3725 61.0664 30.3725C60.7764 30.3725 60.5264 30.4475 60.3164 30.5975C60.1064 30.7375 59.9414 30.9525 59.8214 31.2425C59.7014 31.5325 59.6414 31.8875 59.6414 32.3075V36.6875H57.7964V31.7375C57.7964 31.2975 57.7014 30.9625 57.5114 30.7325C57.3214 30.4925 57.0314 30.3725 56.6414 30.3725C56.3614 30.3725 56.1114 30.4475 55.8914 30.5975C55.6814 30.7375 55.5164 30.9525 55.3964 31.2425C55.2764 31.5225 55.2164 31.8725 55.2164 32.2925V36.6875H53.3564ZM70.3605 36.9275C69.8605 36.9275 69.4005 36.8225 68.9805 36.6125C68.5705 36.4025 68.2205 36.1075 67.9305 35.7275V36.6875H66.1005V25.8125H67.9305V30.0275C68.2205 29.6475 68.5705 29.3525 68.9805 29.1425C69.4005 28.9225 69.8605 28.8125 70.3605 28.8125C71.0405 28.8125 71.6455 28.9875 72.1755 29.3375C72.7155 29.6775 73.1305 30.1575 73.4205 30.7775C73.7205 31.3975 73.8705 32.0975 73.8705 32.8775C73.8705 33.6675 73.7205 34.3675 73.4205 34.9775C73.1305 35.5875 72.7155 36.0675 72.1755 36.4175C71.6455 36.7575 71.0405 36.9275 70.3605 36.9275ZM69.9405 35.3525C70.3505 35.3525 70.7105 35.2525 71.0205 35.0525C71.3305 34.8525 71.5655 34.5675 71.7255 34.1975C71.8855 33.8275 71.9655 33.3875 71.9655 32.8775C71.9655 32.1075 71.7855 31.5025 71.4255 31.0625C71.0655 30.6125 70.5705 30.3875 69.9405 30.3875C69.3205 30.3875 68.8305 30.6125 68.4705 31.0625C68.1105 31.5025 67.9305 32.1075 67.9305 32.8775C67.9305 33.3875 68.0105 33.8275 68.1705 34.1975C68.3405 34.5675 68.5755 34.8525 68.8755 35.0525C69.1855 35.2525 69.5405 35.3525 69.9405 35.3525ZM75.5488 36.6875V29.0525H77.4088V30.1175C77.6488 29.7075 77.9688 29.3875 78.3688 29.1575C78.7688 28.9275 79.2288 28.8125 79.7488 28.8125C80.6088 28.8125 81.2788 29.0925 81.7588 29.6525C82.2388 30.2125 82.4788 30.9825 82.4788 31.9625V36.6875H80.6338V32.0825C80.6338 31.5225 80.5088 31.0975 80.2588 30.8075C80.0088 30.5175 79.6388 30.3725 79.1488 30.3725C78.8088 30.3725 78.5038 30.4675 78.2338 30.6575C77.9738 30.8375 77.7688 31.0975 77.6188 31.4375C77.4788 31.7775 77.4088 32.1675 77.4088 32.6075V36.6875H75.5488ZM86.4339 36.8525C85.9339 36.8525 85.4989 36.7625 85.1289 36.5825C84.7689 36.4025 84.4939 36.1525 84.3039 35.8325C84.1139 35.5025 84.0189 35.1225 84.0189 34.6925C84.0189 34.0225 84.2489 33.4925 84.7089 33.1025C85.1689 32.7125 85.8439 32.4425 86.7339 32.2925L88.2639 32.0525C88.5039 32.0125 88.6689 31.9475 88.7589 31.8575C88.8589 31.7575 88.9089 31.6275 88.9089 31.4675C88.9089 31.1475 88.7789 30.8825 88.5189 30.6725C88.2589 30.4625 87.9139 30.3575 87.4839 30.3575C87.0239 30.3575 86.6689 30.4625 86.4189 30.6725C86.1689 30.8825 86.0239 31.1675 85.9839 31.5275H84.1539C84.2039 30.9575 84.3739 30.4725 84.6639 30.0725C84.9639 29.6625 85.3539 29.3525 85.8339 29.1425C86.3239 28.9225 86.8739 28.8125 87.4839 28.8125C88.1439 28.8125 88.7189 28.9275 89.2089 29.1575C89.6989 29.3875 90.0689 29.7125 90.3189 30.1325C90.5789 30.5525 90.7089 31.0375 90.7089 31.5875V36.6875H88.9089V35.2775C88.6689 35.7775 88.3289 36.1675 87.8889 36.4475C87.4589 36.7175 86.9739 36.8525 86.4339 36.8525ZM87.0039 35.4125C87.3839 35.4125 87.7189 35.3125 88.0089 35.1125C88.2989 34.9125 88.5189 34.6425 88.6689 34.3025C88.8289 33.9625 88.9089 33.5925 88.9089 33.1925V32.9675C88.8489 33.0075 88.7539 33.0475 88.6239 33.0875C88.5039 33.1175 88.3689 33.1425 88.2189 33.1625L87.2589 33.3275C86.8389 33.3975 86.4989 33.5175 86.2389 33.6875C85.9789 33.8475 85.8489 34.1025 85.8489 34.4525C85.8489 34.7425 85.9489 34.9775 86.1489 35.1575C86.3589 35.3275 86.6439 35.4125 87.0039 35.4125ZM92.7314 36.6875V29.0525H94.5764V36.6875H92.7314ZM93.6614 28.0475C93.3314 28.0475 93.0514 27.9325 92.8214 27.7025C92.5914 27.4625 92.4764 27.1825 92.4764 26.8625C92.4764 26.5325 92.5914 26.2525 92.8214 26.0225C93.0514 25.7825 93.3314 25.6625 93.6614 25.6625C93.9914 25.6625 94.2714 25.7825 94.5014 26.0225C94.7314 26.2525 94.8464 26.5325 94.8464 26.8625C94.8464 27.1825 94.7314 27.4625 94.5014 27.7025C94.2714 27.9325 93.9914 28.0475 93.6614 28.0475ZM96.6104 36.6875V25.8125H98.4404V36.6875H96.6104Z" fill="#B6B6E8"/>
<path d="M43.5557 77.5056V92.2617H80.6119V77.5056M55.2695 68.652L61.7861 62.0117M61.7861 62.0117L68.3027 68.652M61.7861 62.0117V82.6703" stroke="#A1A1A1" stroke-width="4"/>
<path d="M118.704 103.496L120.205 104.818L110.699 115.606L109.198 114.284L105.043 119H100.671V121H90.1216V119H79.5719V121H69.0222V119H58.4725V121H47.9228V119H37.3731V121H26.8234V119H16.2738V121H5.72406V119H2.44922V115.958H0.449219V105.875H2.44922V95.7917H0.449219V85.7083H2.44922V75.625H0.449219V65.5417H2.44922V55.4583H0.449219V45.375H2.44922V35.2917H0.449219V25.2083H2.44922V15.125H0.449219V5.04167H2.44922V2H5.63708V0H16.0128V2H26.3885V0H36.7642V2H47.1399V0H57.5156V2H67.8913V0H78.267V2H88.6427V0H99.0184V2H109.394V0H119.77V2H122.958V4.97122H124.958V14.9137H122.958V24.8561H124.958V34.7986H122.958V44.7411H124.958V54.6835H122.958V64.626H124.958V74.5685H122.958V84.5109H124.958V94.4534H122.958V98.6692L118.704 103.496Z" stroke="#B6B6E8" stroke-width="4" stroke-dasharray="10 10"/>
</svg>
