<svg width="22" height="18" viewBox="0 0 22 18" fill="none" xmlns="http://www.w3.org/2000/svg">
<rect width="22" height="18" fill="#EF4421"/>
<path fill-rule="evenodd" clip-rule="evenodd" d="M8.89878 2H13.4608L15.9778 4.51034H20V16H2V4.51034H6.38174L8.89878 2ZM9.50546 3.44828L6.98842 5.95862H3.45946V14.5517H18.5405V5.95862H15.3712L12.8541 3.44828H9.50546Z" fill="white"/>
<path fill-rule="evenodd" clip-rule="evenodd" d="M12.7656 6.77522L14.517 8.49818L14.5278 10.9455L12.7915 12.6835L10.3253 12.6942L8.57385 10.9713L8.56309 8.52396L10.2994 6.7859L12.7656 6.77522ZM10.9102 8.23154L10.0252 9.11753L10.0307 10.3651L10.9235 11.2433L12.1806 11.2379L13.0657 10.3519L13.0602 9.10439L12.1674 8.2261L10.9102 8.23154Z" fill="white"/>
</svg>
