<svg width="61" height="35" viewBox="0 0 61 35" fill="none" xmlns="http://www.w3.org/2000/svg">
<path d="M32.4062 16.2031L16.2031 32.4062L16.2031 16.2031L32.4062 16.2031Z" fill="#F36B50"/>
<path d="M16.2031 32.4062L0 16.2031L16.2031 16.2031L16.2031 32.4062Z" fill="#F7937F"/>
<path d="M-7.08261e-07 16.2031L16.2031 0L16.2031 16.2031L-7.08261e-07 16.2031Z" fill="#FBBAAD"/>
<path d="M16.2031 -7.08261e-07L32.4062 16.2031L16.2031 16.2031L16.2031 -7.08261e-07Z" fill="#EF4421"/>
<path d="M24.306 16.2044L16.2031 8.10156L8.10024 16.2044L16.2031 24.3073L24.306 16.2044Z" fill="white"/>
<path d="M61 16.2031L44.7969 32.4062L44.7969 16.2031L61 16.2031Z" fill="#F36B50"/>
<path d="M44.7969 32.4062L28.5938 16.2031L44.7969 16.2031L44.7969 32.4062Z" fill="#F7937F"/>
<path d="M28.5937 16.2031L44.7969 0L44.7969 16.2031L28.5937 16.2031Z" fill="#FBBAAD"/>
<path d="M44.7969 -7.08261e-07L61 16.2031L44.7969 16.2031L44.7969 -7.08261e-07Z" fill="#EF4421"/>
<path d="M52.8998 16.2044L44.7969 8.10156L36.694 16.2044L44.7969 24.3073L52.8998 16.2044Z" fill="white"/>
<path d="M46.3867 18.7449L30.1836 34.948L30.1836 18.7449L46.3867 18.7449Z" fill="#F36B50"/>
<path d="M30.1836 34.948L13.9805 18.7449L30.1836 18.7449L30.1836 34.948Z" fill="#F7937F"/>
<path d="M13.9805 18.7449L30.1836 2.54175L30.1836 18.7449L13.9805 18.7449Z" fill="#FBBAAD"/>
<path d="M30.1836 2.54175L46.3867 18.7449L30.1836 18.7449L30.1836 2.54175Z" fill="#EF4421"/>
<path d="M38.2865 18.7462L30.1836 10.6433L22.0807 18.7462L30.1836 26.8491L38.2865 18.7462Z" fill="white"/>
</svg>
