<svg width="28" height="28" viewBox="0 0 28 28" fill="none" xmlns="http://www.w3.org/2000/svg">
<path d="M13.8233 27.6466C21.4577 27.6466 27.6466 21.4577 27.6466 13.8233C27.6466 6.18891 21.4577 0 13.8233 0C6.18891 0 0 6.18891 0 13.8233C0 21.4577 6.18891 27.6466 13.8233 27.6466Z" fill="#2E3148"/>
<path d="M13.8237 21.8437C18.2535 21.8437 21.8446 18.2526 21.8446 13.8227C21.8446 9.39286 18.2535 5.80176 13.8237 5.80176C9.39384 5.80176 5.80273 9.39286 5.80273 13.8227C5.80273 18.2526 9.39384 21.8437 13.8237 21.8437Z" fill="#1B1E36"/>
<path d="M13.8525 1.76367C12.3603 1.76367 11.1504 7.17577 11.1504 13.852C11.1504 20.5282 12.3603 25.9403 13.8525 25.9403C15.3446 25.9403 16.5545 20.5282 16.5545 13.852C16.5545 7.17577 15.3446 1.76367 13.8525 1.76367ZM14.039 25.2581C13.8684 25.4857 13.6978 25.3149 13.6978 25.3149C13.0106 24.5187 12.667 23.0395 12.667 23.0395C11.465 19.1713 11.7511 10.8659 11.7511 10.8659C12.316 4.27233 13.3435 2.71472 13.6932 2.36891C13.7289 2.33362 13.7759 2.31205 13.826 2.30801C13.876 2.30396 13.9259 2.3177 13.9668 2.34679C14.4742 2.70631 14.8997 4.20985 14.8997 4.20985C16.1563 8.87449 16.0425 13.2547 16.0425 13.2547C16.1563 17.0661 15.4128 21.3325 15.4128 21.3325C14.8406 24.5749 14.039 25.2581 14.039 25.2581Z" fill="#6F7390"/>
<path d="M24.3393 7.83592C23.5964 6.54117 18.3003 8.18515 12.5065 11.5074C6.71278 14.8296 2.62595 18.5726 3.36831 19.8668C4.11068 21.161 9.40733 19.5176 15.2011 16.1954C20.9948 12.8731 25.0816 9.13011 24.3393 7.83592ZM4.05373 19.6892C3.7693 19.6534 3.83355 19.4196 3.83355 19.4196C4.18245 18.4276 5.29274 17.3934 5.29274 17.3934C8.0511 14.4257 15.398 10.5409 15.398 10.5409C21.3978 7.74944 23.2614 7.86721 23.7341 7.99737C23.7827 8.01092 23.8248 8.0412 23.8532 8.08285C23.8815 8.12451 23.8942 8.17485 23.889 8.22496C23.8321 8.84424 22.737 9.96117 22.737 9.96117C19.3185 13.3738 15.4623 15.4552 15.4623 15.4552C12.2129 17.4513 8.14222 18.9286 8.14222 18.9286C5.0448 20.0448 4.05384 19.6892 4.05384 19.6892H4.05373Z" fill="#6F7390"/>
<path d="M24.3093 19.9108C25.058 18.6195 20.9815 14.8594 15.2081 11.5121C9.43468 8.1649 4.13925 6.50057 3.39124 7.79411C2.64323 9.08764 6.71912 12.8456 12.4958 16.1928C18.2725 19.54 23.5613 21.2045 24.3093 19.9108ZM3.88733 8.29307C3.77674 8.03087 4.01019 7.96773 4.01019 7.96773C5.04373 7.77254 6.49551 8.21732 6.49551 8.21732C10.4451 9.11672 17.4878 13.5282 17.4878 13.5282C22.9102 17.3226 23.7418 18.9939 23.8664 19.4683C23.8791 19.5169 23.8742 19.5685 23.8525 19.6139C23.8309 19.6593 23.7939 19.6956 23.7481 19.7163C23.1827 19.9752 21.6683 19.5895 21.6683 19.5895C17.0008 18.338 13.2679 16.045 13.2679 16.045C9.91396 14.236 6.59747 11.4525 6.59747 11.4525C4.07743 9.33071 3.8881 8.29595 3.8881 8.29595L3.88733 8.29307Z" fill="#6F7390"/>
<path d="M13.8225 15.2457C14.608 15.2457 15.2447 14.6089 15.2447 13.8235C15.2447 13.0381 14.608 12.4014 13.8225 12.4014C13.0371 12.4014 12.4004 13.0381 12.4004 13.8235C12.4004 14.6089 13.0371 15.2457 13.8225 15.2457Z" fill="#B7B9C8"/>
<path d="M19.6549 9.21634C20.1105 9.21634 20.4798 8.83431 20.4798 8.36305C20.4798 7.89179 20.1105 7.50977 19.6549 7.50977C19.1994 7.50977 18.8301 7.89179 18.8301 8.36305C18.8301 8.83431 19.1994 9.21634 19.6549 9.21634Z" fill="#B7B9C8"/>
<path d="M6.11393 12.1167C6.56949 12.1167 6.93879 11.7347 6.93879 11.2634C6.93879 10.7922 6.56949 10.4102 6.11393 10.4102C5.65837 10.4102 5.28906 10.7922 5.28906 11.2634C5.28906 11.7347 5.65837 12.1167 6.11393 12.1167Z" fill="#B7B9C8"/>
<path d="M12.1432 22.5845C12.5988 22.5845 12.9681 22.2025 12.9681 21.7312C12.9681 21.26 12.5988 20.8779 12.1432 20.8779C11.6877 20.8779 11.3184 21.26 11.3184 21.7312C11.3184 22.2025 11.6877 22.5845 12.1432 22.5845Z" fill="#B7B9C8"/>
</svg>
