<svg width="26" height="27" viewBox="0 0 26 27" fill="none" xmlns="http://www.w3.org/2000/svg">
<path d="M14.1316 0C14.8512 0.156437 15.5812 0.281586 16.3008 0.46931C21.4111 1.80424 25.2073 6.16361 25.8539 11.399C25.9165 11.8996 25.9477 12.3898 25.9999 12.9738C25.2907 12.9738 24.6441 12.9947 23.9975 12.953C23.9036 12.9425 23.7576 12.6609 23.7472 12.5045C23.6429 10.596 23.111 8.82303 22.0577 7.22738C20.0344 4.16122 17.1873 2.50299 13.5162 2.26312C13.1095 2.23183 12.9635 2.13797 12.9844 1.73123C13.0156 1.15763 12.9844 0.59446 12.9844 0.0208582C13.3702 0 13.7457 0 14.1316 0Z" fill="#F2EFEA"/>
<path d="M0 12.9844C0.58403 12.9948 1.17849 13.0157 1.76252 12.9948C2.12754 12.9844 2.2214 13.1095 2.24226 13.4641C2.57599 17.9486 4.81825 21.0982 8.90646 22.9442C10.0328 23.4552 11.2426 23.6951 12.4837 23.7264C12.8695 23.7368 12.9947 23.8724 12.9738 24.2478C12.9425 24.8006 12.9634 25.3429 12.9634 26.0208C12.0978 25.9165 11.2947 25.8643 10.5021 25.7183C5.02683 24.6441 0.886475 20.2326 0.125149 14.6739C0.104291 14.4862 0.0417165 14.3089 0 14.1211C0 13.7457 0 13.3703 0 12.9844Z" fill="#F2EFEA"/>
<path d="M19.5434 11.7754C19.3661 12.3177 19.2618 12.7557 19.0636 13.152C19.001 13.2876 18.6986 13.3606 18.5004 13.3606C16.0079 13.371 13.5153 13.371 11.0228 13.371C10.835 13.371 10.6473 13.371 10.47 13.371C10.3553 14.4661 11.3982 15.6341 12.6184 15.7906C13.6718 15.9262 14.6521 15.728 15.4343 14.9145C15.5281 14.8207 15.7889 14.7894 15.9036 14.852C16.352 15.1023 16.7796 15.3943 17.2072 15.6759C16.9465 16.7396 15.1318 17.72 13.2546 17.7304C10.7308 17.7513 9.1351 16.385 8.25905 13.3815C7.67502 13.3815 7.07013 13.3815 6.38181 13.3815C6.38181 12.9017 6.36095 12.4533 6.39224 12.0152C6.40267 11.9318 6.59039 11.7962 6.70511 11.7858C7.08056 11.7545 7.46644 11.7545 7.84189 11.7754C8.22776 11.8067 8.40506 11.6711 8.54064 11.2852C9.46883 8.50063 12.6288 7.19699 15.2048 8.53191C16.3416 9.11594 17.0821 10.0546 17.395 11.2852C17.4888 11.6606 17.6661 11.7962 18.0416 11.7754C18.5004 11.7545 18.9698 11.7754 19.5434 11.7754ZM10.5326 11.6919C10.5952 11.7232 10.616 11.7545 10.6473 11.7545C12.1074 11.7649 13.5779 11.7754 15.038 11.7754C15.403 11.7754 15.3404 11.5251 15.2674 11.3061C14.9233 10.2527 13.9325 9.67912 12.6288 9.77298C11.6068 9.84598 10.7203 10.649 10.5326 11.6919Z" fill="#F2EFEA"/>
</svg>
