<svg width="12" height="12" viewBox="0 0 12 12" fill="none" xmlns="http://www.w3.org/2000/svg">
<path d="M6.0756 8.18208L6.5289 6.45865L6.85742 5.26206C7.13186 3.99224 4.29079 5.07064 3.875 5.39508L3.90835 5.77595C4.28694 5.50951 5.72055 5.16819 5.43472 6.11145L5.30649 6.59293L4.65282 9.0314C4.37837 10.3012 7.21945 9.22281 7.63524 8.89837L7.60188 8.51751C7.22337 8.78403 5.78977 9.12534 6.0756 8.18208Z" fill="white"/>
<path d="M6.45328 4.32843C6.93877 4.32843 7.33234 3.93487 7.33234 3.44937C7.33234 2.96388 6.93877 2.57031 6.45328 2.57031C5.96779 2.57031 5.57422 2.96388 5.57422 3.44937C5.57422 3.93487 5.96779 4.32843 6.45328 4.32843Z" fill="white"/>
<circle cx="6" cy="6" r="5.75" stroke="white" stroke-width="0.5"/>
</svg>
