<svg width="59" height="54" viewBox="0 0 59 54" fill="none" xmlns="http://www.w3.org/2000/svg">
<path d="M30.9434 15.4719L15.4714 30.9439L15.4714 15.4719L30.9434 15.4719Z" fill="#F36B50"/>
<path d="M15.4727 30.9439L0.000721931 15.4719L15.4727 15.4719L15.4727 30.9439Z" fill="#F7937F"/>
<path d="M0.000721255 15.4719L15.4727 0L15.4727 15.4719L0.000721255 15.4719Z" fill="#FBBAAD"/>
<path d="M15.4714 -6.763e-07L30.9434 15.4719L15.4714 15.4719L15.4714 -6.763e-07Z" fill="#EF4421"/>
<path d="M23.2099 15.4733L15.4727 7.73608L7.73543 15.4733L15.4727 23.2105L23.2099 15.4733Z" fill="white"/>
<path d="M58.2461 15.4719L42.7742 30.9439L42.7742 15.4719L58.2461 15.4719Z" fill="#F36B50"/>
<path d="M42.7754 30.9439L27.3035 15.4719L42.7754 15.4719L42.7754 30.9439Z" fill="#F7937F"/>
<path d="M27.3035 15.4719L42.7754 0L42.7754 15.4719L27.3035 15.4719Z" fill="#FBBAAD"/>
<path d="M42.7742 -6.763e-07L58.2461 15.4719L42.7742 15.4719L42.7742 -6.763e-07Z" fill="#EF4421"/>
<path d="M50.5126 15.4733L42.7754 7.73608L35.0382 15.4733L42.7754 23.2105L50.5126 15.4733Z" fill="white"/>
<path d="M44.2891 17.8987L28.8171 33.3706L28.8171 17.8987L44.2891 17.8987Z" fill="#F36B50"/>
<path d="M28.8184 33.3706L13.3464 17.8987L28.8184 17.8987L28.8184 33.3706Z" fill="#F7937F"/>
<path d="M13.3464 17.8987L28.8184 2.42676L28.8184 17.8987L13.3464 17.8987Z" fill="#FBBAAD"/>
<path d="M28.8171 2.42676L44.2891 17.8987L28.8171 17.8987L28.8171 2.42676Z" fill="#EF4421"/>
<path d="M36.5556 17.9001L28.8184 10.1628L21.0811 17.9001L28.8184 25.6373L36.5556 17.9001Z" fill="white"/>
<path d="M37.0059 38.5283L21.5339 54.0003L21.5339 38.5283L37.0059 38.5283Z" fill="#F36B50"/>
<path d="M21.5352 54.0003L6.06322 38.5283L21.5352 38.5283L21.5352 54.0003Z" fill="#F7937F"/>
<path d="M6.06322 38.5283L21.5352 23.0564L21.5352 38.5283L6.06322 38.5283Z" fill="#FBBAAD"/>
<path d="M21.5339 23.0564L37.0059 38.5283L21.5339 38.5283L21.5339 23.0564Z" fill="#EF4421"/>
<path d="M29.2724 38.5297L21.5352 30.7925L13.7979 38.5297L21.5352 46.2669L29.2724 38.5297Z" fill="white"/>
<path d="M52.5684 38.5283L37.0964 54.0003L37.0964 38.5283L52.5684 38.5283Z" fill="#F36B50"/>
<path d="M37.0977 54.0003L21.6257 38.5283L37.0977 38.5283L37.0977 54.0003Z" fill="#F7937F"/>
<path d="M21.6257 38.5283L37.0977 23.0564L37.0977 38.5283L21.6257 38.5283Z" fill="#FBBAAD"/>
<path d="M37.0964 23.0564L52.5684 38.5283L37.0964 38.5283L37.0964 23.0564Z" fill="#EF4421"/>
<path d="M44.8349 38.5297L37.0977 30.7925L29.3604 38.5297L37.0977 46.2669L44.8349 38.5297Z" fill="white"/>
</svg>
