<svg width="25" height="25" viewBox="0 0 25 25" fill="none" xmlns="http://www.w3.org/2000/svg">
<path d="M10.1851 0H0V10.1851H10.1851V0ZM7.40719 7.40719H2.77759V2.77759H7.40719V7.40719Z" fill="white"/>
<path d="M0 24.9996H10.1851V14.8145H0V24.9996ZM2.77792 17.592L7.40719 17.5924V22.222H2.77759L2.77792 17.592Z" fill="white"/>
<path d="M24.9996 0H14.8145V10.1851H24.9996V0ZM22.222 7.40719H17.5924V2.77759H22.222V7.40719Z" fill="white"/>
<path d="M22.2227 14.8145H25.0006V17.5924H22.2227V14.8145Z" fill="white"/>
<path d="M22.2227 22.2217H25.0006V24.9996H22.2227V22.2217Z" fill="white"/>
<path d="M14.8145 22.2217H17.5924V24.9996H14.8145V22.2217Z" fill="white"/>
<path d="M18.5176 18.5186H21.2955V21.2965H18.5176V18.5186Z" fill="white"/>
<path d="M14.8145 14.8145H17.5924V17.5924H14.8145V14.8145Z" fill="white"/>
</svg>
