<svg width="26" height="26" viewBox="0 0 26 26" fill="none" xmlns="http://www.w3.org/2000/svg">
<path d="M13 26C20.1797 26 26 20.1797 26 13C26 5.8203 20.1797 0 13 0C5.8203 0 0 5.8203 0 13C0 20.1797 5.8203 26 13 26Z" fill="#172852"/>
<path d="M10.4713 5.80952C11.9936 5.24012 13.707 5.23882 15.2579 5.70682C17.2768 6.33342 18.9811 7.85702 19.8716 9.76932C20.1173 10.314 20.3526 10.8821 20.376 11.4879C19.2411 10.8301 17.997 10.4037 16.7503 10.015C14.7561 9.29612 12.6683 8.79692 10.7807 7.80892C10.3413 7.54632 9.78103 7.27722 9.66143 6.72992C9.61333 6.25672 10.1138 5.99282 10.4713 5.80952Z" fill="#FFD83D"/>
<path d="M5.87692 10.4113C6.31762 9.21533 7.04042 8.10513 8.02192 7.28223C8.27152 9.33493 9.14512 11.3187 10.5881 12.8111C12.3184 14.609 14.7832 15.7127 17.2909 15.6711C18.2867 15.7023 19.2604 15.4722 20.2315 15.2863C19.276 18.7391 15.4917 21.031 11.9856 20.4798C9.86922 20.2094 7.91532 18.9562 6.73622 17.1869C5.40632 15.2317 5.07092 12.6356 5.87692 10.4113Z" fill="#FFD83D"/>
<path d="M16.75 10.0146C17.9967 10.4033 19.2408 10.8297 20.3757 11.4875L20.4524 11.5278C20.5577 12.3195 20.6344 13.1268 20.494 13.9198C19.9233 13.678 19.4605 13.2529 18.9769 12.8772C18.0461 12.1024 17.0958 11.2158 16.75 10.0146Z" fill="#FF6F03"/>
</svg>
