<svg width="18" height="22" viewBox="0 0 18 22" fill="none" xmlns="http://www.w3.org/2000/svg">
<path fill-rule="evenodd" clip-rule="evenodd" d="M0 21.4752L0 1.46289L3 1.46289L3 21.4752H0Z" fill="black"/>
<path fill-rule="evenodd" clip-rule="evenodd" d="M15 21.4633L15 0L18 0V21.4633H15Z" fill="black"/>
<path fill-rule="evenodd" clip-rule="evenodd" d="M17.2 3.00244H0L0 0.00244141H17.2V3.00244Z" fill="black"/>
<path fill-rule="evenodd" clip-rule="evenodd" d="M13 8.46289H5V6.46289H13V8.46289Z" fill="black"/>
<path fill-rule="evenodd" clip-rule="evenodd" d="M13 12.4629H5V10.4629H13V12.4629Z" fill="black"/>
<path fill-rule="evenodd" clip-rule="evenodd" d="M6.00007 18.4629L3.00007 21.5415L1.92578 20.4946L4.92578 17.416L6.00007 18.4629Z" fill="black"/>
<path fill-rule="evenodd" clip-rule="evenodd" d="M7.00184 21.463L4.00184 18.463L5.0625 17.4023L8.0625 20.4023L7.00184 21.463Z" fill="black"/>
<path fill-rule="evenodd" clip-rule="evenodd" d="M14.0001 18.4629L11.0001 21.5415L9.92578 20.4946L12.9258 17.416L14.0001 18.4629Z" fill="black"/>
<path fill-rule="evenodd" clip-rule="evenodd" d="M15.0018 21.463L12.0018 18.463L13.0625 17.4023L16.0625 20.4023L15.0018 21.463Z" fill="black"/>
<path fill-rule="evenodd" clip-rule="evenodd" d="M9.99808 18.4648L7.03522 21.4883L5.96388 20.4384L8.92674 17.415L9.99808 18.4648Z" fill="black"/>
<path fill-rule="evenodd" clip-rule="evenodd" d="M11.0018 21.463L8.00184 18.463L9.0625 17.4023L12.0625 20.4023L11.0018 21.463Z" fill="black"/>
</svg>
