<svg width="26" height="26" viewBox="0 0 26 26" fill="none" xmlns="http://www.w3.org/2000/svg">
<circle cx="13" cy="13" r="13" fill="#85BB65"/>
<path d="M12.349 18.195C11.609 18.115 10.964 17.92 10.414 17.61C9.86396 17.29 9.43396 16.87 9.12396 16.35C8.81396 15.83 8.63396 15.23 8.58396 14.55C8.58396 14.54 8.58396 14.535 8.58396 14.535C8.58396 14.535 8.58396 14.53 8.58396 14.52H10.669C10.699 14.87 10.784 15.18 10.924 15.45C11.064 15.72 11.254 15.94 11.494 16.11C11.734 16.28 12.019 16.395 12.349 16.455V13.395C11.609 13.215 10.994 13.01 10.504 12.78C10.014 12.54 9.63396 12.225 9.36396 11.835C9.10396 11.445 8.97396 10.95 8.97396 10.35C8.97396 9.47 9.27896 8.755 9.88896 8.205C10.499 7.655 11.319 7.33 12.349 7.23V6.255H13.669V7.23C14.709 7.34 15.529 7.69 16.129 8.28C16.739 8.87 17.074 9.62 17.134 10.53H15.109C15.069 10.11 14.924 9.765 14.674 9.495C14.424 9.215 14.089 9.03 13.669 8.94V11.67C14.499 11.85 15.179 12.06 15.709 12.3C16.249 12.54 16.664 12.87 16.954 13.29C17.254 13.7 17.404 14.235 17.404 14.895C17.404 15.525 17.244 16.08 16.924 16.56C16.614 17.03 16.174 17.41 15.604 17.7C15.044 17.98 14.399 18.15 13.669 18.21V19.305H12.349V18.195ZM13.669 16.5C14.179 16.44 14.584 16.285 14.884 16.035C15.194 15.775 15.349 15.43 15.349 15C15.349 14.76 15.289 14.56 15.169 14.4C15.059 14.23 14.884 14.09 14.644 13.98C14.404 13.87 14.079 13.765 13.669 13.665V16.5ZM12.349 8.925C11.929 9.005 11.599 9.16 11.359 9.39C11.119 9.61 10.999 9.88 10.999 10.2C10.999 10.5 11.104 10.735 11.314 10.905C11.524 11.075 11.869 11.23 12.349 11.37V8.925Z" fill="white"/>
</svg>
