<svg width="43" height="44" viewBox="0 0 43 44" fill="none" xmlns="http://www.w3.org/2000/svg">
<path d="M21.1767 43.2958C32.8722 43.2958 42.3534 33.8146 42.3534 22.1191C42.3534 10.4235 32.8722 0.942383 21.1767 0.942383C9.48113 0.942383 0 10.4235 0 22.1191C0 33.8146 9.48113 43.2958 21.1767 43.2958Z" fill="#2E3148"/>
<path d="M21.1784 34.4065C27.9647 34.4065 33.4661 28.9051 33.4661 22.1188C33.4661 15.3325 27.9647 9.83105 21.1784 9.83105C14.392 9.83105 8.89062 15.3325 8.89062 22.1188C8.89062 28.9051 14.392 34.4065 21.1784 34.4065Z" fill="#1B1E36"/>
<path d="M21.2215 3.64355C18.9356 3.64355 17.082 11.9346 17.082 22.1623C17.082 32.39 18.9356 40.6811 21.2215 40.6811C23.5074 40.6811 25.3609 32.39 25.3609 22.1623C25.3609 11.9346 23.5074 3.64355 21.2215 3.64355ZM21.5073 39.636C21.2459 39.9846 20.9845 39.723 20.9845 39.723C19.9317 38.5033 19.4054 36.2372 19.4054 36.2372C17.564 30.3113 18.0023 17.5878 18.0023 17.5878C18.8677 7.4867 20.4418 5.10051 20.9775 4.57075C21.0322 4.51669 21.1043 4.48365 21.1809 4.47745C21.2576 4.47125 21.334 4.49229 21.3967 4.53687C22.1739 5.08764 22.8258 7.39098 22.8258 7.39098C24.7509 14.537 24.5765 21.2473 24.5765 21.2473C24.7509 27.0861 23.6119 33.6221 23.6119 33.6221C22.7352 38.5893 21.5073 39.636 21.5073 39.636Z" fill="#6F7390"/>
<path d="M37.2834 12.9472C36.1453 10.9637 28.0319 13.4822 19.1561 18.5717C10.2804 23.6613 4.01954 29.3954 5.15681 31.378C6.29409 33.3607 14.4083 30.843 23.2841 25.7535C32.1598 20.664 38.4206 14.9299 37.2834 12.9472ZM6.20684 31.106C5.77111 31.0511 5.86954 30.6929 5.86954 30.6929C6.40404 29.1731 8.10495 27.5888 8.10495 27.5888C12.3306 23.0424 23.5858 17.0911 23.5858 17.0911C32.7771 12.8147 35.6321 12.9952 36.3563 13.1946C36.4307 13.2153 36.4953 13.2617 36.5387 13.3255C36.5821 13.3893 36.6015 13.4664 36.5935 13.5432C36.5064 14.4919 34.8287 16.203 34.8287 16.203C29.5918 21.4309 23.6842 24.6196 23.6842 24.6196C18.7063 27.6775 12.4702 29.9407 12.4702 29.9407C7.72512 31.6506 6.20701 31.106 6.20701 31.106H6.20684Z" fill="#6F7390"/>
<path d="M37.2398 31.4442C38.3867 29.466 32.1416 23.7056 23.297 18.5778C14.4525 13.45 6.34009 10.9003 5.19418 12.8819C4.04827 14.8636 10.2923 20.6206 19.142 25.7484C27.9916 30.8762 36.0938 33.426 37.2398 31.4442ZM5.95417 13.6463C5.78475 13.2446 6.14239 13.1479 6.14239 13.1479C7.72572 12.8489 9.94978 13.5303 9.94978 13.5303C16.0004 14.9081 26.7895 21.6664 26.7895 21.6664C35.0963 27.4791 36.3703 30.0395 36.5613 30.7662C36.5807 30.8408 36.5731 30.9198 36.54 30.9893C36.5068 31.0588 36.4501 31.1144 36.38 31.1462C35.5138 31.5428 33.1938 30.9519 33.1938 30.9519C26.0434 29.0347 20.3248 25.5219 20.3248 25.5219C15.1867 22.7506 10.106 18.4865 10.106 18.4865C6.24539 15.2359 5.95535 13.6507 5.95535 13.6507L5.95417 13.6463Z" fill="#6F7390"/>
<path d="M21.1787 24.2977C22.3819 24.2977 23.3573 23.3223 23.3573 22.1191C23.3573 20.9158 22.3819 19.9404 21.1787 19.9404C19.9754 19.9404 19 20.9158 19 22.1191C19 23.3223 19.9754 24.2977 21.1787 24.2977Z" fill="#B7B9C8"/>
<path d="M30.1074 15.0607C30.8053 15.0607 31.3711 14.4754 31.3711 13.7535C31.3711 13.0315 30.8053 12.4463 30.1074 12.4463C29.4095 12.4463 28.8438 13.0315 28.8438 13.7535C28.8438 14.4754 29.4095 15.0607 30.1074 15.0607Z" fill="#B7B9C8"/>
<path d="M9.36522 19.505C10.0631 19.505 10.6289 18.9198 10.6289 18.1978C10.6289 17.4759 10.0631 16.8906 9.36522 16.8906C8.66732 16.8906 8.10156 17.4759 8.10156 18.1978C8.10156 18.9198 8.66732 19.505 9.36522 19.505Z" fill="#B7B9C8"/>
<path d="M18.6035 35.5402C19.3014 35.5402 19.8672 34.9549 19.8672 34.233C19.8672 33.511 19.3014 32.9258 18.6035 32.9258C17.9056 32.9258 17.3398 33.511 17.3398 34.233C17.3398 34.9549 17.9056 35.5402 18.6035 35.5402Z" fill="#B7B9C8"/>
</svg>
